M48
;Layer_Color=9474304
;FILE_FORMAT=2:4
INCH,TZ
;TYPE=PLATED
T1F00S00C0.0098
T2F00S00C0.0315
T3F00S00C0.0354
T4F00S00C0.0394
T6F00S00C0.0787
T7F00S00C0.1220
;TYPE=NON_PLATED
T8F00S00C0.0354
%
T01
X4303Y4410
X5236Y4154
X3780Y5748
X3071Y5709
X6339Y6496
X7500Y6260
X7609Y3164
X9478Y3730
X10079Y3124
X10699Y2756
X10394Y2096
X10640Y1693
X11388Y1348
X12165Y1555
Y2392
X12283Y5571
X12598Y5571
X10650Y514
X9685Y610
X14124Y719
X13780Y2362
X15856Y3327
X15991Y1515
X16277Y623
X20184Y879
X20617Y869
X21149Y1063
X21152Y2165
X22550Y2037
X22625Y2690
X22244Y4273
X21654
X21063
X20463Y4293
X18868Y4734
X18081Y5463
X17323Y6378
X19121Y2011
X21946Y544
X24154Y1634
X28632Y6378
X29321Y4045
X30443Y3465
X31526Y4350
X31033Y14459
X30423Y15079
X29580Y15374
X29252Y16673
X29646Y17530
X31673Y18278
X28071Y17900
X27413Y16492
X26832
X26222
X25591Y17028
Y17795
X25130Y17394
X23780Y16506
X23947Y15522
X20630Y15610
X19764Y15551
X20138Y16929
X19213Y16988
X18720Y17362
X18495Y17658
X18720Y17913
X19213Y18179
X21220Y17146
X21614Y16929
X22835Y18140
X20728Y19980
X20827Y14833
X19222Y14203
X18927Y13632
X18642Y13406
X18268Y13100
X17894Y12825
X18209Y15020
X18164Y15827
X16742Y15079
X15285Y14606
X15039Y14803
X15069Y14183
X15706Y14149
X14114Y12904
X14222Y11201
X14537Y10886
X15433Y10659
X14134Y9311
Y8996
X14375Y8214
X14360Y7677
X28652Y7707
X28071Y15085
X28937Y16201
X13346Y12904
X12598Y12736
X12283Y12736
X12776Y11476
X12992Y11240
X12992Y10728
X11968Y9311
X11762Y8996
X11968Y6850
X11654Y6634
X11339Y6890
X11024Y6663
X10394Y6664
X8356Y7077
X8376Y7372
X8489Y7746
X8878Y7726
X8888Y8041
X9222Y8356
X9380Y8671
X8071Y8051
X8120Y7623
X8130Y6870
X6545Y7021
X5886Y7736
X5866Y8169
X5472Y8681
X6969Y10256
Y10571
X3839Y10512
X2874Y9528
X2884Y11526
X2559Y13209
X3219
X3238Y14006
X2559
X3612Y15364
X4695Y15453
X4291Y16742
X4449Y17165
X4175Y17990
X4720Y18016
X3287Y16850
X2441Y16821
X866Y16329
Y17333
X6604Y15512
X6841Y15226
X6339Y15236
X9606Y16250
X10394Y15502
X10669Y14665
X10640Y13159
X9449Y12736
X9134
X9508Y14094
X3228Y7815
X2549
Y7018
X3209
T02
X29616Y5295
T03
X20167Y5295
X20758
X21348
X21939
X22530
X23120
X23711
X24301
X24892
X25482
X26073
X26663
X27254
X27844
X28435
X29026
T04
X4000Y1157
X5000
X6000
X7000
X8000
Y2157
X7000
X6000
X5000
X4000
X25000
X26000
X27000
X28000
X29000
Y1157
X28000
X27000
X26000
X25000
Y19157
X26000
X27000
X28000
X29000
Y20157
X28000
X27000
X26000
X25000
X18335Y16811
X17335
X15268Y16809
Y15809
X14268
Y16809
X13268
Y15809
X12268
Y16809
X11268
Y15809
X8000Y19157
X7000
X6000
X5000
X4000
Y20157
X5000
X6000
X7000
X8000
X5472Y13701
X4472
T06
X10000Y20157
T07
X984Y984
X32480
Y20276
X984
T08
X16978Y5295
X32805Y5295
Y14390
X22717Y18799
X20984
X16978Y14390
M30
