%FSLAX43Y43*%
%MOMM*%
G71*
G01*
G75*
G04 Layer_Physical_Order=4*
G04 Layer_Color=16711680*
%ADD10R,0.762X0.762*%
%ADD11R,0.762X0.762*%
%ADD12R,1.200X1.200*%
%ADD13O,0.550X2.000*%
%ADD14O,2.000X0.550*%
%ADD15R,0.950X1.000*%
%ADD16R,3.200X3.200*%
%ADD17R,4.000X4.000*%
%ADD18R,1.500X0.800*%
%ADD19R,0.650X0.800*%
%ADD20R,0.600X0.900*%
%ADD21R,1.000X1.000*%
%ADD22R,0.800X1.000*%
%ADD23R,0.900X0.600*%
%ADD24R,0.700X0.700*%
%ADD25R,0.800X0.650*%
%ADD26R,1.300X0.600*%
%ADD27R,1.500X0.990*%
%ADD28R,1.500X3.280*%
%ADD29R,0.500X2.300*%
%ADD30R,2.000X2.500*%
%ADD31R,1.100X0.600*%
%ADD32R,1.100X1.000*%
%ADD33R,0.950X1.750*%
%ADD34R,1.000X1.600*%
%ADD35R,3.000X2.500*%
%ADD36R,1.950X0.600*%
%ADD37R,1.500X1.350*%
%ADD38R,1.150X1.350*%
%ADD39R,1.000X2.250*%
%ADD40R,1.300X0.450*%
%ADD41R,2.250X1.000*%
%ADD42C,0.175*%
%ADD43C,0.350*%
%ADD44C,0.400*%
%ADD45C,0.300*%
%ADD46C,0.229*%
%ADD47C,0.200*%
%ADD48R,0.300X0.900*%
%ADD49C,1.700*%
%ADD50R,1.700X1.700*%
%ADD51C,0.500*%
%ADD52C,3.600*%
%ADD53C,2.000*%
%ADD54O,1.200X2.000*%
G04:AMPARAMS|DCode=55|XSize=2.5mm|YSize=2mm|CornerRadius=0.7mm|HoleSize=0mm|Usage=FLASHONLY|Rotation=0.000|XOffset=0mm|YOffset=0mm|HoleType=Round|Shape=RoundedRectangle|*
%AMROUNDEDRECTD55*
21,1,2.500,0.600,0,0,0.0*
21,1,1.100,2.000,0,0,0.0*
1,1,1.400,0.550,-0.300*
1,1,1.400,-0.550,-0.300*
1,1,1.400,-0.550,0.300*
1,1,1.400,0.550,0.300*
%
%ADD55ROUNDEDRECTD55*%
%ADD56C,0.550*%
%ADD57C,0.500*%
%ADD58C,0.100*%
G04:AMPARAMS|DCode=59|XSize=2.524mm|YSize=2.524mm|CornerRadius=0mm|HoleSize=0mm|Usage=FLASHONLY|Rotation=0.000|XOffset=0mm|YOffset=0mm|HoleType=Round|Shape=Relief|Width=0.254mm|Gap=0.254mm|Entries=4|*
%AMTHD59*
7,0,0,2.524,2.016,0.254,45*
%
%ADD59THD59*%
%ADD60C,1.600*%
%ADD61C,1.500*%
G04:AMPARAMS|DCode=62|XSize=4.624mm|YSize=4.624mm|CornerRadius=0mm|HoleSize=0mm|Usage=FLASHONLY|Rotation=0.000|XOffset=0mm|YOffset=0mm|HoleType=Round|Shape=Relief|Width=0.254mm|Gap=0.254mm|Entries=4|*
%AMTHD62*
7,0,0,4.624,4.116,0.254,45*
%
%ADD62THD62*%
%ADD63C,2.600*%
%ADD64C,1.400*%
G04:AMPARAMS|DCode=65|XSize=2.424mm|YSize=2.424mm|CornerRadius=0mm|HoleSize=0mm|Usage=FLASHONLY|Rotation=0.000|XOffset=0mm|YOffset=0mm|HoleType=Round|Shape=Relief|Width=0.254mm|Gap=0.254mm|Entries=4|*
%AMTHD65*
7,0,0,2.424,1.916,0.254,45*
%
%ADD65THD65*%
%ADD66O,2.600X1.600*%
%ADD67C,0.850*%
%ADD68C,3.700*%
%AMTHOVALD69*
21,1,1.000,2.524,0,0,0.0*
1,1,2.524,-0.500,0.000*
1,1,2.524,0.500,0.000*
21,0,1.000,2.016,0,0,0.0*
1,0,2.016,-0.500,0.000*
1,0,2.016,0.500,0.000*
4,0,4,-0.410,-0.090,-1.303,-0.982,-1.482,-0.803,-0.590,0.090,-0.410,-0.090,0.0*
4,0,4,0.590,-0.090,1.482,0.803,1.303,0.982,0.410,0.090,0.590,-0.090,0.0*
4,0,4,-0.590,-0.090,-1.482,0.803,-1.303,0.982,-0.410,0.090,-0.590,-0.090,0.0*
4,0,4,0.410,-0.090,1.303,-0.982,1.482,-0.803,0.590,0.090,0.410,-0.090,0.0*
%
%ADD69THOVALD69*%

%ADD70R,1.000X0.950*%
%ADD71C,1.270*%
%ADD72R,0.900X0.300*%
%ADD73C,0.800*%
D15*
X32794Y9269D02*
D03*
Y7569D02*
D03*
X30894D02*
D03*
Y9269D02*
D03*
X28894D02*
D03*
Y7569D02*
D03*
X72325Y8950D02*
D03*
Y10650D02*
D03*
D42*
X48925Y9825D02*
Y29100D01*
X45450Y32575D02*
X48925Y29100D01*
X73500Y39250D02*
Y41150D01*
X70325Y36075D02*
X73500Y39250D01*
X48825Y36075D02*
X70325D01*
X42250Y37450D02*
X43925D01*
X41900Y37100D02*
X42250Y37450D01*
X38825Y37100D02*
X41900D01*
X43925Y37450D02*
X44475Y36900D01*
X68000D01*
X72325Y8750D02*
X72525Y8950D01*
X72325Y1975D02*
Y8750D01*
X71973Y1623D02*
X72325Y1975D01*
X69897Y1623D02*
X71973D01*
X68580Y2940D02*
X69897Y1623D01*
X72275Y10650D02*
Y13450D01*
X8200Y19850D02*
Y33525D01*
X16775Y38200D02*
Y39400D01*
X16625Y38050D02*
X16775Y38200D01*
X16625Y17835D02*
Y38050D01*
X28950Y16925D02*
X29375Y17350D01*
X28076Y16925D02*
X28950D01*
X28000Y16849D02*
Y16924D01*
X72725Y19525D02*
X72775Y19575D01*
X72725Y16200D02*
Y19525D01*
X19900Y21800D02*
X21562Y20138D01*
Y19675D02*
Y20138D01*
X19900Y21800D02*
Y41950D01*
X35000Y41455D02*
X36240Y42695D01*
X32425Y39150D02*
Y41420D01*
X29362Y36087D02*
X32425Y39150D01*
X29362Y17362D02*
Y36087D01*
X32425Y41420D02*
X33700Y42695D01*
X28620D02*
X29875Y41440D01*
Y39075D02*
Y41440D01*
X28800Y38000D02*
X29875Y39075D01*
X28800Y17499D02*
Y38000D01*
X30500Y44575D02*
X40025D01*
X28620Y42695D02*
X30500Y44575D01*
X33700Y40155D02*
X33725Y40130D01*
X29362Y17362D02*
X29375Y17350D01*
X30400Y17400D02*
Y21150D01*
X29375Y17350D02*
Y17350D01*
X29600Y16849D02*
X30649D01*
X37327Y41243D02*
X38780Y42695D01*
X12700Y5480D02*
X14220Y7000D01*
X27175D01*
X25190Y7525D02*
X25600Y7935D01*
X12205Y7525D02*
X25190D01*
X10160Y5480D02*
X12205Y7525D01*
X14180Y1460D02*
X22535D01*
X12700Y2940D02*
X14180Y1460D01*
X22535D02*
X26400Y5325D01*
X57276Y5174D02*
X57862Y4588D01*
X58300Y4150D02*
X61350D01*
X57862Y4588D02*
X58300Y4150D01*
X57725Y1500D02*
X66575D01*
X67850Y4250D02*
X69890D01*
X67275Y3675D02*
X67850Y4250D01*
X67275Y2200D02*
Y3675D01*
X69890Y4250D02*
X71120Y5480D01*
X66575Y1500D02*
X67275Y2200D01*
X53725Y5500D02*
X57725Y1500D01*
X62475Y8400D02*
X64800Y6075D01*
Y4180D02*
Y6075D01*
X51825Y8400D02*
X62475D01*
X64800Y4180D02*
X66040Y2940D01*
X60955Y8025D02*
X63500Y5480D01*
X62745Y8775D02*
X66040Y5480D01*
X49375Y9950D02*
X51300Y8025D01*
X60955D01*
X58815Y7625D02*
X63500Y2940D01*
X51125Y7625D02*
X58815D01*
X57100Y1125D02*
X66765D01*
X68580Y2940D01*
X35112Y44107D02*
X40033D01*
X33700Y42695D02*
X35112Y44107D01*
X40033D02*
X43240Y40900D01*
X38780Y42695D02*
X38855D01*
X67375Y49995D02*
X68580Y51200D01*
X4200Y42750D02*
X6175D01*
X6200Y42725D01*
X35900Y22850D02*
X36000D01*
X36000Y22850D01*
X32000Y32450D02*
X32000Y32450D01*
X49775Y8450D02*
X57100Y1125D01*
X40275Y8450D02*
X49775D01*
X19650Y17450D02*
X20650D01*
X19975Y17975D02*
X21225D01*
X19975Y18725D02*
X21275D01*
X10160Y51200D02*
X11450Y49910D01*
X12700Y51200D02*
X12950D01*
X14000Y50150D01*
Y47850D02*
Y50150D01*
Y47850D02*
X19900Y41950D01*
X16692Y48210D02*
Y49748D01*
X15240Y51200D02*
X16692Y49748D01*
X17780Y51200D02*
X18975Y50005D01*
Y48075D02*
Y50005D01*
X11575Y24375D02*
X13900Y22050D01*
X11575Y24375D02*
Y27825D01*
X22025Y23825D02*
X23825Y22025D01*
X22025Y23825D02*
Y45025D01*
X18975Y48075D02*
X22025Y45025D01*
X21475Y23175D02*
X23425Y21225D01*
X21475Y23175D02*
Y44965D01*
X17780Y48660D02*
X21475Y44965D01*
X20550Y21625D02*
X22550Y19625D01*
X20550Y21625D02*
Y43350D01*
X15240Y48660D02*
X20550Y43350D01*
X21050Y21950D02*
X22575Y20425D01*
X21050Y21950D02*
Y43852D01*
X16692Y48210D02*
X21050Y43852D01*
X26400Y34050D02*
X27025Y33425D01*
X26400Y34050D02*
Y39375D01*
X27025Y4300D02*
Y5700D01*
X28894Y7569D01*
X30900Y6075D02*
Y7563D01*
X30894Y7569D02*
X30900Y7563D01*
X34363Y6000D02*
X35000D01*
X32794Y7569D02*
X34363Y6000D01*
X17425Y11000D02*
X27163D01*
X28894Y9269D01*
X29713Y12350D02*
X32794Y9269D01*
X28388Y11775D02*
X30894Y9269D01*
X33000Y28550D02*
X34475Y27075D01*
X39200D01*
X32450Y23525D02*
Y29150D01*
Y23525D02*
X36475Y19500D01*
X33000Y24375D02*
Y27250D01*
Y24375D02*
X36513Y20862D01*
X26401Y16926D02*
X27152Y16175D01*
X44000D01*
Y16200D01*
X9175Y30225D02*
X11575Y27825D01*
X9175Y30225D02*
Y39025D01*
X40025Y44575D02*
X43188Y41412D01*
X62412Y49213D02*
Y50112D01*
X63500Y51200D01*
X47550Y45500D02*
X58700D01*
X62412Y49213D01*
X59690Y44850D02*
X63500Y48660D01*
X47550Y44100D02*
X61480D01*
X66040Y48660D01*
X11450Y46325D02*
Y49910D01*
Y46325D02*
X12000Y45775D01*
X14025D01*
X10160Y46140D02*
Y48660D01*
X11041Y45248D02*
X13202D01*
X10600Y45689D02*
X11041Y45248D01*
X10160Y46140D02*
X10606Y45694D01*
X17375Y28050D02*
Y38675D01*
X46977Y44850D02*
X59690D01*
X19050Y13992D02*
Y16550D01*
Y13992D02*
X20692Y12350D01*
X29713D01*
X17100Y27775D02*
X17375Y28050D01*
X16100Y16600D02*
Y38700D01*
X17100Y18500D02*
X19050Y16550D01*
X17100Y18500D02*
Y27775D01*
X20125Y11775D02*
X28388D01*
X18092Y13808D02*
X20125Y11775D01*
X18092Y13808D02*
Y16367D01*
X16625Y17835D02*
X18092Y16367D01*
X16100Y12325D02*
X17425Y11000D01*
X16100Y12325D02*
Y16500D01*
X18700Y18400D02*
X19650Y17450D01*
X18700Y18400D02*
Y39750D01*
X13202Y45248D02*
X18700Y39750D01*
X19025Y18925D02*
X19975Y17975D01*
X19350Y19350D02*
X19975Y18725D01*
X19350Y19350D02*
Y42010D01*
X19025Y18925D02*
Y40775D01*
X14025Y45775D02*
X19025Y40775D01*
X12700Y48660D02*
X19350Y42010D01*
X36925Y27650D02*
X39894Y30619D01*
X36125Y28450D02*
X38275Y30600D01*
Y36025D01*
X30649Y16849D02*
X31525Y17725D01*
Y29225D01*
X30400Y21150D02*
X31000Y21750D01*
X29875Y22850D02*
Y35275D01*
X33725Y39125D01*
Y40130D01*
X31525Y29225D02*
X35175Y32875D01*
Y36875D01*
X37327Y39028D01*
Y41243D01*
X71120Y51200D02*
X72370Y49950D01*
Y47695D02*
Y49950D01*
X67350Y42675D02*
X72370Y47695D01*
X63834Y40900D02*
X68580Y45646D01*
Y48660D01*
X63887Y41412D02*
X67375Y44900D01*
Y49995D01*
X71120Y47726D02*
Y48660D01*
X38855Y42695D02*
X41150Y40400D01*
X63794D02*
X71120Y47726D01*
X48775Y40400D02*
X63794D01*
X41150D02*
X44275D01*
X45112Y39562D01*
X47938D02*
X48775Y40400D01*
X43188Y41412D02*
X63887D01*
X45112Y39562D02*
X47938D01*
X66600Y42675D02*
X67350D01*
X63925Y40000D02*
X66600Y42675D01*
X53900Y40000D02*
X63925D01*
X52745Y38845D02*
X53900Y40000D01*
X41605Y38845D02*
X52745D01*
X39894Y30619D02*
Y35938D01*
X30400Y32575D02*
X32300Y34475D01*
X30400Y23650D02*
Y32575D01*
X32300Y34475D02*
Y36525D01*
X35000Y39225D01*
Y41455D01*
X31000Y21750D02*
Y29875D01*
X33900Y32775D01*
Y34350D01*
X43240Y40900D02*
X63834D01*
X41460Y38700D02*
X41605Y38845D01*
X51950Y8775D02*
X62745D01*
X48925Y9825D02*
X51125Y7625D01*
X49900Y10325D02*
X51825Y8400D01*
X49900Y10325D02*
Y31500D01*
X50350Y10375D02*
X51950Y8775D01*
X50350Y10375D02*
Y32350D01*
X46400Y33275D02*
X49375Y30300D01*
Y9950D02*
Y30300D01*
X47350Y34050D02*
X49900Y31500D01*
X48075Y34625D02*
X50350Y32350D01*
X40562Y36537D02*
X41700Y35400D01*
X59350D02*
X77325Y17425D01*
X41700Y35400D02*
X59350D01*
X77325Y8800D02*
Y17425D01*
X68000Y36900D02*
X73450Y42350D01*
X74300D01*
X35850Y36310D02*
X38240Y38700D01*
X35850Y32775D02*
Y36310D01*
X38240Y38700D02*
X41460D01*
X38200Y36800D02*
Y37600D01*
Y36800D02*
X38463Y36537D01*
X40562D01*
D45*
X59950Y48025D02*
Y50750D01*
X58000Y46075D02*
X59950Y48025D01*
X71885Y52975D02*
X73660Y51200D01*
X61075Y52975D02*
X71885D01*
X59950Y51850D02*
X61075Y52975D01*
X59950Y50750D02*
Y51850D01*
X51000Y50750D02*
X52650D01*
D48*
X32794Y8419D02*
D03*
X30894D02*
D03*
X28894D02*
D03*
X72325Y9800D02*
D03*
D49*
X38780Y40155D02*
D03*
X36240D02*
D03*
Y42695D02*
D03*
X33700Y40155D02*
D03*
Y42695D02*
D03*
X31160Y40155D02*
D03*
Y42695D02*
D03*
X28620D02*
D03*
Y40155D02*
D03*
X10160Y51200D02*
D03*
X12700D02*
D03*
Y48660D02*
D03*
X15240Y51200D02*
D03*
Y48660D02*
D03*
X17780Y51200D02*
D03*
Y48660D02*
D03*
X20320Y51200D02*
D03*
Y48660D02*
D03*
X73660D02*
D03*
Y51200D02*
D03*
X71120Y48660D02*
D03*
Y51200D02*
D03*
X68580Y48660D02*
D03*
Y51200D02*
D03*
X66040Y48660D02*
D03*
Y51200D02*
D03*
X63500D02*
D03*
X20320Y2940D02*
D03*
Y5480D02*
D03*
X17780Y2940D02*
D03*
Y5480D02*
D03*
X15240Y2940D02*
D03*
Y5480D02*
D03*
X12700Y2940D02*
D03*
Y5480D02*
D03*
X10160D02*
D03*
X73660Y2940D02*
D03*
Y5480D02*
D03*
X71120Y2940D02*
D03*
Y5480D02*
D03*
X68580Y2940D02*
D03*
Y5480D02*
D03*
X66040Y2940D02*
D03*
Y5480D02*
D03*
X63500D02*
D03*
X44030Y42700D02*
D03*
X46570D02*
D03*
X13900Y34800D02*
D03*
X11360D02*
D03*
D50*
X38780Y42695D02*
D03*
X10160Y48660D02*
D03*
X63500D02*
D03*
X10160Y2940D02*
D03*
X63500D02*
D03*
D51*
X53300Y47750D02*
D03*
X57700D02*
D03*
D52*
X82500Y2500D02*
D03*
Y51500D02*
D03*
X2500D02*
D03*
Y2500D02*
D03*
D53*
X25400Y51200D02*
D03*
D54*
X75225Y13450D02*
D03*
X73725D02*
D03*
X72225D02*
D03*
X70725D02*
D03*
X69225D02*
D03*
X67725D02*
D03*
X66225D02*
D03*
X64725D02*
D03*
X63225D02*
D03*
X61725D02*
D03*
X60225D02*
D03*
X58725D02*
D03*
X57225D02*
D03*
X55725D02*
D03*
X54225D02*
D03*
X52725D02*
D03*
X51225D02*
D03*
D55*
X80525Y15400D02*
D03*
X45925D02*
D03*
D56*
X30900Y3950D02*
D03*
X28925Y3425D02*
D03*
X28000Y16924D02*
D03*
X72775Y19575D02*
D03*
X72725Y16200D02*
D03*
X20500Y20450D02*
D03*
X21562Y19675D02*
D03*
X29875Y22850D02*
D03*
X30400Y23650D02*
D03*
X28800Y17499D02*
D03*
X30400Y17400D02*
D03*
X29600Y16849D02*
D03*
X60400Y41925D02*
D03*
X27175Y7000D02*
D03*
X26400Y5325D02*
D03*
X25600Y7935D02*
D03*
X7300Y24200D02*
D03*
X7325Y29275D02*
D03*
X9750Y26700D02*
D03*
X57276Y5174D02*
D03*
X61350Y4150D02*
D03*
X53725Y5500D02*
D03*
X58000Y46075D02*
D03*
X53900Y43550D02*
D03*
X27100Y37250D02*
D03*
X24150Y35800D02*
D03*
X2200Y41475D02*
D03*
Y44025D02*
D03*
X54900Y43000D02*
D03*
X60825Y39425D02*
D03*
X63830Y44180D02*
D03*
X66603Y41890D02*
D03*
X68153D02*
D03*
X69628D02*
D03*
X71300Y38315D02*
D03*
Y45465D02*
D03*
X7800Y14500D02*
D03*
X9600Y14600D02*
D03*
X35900Y23650D02*
D03*
Y22850D02*
D03*
X32000Y14150D02*
D03*
X31200Y14150D02*
D03*
X17700Y26850D02*
D03*
Y26050D02*
D03*
X23200Y32350D02*
D03*
X24000D02*
D03*
X14900Y20750D02*
D03*
X14950Y19650D02*
D03*
X52650Y50750D02*
D03*
X48800Y43150D02*
D03*
X42525Y38300D02*
D03*
X65000Y45200D02*
D03*
Y43250D02*
D03*
X74475Y10275D02*
D03*
X75134Y39050D02*
D03*
X45925Y13875D02*
D03*
X47925Y12025D02*
D03*
X57467Y6833D02*
D03*
X48567Y5108D02*
D03*
X51267Y2233D02*
D03*
X55743Y1383D02*
D03*
X41342Y1583D02*
D03*
X52367Y2208D02*
D03*
X40275Y8450D02*
D03*
X35875Y1825D02*
D03*
X27050Y1307D02*
D03*
X24600Y1550D02*
D03*
X36125Y28450D02*
D03*
X36925Y27650D02*
D03*
X20650Y17450D02*
D03*
X21225Y17975D02*
D03*
X21275Y18725D02*
D03*
X22550Y19625D02*
D03*
X22575Y20425D02*
D03*
X23425Y21225D02*
D03*
X23825Y22025D02*
D03*
X13900Y22050D02*
D03*
X27025Y33425D02*
D03*
X26400Y39375D02*
D03*
X24075Y9475D02*
D03*
X32450Y29150D02*
D03*
X33000Y28550D02*
D03*
X39200Y27075D02*
D03*
X33000Y27250D02*
D03*
X26401Y16926D02*
D03*
X44000Y16200D02*
D03*
X8350Y42800D02*
D03*
X11925Y39250D02*
D03*
X6500Y35575D02*
D03*
X8225D02*
D03*
X8175Y33550D02*
D03*
X6500D02*
D03*
X6475Y17825D02*
D03*
X8150D02*
D03*
X8200Y19850D02*
D03*
X6475D02*
D03*
X52400Y39650D02*
D03*
X19326Y8038D02*
D03*
X24400Y41275D02*
D03*
X11300Y43600D02*
D03*
X10606Y45694D02*
D03*
X11990Y45760D02*
D03*
X47550Y45500D02*
D03*
X46977Y44852D02*
D03*
X47550Y44100D02*
D03*
X17375Y38675D02*
D03*
X16775Y39400D02*
D03*
X16100Y38700D02*
D03*
X19050Y15900D02*
D03*
X16625Y17835D02*
D03*
X16100Y16500D02*
D03*
X32000Y32350D02*
D03*
X31200Y32350D02*
D03*
X38275Y36025D02*
D03*
X33900Y32775D02*
D03*
X35850D02*
D03*
X39894Y35938D02*
D03*
X51975Y10903D02*
D03*
X53500Y10853D02*
D03*
X55000D02*
D03*
X56500D02*
D03*
X45450Y32575D02*
D03*
X46400Y33275D02*
D03*
X47350Y34050D02*
D03*
X48075Y34625D02*
D03*
X48825Y36075D02*
D03*
X80075Y11050D02*
D03*
X80450Y46425D02*
D03*
X75300Y44525D02*
D03*
X38825Y37100D02*
D03*
X38200Y37600D02*
D03*
D70*
X32200Y34350D02*
D03*
X33900D02*
D03*
D71*
X51000Y50750D02*
D03*
X59950D02*
D03*
X4200Y42750D02*
D03*
D72*
X33050Y34350D02*
D03*
D73*
X78825Y36725D02*
D03*
X53717Y2700D02*
D03*
X40617Y3848D02*
D03*
X20625Y19362D02*
D03*
X13300Y10550D02*
D03*
X52900Y37675D02*
D03*
X46250Y38150D02*
D03*
X50200Y39500D02*
D03*
X6200Y42725D02*
D03*
X46136Y40200D02*
D03*
X10930Y11201D02*
D03*
X27025Y4300D02*
D03*
X30900Y6075D02*
D03*
X35000Y6000D02*
D03*
X36475Y19500D02*
D03*
X36513Y20862D02*
D03*
X9175Y39025D02*
D03*
X10900Y42525D02*
D03*
X51150Y43000D02*
D03*
X77325Y8800D02*
D03*
X77275Y38300D02*
D03*
X74300Y42350D02*
D03*
X73500Y41150D02*
D03*
X48800Y46175D02*
D03*
M02*
