%FSLAX42Y42*%
%MOMM*%
G71*
G01*
G75*
G04 Layer_Physical_Order=2*
G04 Layer_Color=16711680*
%ADD10R,1.35X0.85*%
%ADD11O,2.20X0.60*%
%ADD12R,2.15X3.20*%
%ADD13R,2.15X0.70*%
%ADD14R,1.15X1.85*%
%ADD15R,1.20X1.30*%
%ADD16R,1.50X1.30*%
%ADD17R,1.50X1.15*%
%ADD18R,1.15X1.40*%
%ADD19O,0.60X2.20*%
%ADD20R,0.85X1.35*%
%ADD21R,1.35X1.85*%
%ADD22R,1.85X1.35*%
%ADD23R,1.40X1.15*%
%ADD24R,1.40X1.20*%
%ADD25R,1.10X0.60*%
%ADD26R,1.90X1.50*%
G04:AMPARAMS|DCode=27|XSize=1.9mm|YSize=1.5mm|CornerRadius=0.38mm|HoleSize=0mm|Usage=FLASHONLY|Rotation=0.000|XOffset=0mm|YOffset=0mm|HoleType=Round|Shape=RoundedRectangle|*
%AMROUNDEDRECTD27*
21,1,1.90,0.75,0,0,0.0*
21,1,1.15,1.50,0,0,0.0*
1,1,0.75,0.57,-0.38*
1,1,0.75,-0.57,-0.38*
1,1,0.75,-0.57,0.38*
1,1,0.75,0.57,0.38*
%
%ADD27ROUNDEDRECTD27*%
%ADD28R,1.50X1.75*%
%ADD29C,0.50*%
%ADD30C,0.75*%
%ADD31C,1.00*%
%ADD32C,1.30*%
%ADD33C,0.25*%
%ADD34C,1.80*%
%ADD35R,1.80X1.80*%
%ADD36R,1.80X1.80*%
%ADD37C,5.00*%
%ADD38R,2.50X1.50*%
%ADD39O,2.50X1.50*%
%ADD40C,1.30*%
G36*
X17787Y13242D02*
X17747Y13225D01*
X17710Y13202D01*
X17676Y13174D01*
X17648Y13140D01*
X17625Y13103D01*
X17608Y13062D01*
X17598Y13019D01*
X17594Y12975D01*
X17598Y12931D01*
X17608Y12888D01*
X17625Y12847D01*
X17648Y12810D01*
X17676Y12776D01*
X17710Y12748D01*
X17747Y12725D01*
X17788Y12708D01*
X17831Y12698D01*
X17875Y12694D01*
X17919Y12698D01*
X17962Y12708D01*
X18003Y12725D01*
X18040Y12748D01*
X18074Y12776D01*
X18102Y12810D01*
X18125Y12847D01*
X18142Y12887D01*
X18154Y12885D01*
Y8115D01*
X18142Y8113D01*
X18125Y8153D01*
X18102Y8190D01*
X18074Y8224D01*
X18040Y8252D01*
X18003Y8275D01*
X17962Y8292D01*
X17919Y8302D01*
X17875Y8306D01*
X17831Y8302D01*
X17788Y8292D01*
X17747Y8275D01*
X17710Y8252D01*
X17676Y8224D01*
X17648Y8190D01*
X17625Y8153D01*
X17608Y8112D01*
X17598Y8069D01*
X17594Y8025D01*
X17598Y7981D01*
X17608Y7938D01*
X17625Y7897D01*
X17648Y7860D01*
X17676Y7826D01*
X17710Y7798D01*
X17747Y7775D01*
X17787Y7758D01*
X17785Y7746D01*
X13729D01*
X13727Y7758D01*
X13748Y7767D01*
X13767Y7782D01*
X13837D01*
X13837Y7782D01*
X13855Y7784D01*
X13872Y7791D01*
X13886Y7802D01*
X13973Y7889D01*
X13973Y7889D01*
X13984Y7903D01*
X13991Y7920D01*
X13993Y7937D01*
Y8969D01*
X14005Y8974D01*
X14277Y8702D01*
X14277Y8702D01*
X14281Y8699D01*
X14291Y8691D01*
X14304Y8686D01*
X14307Y8684D01*
X14309Y8684D01*
X14325Y8682D01*
X14325Y8682D01*
X14648D01*
X14650Y8679D01*
X14672Y8662D01*
X14698Y8652D01*
X14725Y8648D01*
X14825D01*
X14852Y8652D01*
X14878Y8662D01*
X14900Y8679D01*
X14917Y8701D01*
X14927Y8727D01*
X14931Y8754D01*
X14927Y8781D01*
X14917Y8807D01*
X14900Y8829D01*
X14878Y8846D01*
X14852Y8856D01*
X14825Y8860D01*
X14725D01*
X14698Y8856D01*
X14672Y8846D01*
X14650Y8829D01*
X14642Y8818D01*
X14353D01*
X13993Y9178D01*
Y9483D01*
X14008Y9502D01*
X14018Y9525D01*
X14021Y9550D01*
X14018Y9575D01*
X14008Y9598D01*
X13993Y9618D01*
X13973Y9633D01*
X13950Y9643D01*
X13925Y9646D01*
X13900Y9643D01*
X13877Y9633D01*
X13857Y9618D01*
X13842Y9598D01*
X13832Y9575D01*
X13829Y9550D01*
X13832Y9525D01*
X13842Y9502D01*
X13857Y9483D01*
Y9150D01*
X13857Y9150D01*
X13857Y9150D01*
Y7966D01*
X13809Y7918D01*
X13767D01*
X13748Y7933D01*
X13725Y7943D01*
X13716Y7944D01*
Y7956D01*
X13725Y7957D01*
X13748Y7967D01*
X13768Y7982D01*
X13783Y8002D01*
X13793Y8025D01*
X13794Y8035D01*
X13606D01*
X13607Y8025D01*
X13617Y8002D01*
X13632Y7982D01*
X13652Y7967D01*
X13675Y7957D01*
X13684Y7956D01*
Y7944D01*
X13675Y7943D01*
X13652Y7933D01*
X13632Y7918D01*
X13617Y7898D01*
X13607Y7875D01*
X13604Y7850D01*
X13607Y7825D01*
X13617Y7802D01*
X13632Y7782D01*
X13652Y7767D01*
X13673Y7758D01*
X13671Y7746D01*
X5146D01*
Y12885D01*
X5158Y12887D01*
X5175Y12847D01*
X5198Y12810D01*
X5226Y12776D01*
X5260Y12748D01*
X5297Y12725D01*
X5338Y12708D01*
X5381Y12698D01*
X5425Y12694D01*
X5469Y12698D01*
X5512Y12708D01*
X5553Y12725D01*
X5590Y12748D01*
X5624Y12776D01*
X5652Y12810D01*
X5675Y12847D01*
X5692Y12888D01*
X5702Y12931D01*
X5706Y12975D01*
X5702Y13019D01*
X5692Y13062D01*
X5675Y13103D01*
X5652Y13140D01*
X5624Y13174D01*
X5590Y13202D01*
X5553Y13225D01*
X5513Y13242D01*
X5515Y13254D01*
X7458D01*
X7463Y13242D01*
X7227Y13007D01*
X7215Y12988D01*
X7211Y12967D01*
Y12907D01*
X7206Y12905D01*
X7181Y12886D01*
X7162Y12861D01*
X7150Y12831D01*
X7146Y12803D01*
X7134D01*
X7130Y12831D01*
X7118Y12861D01*
X7099Y12886D01*
X7074Y12905D01*
X7044Y12917D01*
X7013Y12921D01*
X6982Y12917D01*
X6952Y12905D01*
X6927Y12886D01*
X6908Y12861D01*
X6896Y12831D01*
X6892Y12803D01*
X6892D01*
X6892Y12800D01*
X6892Y12797D01*
X6892D01*
X6896Y12769D01*
X6908Y12739D01*
X6927Y12714D01*
X6952Y12695D01*
X6982Y12683D01*
X7010Y12679D01*
Y12667D01*
X6982Y12663D01*
X6952Y12651D01*
X6927Y12632D01*
X6908Y12607D01*
X6896Y12577D01*
X6892Y12549D01*
X6880D01*
X6876Y12577D01*
X6864Y12607D01*
X6845Y12632D01*
X6820Y12651D01*
X6790Y12663D01*
X6762Y12667D01*
Y12667D01*
X6759Y12667D01*
X6756Y12667D01*
Y12667D01*
X6728Y12663D01*
X6698Y12651D01*
X6673Y12632D01*
X6654Y12607D01*
X6642Y12577D01*
X6638Y12546D01*
X6642Y12515D01*
X6654Y12485D01*
X6673Y12460D01*
X6698Y12441D01*
X6728Y12429D01*
X6759Y12425D01*
X6790Y12429D01*
X6820Y12441D01*
X6845Y12460D01*
X6864Y12485D01*
X6876Y12515D01*
X6880Y12543D01*
X6892D01*
X6896Y12515D01*
X6908Y12485D01*
X6927Y12460D01*
X6952Y12441D01*
X6982Y12429D01*
X7013Y12425D01*
X7044Y12429D01*
X7074Y12441D01*
X7099Y12460D01*
X7118Y12485D01*
X7130Y12515D01*
X7134Y12543D01*
X7134D01*
X7134Y12546D01*
X7134Y12549D01*
X7134D01*
X7130Y12577D01*
X7118Y12607D01*
X7099Y12632D01*
X7074Y12651D01*
X7044Y12663D01*
X7016Y12667D01*
Y12679D01*
X7044Y12683D01*
X7074Y12695D01*
X7099Y12714D01*
X7118Y12739D01*
X7130Y12769D01*
X7134Y12797D01*
X7146D01*
X7150Y12769D01*
X7162Y12739D01*
X7181Y12714D01*
X7206Y12695D01*
X7236Y12683D01*
X7264Y12679D01*
Y12679D01*
X7267Y12679D01*
X7270Y12679D01*
Y12679D01*
X7298Y12683D01*
X7328Y12695D01*
X7353Y12714D01*
X7372Y12739D01*
X7384Y12769D01*
X7388Y12797D01*
X7400D01*
X7404Y12769D01*
X7416Y12739D01*
X7435Y12714D01*
X7460Y12695D01*
X7490Y12683D01*
X7518Y12679D01*
Y12667D01*
X7490Y12663D01*
X7460Y12651D01*
X7435Y12632D01*
X7416Y12607D01*
X7404Y12577D01*
X7400Y12549D01*
X7388D01*
X7384Y12577D01*
X7372Y12607D01*
X7353Y12632D01*
X7328Y12651D01*
X7298Y12663D01*
X7282Y12665D01*
Y12546D01*
Y12427D01*
X7298Y12429D01*
X7313Y12435D01*
X7320Y12425D01*
X7252Y12356D01*
X7075D01*
X7054Y12352D01*
X7035Y12340D01*
X6490Y11794D01*
X6475Y11796D01*
X6450Y11793D01*
X6427Y11783D01*
X6407Y11768D01*
X6392Y11748D01*
X6382Y11725D01*
X6379Y11700D01*
X6382Y11675D01*
X6392Y11652D01*
X6407Y11632D01*
X6427Y11617D01*
X6450Y11607D01*
X6475Y11604D01*
X6500Y11607D01*
X6523Y11617D01*
X6543Y11632D01*
X6558Y11652D01*
X6568Y11675D01*
X6571Y11700D01*
X6569Y11715D01*
X7098Y12244D01*
X7275D01*
X7296Y12248D01*
X7315Y12260D01*
X7315Y12260D01*
X7315Y12260D01*
X7485Y12431D01*
X7490Y12429D01*
X7521Y12425D01*
X7552Y12429D01*
X7582Y12441D01*
X7607Y12460D01*
X7626Y12485D01*
X7638Y12515D01*
X7642Y12543D01*
X7654D01*
X7658Y12515D01*
X7670Y12485D01*
X7689Y12460D01*
X7714Y12441D01*
X7744Y12429D01*
X7775Y12425D01*
X7806Y12429D01*
X7814Y12432D01*
X8244Y12002D01*
Y11752D01*
X8232Y11743D01*
X8217Y11723D01*
X8207Y11700D01*
X8204Y11675D01*
X8207Y11650D01*
X8217Y11627D01*
X8232Y11607D01*
X8252Y11592D01*
X8275Y11582D01*
X8300Y11579D01*
X8325Y11582D01*
X8348Y11592D01*
X8368Y11607D01*
X8383Y11627D01*
X8393Y11650D01*
X8396Y11675D01*
X8393Y11700D01*
X8383Y11723D01*
X8368Y11743D01*
X8356Y11752D01*
Y12025D01*
X8352Y12046D01*
X8340Y12065D01*
X7891Y12513D01*
X7892Y12515D01*
X7896Y12546D01*
X7892Y12577D01*
X7880Y12607D01*
X7861Y12632D01*
X7836Y12651D01*
X7806Y12663D01*
X7775Y12667D01*
X7744Y12663D01*
X7714Y12651D01*
X7689Y12632D01*
X7670Y12607D01*
X7658Y12577D01*
X7654Y12549D01*
X7642D01*
X7638Y12577D01*
X7626Y12607D01*
X7607Y12632D01*
X7582Y12651D01*
X7552Y12663D01*
X7524Y12667D01*
Y12679D01*
X7552Y12683D01*
X7582Y12695D01*
X7607Y12714D01*
X7626Y12739D01*
X7638Y12769D01*
X7642Y12800D01*
X7638Y12831D01*
X7626Y12861D01*
X7607Y12886D01*
X7582Y12905D01*
X7577Y12907D01*
Y12948D01*
X7698Y13069D01*
X10177D01*
X10344Y12902D01*
Y11852D01*
X10332Y11843D01*
X10317Y11823D01*
X10307Y11800D01*
X10304Y11775D01*
X10307Y11750D01*
X10317Y11727D01*
X10332Y11707D01*
X10352Y11692D01*
X10375Y11682D01*
X10400Y11679D01*
X10425Y11682D01*
X10448Y11692D01*
X10468Y11707D01*
X10483Y11727D01*
X10493Y11750D01*
X10496Y11775D01*
X10493Y11800D01*
X10483Y11823D01*
X10468Y11843D01*
X10456Y11852D01*
Y12925D01*
X10452Y12946D01*
X10440Y12965D01*
X10242Y13162D01*
X10247Y13174D01*
X11072D01*
X12319Y11927D01*
Y11827D01*
X12307Y11818D01*
X12292Y11798D01*
X12282Y11775D01*
X12279Y11750D01*
X12282Y11725D01*
X12292Y11702D01*
X12307Y11682D01*
X12327Y11667D01*
X12350Y11658D01*
X12350Y11657D01*
X12348Y11642D01*
X12339Y11636D01*
X12320Y11611D01*
X12308Y11581D01*
X12304Y11550D01*
X12308Y11519D01*
X12320Y11489D01*
X12339Y11464D01*
X12364Y11445D01*
X12394Y11433D01*
X12425Y11429D01*
X12456Y11433D01*
X12486Y11445D01*
X12511Y11464D01*
X12530Y11489D01*
X12542Y11519D01*
X12546Y11550D01*
X12542Y11581D01*
X12530Y11611D01*
X12511Y11636D01*
X12486Y11655D01*
X12456Y11667D01*
X12444Y11669D01*
X12441Y11681D01*
X12443Y11682D01*
X12458Y11702D01*
X12468Y11725D01*
X12471Y11750D01*
X12468Y11775D01*
X12458Y11798D01*
X12443Y11818D01*
X12431Y11827D01*
Y11950D01*
X12427Y11971D01*
X12415Y11990D01*
X11162Y13242D01*
X11167Y13254D01*
X17785D01*
X17787Y13242D01*
D02*
G37*
%LPC*%
G36*
X16190Y9669D02*
Y9590D01*
X16269D01*
X16268Y9600D01*
X16258Y9623D01*
X16243Y9643D01*
X16223Y9658D01*
X16200Y9668D01*
X16190Y9669D01*
D02*
G37*
G36*
X6722Y9756D02*
X6713Y9755D01*
X6690Y9745D01*
X6670Y9730D01*
X6655Y9710D01*
X6645Y9687D01*
X6644Y9678D01*
X6722D01*
Y9756D01*
D02*
G37*
G36*
X6753D02*
Y9678D01*
X6831D01*
X6830Y9687D01*
X6820Y9710D01*
X6805Y9730D01*
X6785Y9745D01*
X6762Y9755D01*
X6753Y9756D01*
D02*
G37*
G36*
X12647Y9647D02*
X12569D01*
X12570Y9638D01*
X12580Y9615D01*
X12595Y9595D01*
X12615Y9580D01*
X12638Y9570D01*
X12647Y9569D01*
Y9647D01*
D02*
G37*
G36*
X12756D02*
X12677D01*
Y9569D01*
X12687Y9570D01*
X12710Y9580D01*
X12730Y9595D01*
X12745Y9615D01*
X12755Y9638D01*
X12756Y9647D01*
D02*
G37*
G36*
X16160Y9669D02*
X16150Y9668D01*
X16127Y9658D01*
X16107Y9643D01*
X16092Y9623D01*
X16082Y9600D01*
X16081Y9590D01*
X16160D01*
Y9669D01*
D02*
G37*
G36*
X10703Y9756D02*
Y9678D01*
X10781D01*
X10780Y9687D01*
X10770Y9710D01*
X10755Y9730D01*
X10735Y9745D01*
X10712Y9755D01*
X10703Y9756D01*
D02*
G37*
G36*
X12647D02*
X12638Y9755D01*
X12615Y9745D01*
X12595Y9730D01*
X12580Y9710D01*
X12570Y9687D01*
X12569Y9678D01*
X12647D01*
Y9756D01*
D02*
G37*
G36*
X12677D02*
Y9678D01*
X12756D01*
X12755Y9687D01*
X12745Y9710D01*
X12730Y9730D01*
X12710Y9745D01*
X12687Y9755D01*
X12677Y9756D01*
D02*
G37*
G36*
X8697D02*
X8688Y9755D01*
X8665Y9745D01*
X8645Y9730D01*
X8630Y9710D01*
X8620Y9687D01*
X8619Y9678D01*
X8697D01*
Y9756D01*
D02*
G37*
G36*
X8728D02*
Y9678D01*
X8806D01*
X8805Y9687D01*
X8795Y9710D01*
X8780Y9730D01*
X8760Y9745D01*
X8737Y9755D01*
X8728Y9756D01*
D02*
G37*
G36*
X10672D02*
X10663Y9755D01*
X10640Y9745D01*
X10620Y9730D01*
X10605Y9710D01*
X10595Y9687D01*
X10594Y9678D01*
X10672D01*
Y9756D01*
D02*
G37*
G36*
X16269Y9560D02*
X16190D01*
Y9481D01*
X16200Y9482D01*
X16223Y9492D01*
X16243Y9507D01*
X16258Y9527D01*
X16268Y9550D01*
X16269Y9560D01*
D02*
G37*
G36*
X17825Y9746D02*
X17794Y9742D01*
X17764Y9730D01*
X17753Y9721D01*
X17750D01*
X17725Y9718D01*
X17702Y9708D01*
X17682Y9693D01*
X17482Y9493D01*
X17467Y9473D01*
X17457Y9450D01*
X17454Y9425D01*
Y9290D01*
X17232Y9068D01*
X17217Y9048D01*
X17207Y9025D01*
X17204Y9000D01*
Y8875D01*
X17207Y8850D01*
X17217Y8827D01*
X17232Y8807D01*
X17252Y8792D01*
X17275Y8782D01*
X17300Y8779D01*
X17325Y8782D01*
X17348Y8792D01*
X17368Y8807D01*
X17383Y8827D01*
X17393Y8850D01*
X17396Y8875D01*
X17396Y8875D01*
X17396Y8875D01*
Y8875D01*
Y8960D01*
X17618Y9182D01*
X17633Y9202D01*
X17643Y9225D01*
X17646Y9250D01*
X17646Y9250D01*
X17646Y9250D01*
Y9250D01*
Y9385D01*
X17776Y9515D01*
X17794Y9508D01*
X17825Y9504D01*
X17856Y9508D01*
X17886Y9520D01*
X17911Y9539D01*
X17930Y9564D01*
X17942Y9594D01*
X17946Y9625D01*
X17942Y9656D01*
X17930Y9686D01*
X17911Y9711D01*
X17886Y9730D01*
X17856Y9742D01*
X17825Y9746D01*
D02*
G37*
G36*
X6722Y9647D02*
X6644D01*
X6645Y9638D01*
X6655Y9615D01*
X6670Y9595D01*
X6690Y9580D01*
X6713Y9570D01*
X6722Y9569D01*
Y9647D01*
D02*
G37*
G36*
X13490Y9368D02*
X13390D01*
X13363Y9364D01*
X13337Y9354D01*
X13315Y9337D01*
X13298Y9315D01*
X13288Y9289D01*
X13284Y9262D01*
X13288Y9235D01*
X13298Y9209D01*
X13315Y9187D01*
X13337Y9170D01*
X13363Y9160D01*
X13390Y9156D01*
X13490D01*
X13517Y9160D01*
X13543Y9170D01*
X13565Y9187D01*
X13582Y9209D01*
X13592Y9235D01*
X13596Y9262D01*
X13592Y9289D01*
X13582Y9315D01*
X13565Y9337D01*
X13543Y9354D01*
X13517Y9364D01*
X13490Y9368D01*
D02*
G37*
G36*
X15975Y13156D02*
X14625D01*
X14604Y13152D01*
X14585Y13140D01*
X14377Y12932D01*
X14365Y12913D01*
X14364Y12908D01*
X14356Y12905D01*
X14331Y12886D01*
X14312Y12861D01*
X14300Y12831D01*
X14296Y12803D01*
X14284D01*
X14280Y12831D01*
X14268Y12861D01*
X14249Y12886D01*
X14224Y12905D01*
X14194Y12917D01*
X14163Y12921D01*
X14132Y12917D01*
X14102Y12905D01*
X14077Y12886D01*
X14058Y12861D01*
X14046Y12831D01*
X14042Y12803D01*
X14042D01*
X14042Y12800D01*
X14042Y12797D01*
X14042D01*
X14046Y12769D01*
X14058Y12739D01*
X14077Y12714D01*
X14102Y12695D01*
X14132Y12683D01*
X14160Y12679D01*
Y12667D01*
X14132Y12663D01*
X14102Y12651D01*
X14077Y12632D01*
X14058Y12607D01*
X14046Y12577D01*
X14042Y12549D01*
X14030D01*
X14026Y12577D01*
X14014Y12607D01*
X13995Y12632D01*
X13970Y12651D01*
X13940Y12663D01*
X13912Y12667D01*
Y12667D01*
X13909Y12667D01*
X13906Y12667D01*
Y12667D01*
X13878Y12663D01*
X13848Y12651D01*
X13823Y12632D01*
X13804Y12607D01*
X13792Y12577D01*
X13788Y12546D01*
X13792Y12515D01*
X13804Y12485D01*
X13823Y12460D01*
X13848Y12441D01*
X13878Y12429D01*
X13909Y12425D01*
X13940Y12429D01*
X13970Y12441D01*
X13995Y12460D01*
X14014Y12485D01*
X14026Y12515D01*
X14030Y12543D01*
X14042D01*
X14046Y12515D01*
X14058Y12485D01*
X14077Y12460D01*
X14102Y12441D01*
X14132Y12429D01*
X14163Y12425D01*
X14194Y12429D01*
X14224Y12441D01*
X14249Y12460D01*
X14268Y12485D01*
X14280Y12515D01*
X14284Y12543D01*
X14296D01*
X14300Y12515D01*
X14312Y12485D01*
X14331Y12460D01*
X14356Y12441D01*
X14361Y12439D01*
Y12171D01*
X14357Y12168D01*
X14342Y12148D01*
X14332Y12125D01*
X14329Y12100D01*
X14332Y12075D01*
X14342Y12052D01*
X14357Y12032D01*
X14377Y12017D01*
X14400Y12007D01*
X14425Y12004D01*
X14450Y12007D01*
X14473Y12017D01*
X14493Y12032D01*
X14508Y12052D01*
X14518Y12075D01*
X14521Y12100D01*
X14518Y12125D01*
X14508Y12148D01*
X14493Y12168D01*
X14473Y12183D01*
Y12439D01*
X14478Y12441D01*
X14503Y12460D01*
X14522Y12485D01*
X14534Y12515D01*
X14538Y12543D01*
X14550D01*
X14554Y12515D01*
X14566Y12485D01*
X14585Y12460D01*
X14610Y12441D01*
X14640Y12429D01*
X14671Y12425D01*
X14702Y12429D01*
X14707Y12431D01*
X15077Y12060D01*
X15077D01*
X15077Y12060D01*
X15077Y12060D01*
Y12060D01*
X15096Y12048D01*
X15117Y12044D01*
X15602D01*
X15856Y11790D01*
X15854Y11775D01*
X15857Y11750D01*
X15867Y11727D01*
X15882Y11707D01*
X15902Y11692D01*
X15925Y11682D01*
X15950Y11679D01*
X15975Y11682D01*
X15998Y11692D01*
X16018Y11707D01*
X16033Y11727D01*
X16043Y11750D01*
X16046Y11775D01*
X16043Y11800D01*
X16033Y11823D01*
X16018Y11843D01*
X15998Y11858D01*
X15975Y11868D01*
X15950Y11871D01*
X15935Y11869D01*
X15665Y12140D01*
X15646Y12152D01*
X15625Y12156D01*
X15140D01*
X14872Y12425D01*
X14879Y12435D01*
X14894Y12429D01*
X14925Y12425D01*
X14956Y12429D01*
X14986Y12441D01*
X14989Y12444D01*
X15673D01*
X15682Y12432D01*
X15702Y12417D01*
X15725Y12407D01*
X15750Y12404D01*
X15775Y12407D01*
X15798Y12417D01*
X15818Y12432D01*
X15833Y12452D01*
X15843Y12475D01*
X15846Y12500D01*
X15843Y12525D01*
X15833Y12548D01*
X15818Y12568D01*
X15798Y12583D01*
X15775Y12593D01*
X15750Y12596D01*
X15725Y12593D01*
X15702Y12583D01*
X15682Y12568D01*
X15673Y12556D01*
X15045D01*
X15042Y12577D01*
X15030Y12607D01*
X15011Y12632D01*
X14986Y12651D01*
X14956Y12663D01*
X14925Y12667D01*
X14894Y12663D01*
X14864Y12651D01*
X14839Y12632D01*
X14820Y12607D01*
X14808Y12577D01*
X14804Y12549D01*
X14792D01*
X14788Y12577D01*
X14776Y12607D01*
X14757Y12632D01*
X14732Y12651D01*
X14702Y12663D01*
X14674Y12667D01*
Y12679D01*
X14702Y12683D01*
X14732Y12695D01*
X14757Y12714D01*
X14776Y12739D01*
X14788Y12769D01*
X14792Y12800D01*
X14788Y12831D01*
X14776Y12861D01*
X14757Y12886D01*
X14741Y12898D01*
X14740Y12910D01*
X14773Y12944D01*
X15902D01*
X16344Y12502D01*
Y10848D01*
X15965Y10469D01*
X15950Y10471D01*
X15925Y10468D01*
X15902Y10458D01*
X15882Y10443D01*
X15867Y10423D01*
X15857Y10400D01*
X15854Y10375D01*
X15857Y10350D01*
X15867Y10327D01*
X15882Y10307D01*
X15902Y10292D01*
X15925Y10282D01*
X15950Y10279D01*
X15975Y10282D01*
X15998Y10292D01*
X16018Y10307D01*
X16033Y10327D01*
X16043Y10350D01*
X16046Y10375D01*
X16044Y10390D01*
X16432Y10778D01*
X16444Y10773D01*
Y9548D01*
X15965Y9069D01*
X15950Y9071D01*
X15942Y9070D01*
X15934Y9080D01*
X15943Y9100D01*
X15946Y9125D01*
X15943Y9150D01*
X15933Y9173D01*
X15918Y9193D01*
X15923Y9204D01*
X15925Y9204D01*
X15956Y9208D01*
X15986Y9220D01*
X16011Y9239D01*
X16030Y9264D01*
X16042Y9294D01*
X16046Y9325D01*
X16042Y9356D01*
X16030Y9386D01*
X16011Y9411D01*
X15986Y9430D01*
X15956Y9442D01*
X15925Y9446D01*
X15894Y9442D01*
X15864Y9430D01*
X15839Y9411D01*
X15820Y9386D01*
X15808Y9356D01*
X15804Y9325D01*
X15808Y9294D01*
X15820Y9264D01*
X15839Y9239D01*
X15849Y9232D01*
X15846Y9224D01*
X15834Y9220D01*
X15740Y9315D01*
X15721Y9327D01*
X15700Y9331D01*
X15431D01*
Y9668D01*
X15436Y9670D01*
X15461Y9689D01*
X15480Y9714D01*
X15492Y9744D01*
X15496Y9775D01*
X15492Y9806D01*
X15480Y9836D01*
X15461Y9861D01*
X15436Y9880D01*
X15406Y9892D01*
X15375Y9896D01*
X15344Y9892D01*
X15314Y9880D01*
X15289Y9861D01*
X15270Y9836D01*
X15258Y9806D01*
X15254Y9775D01*
X15258Y9744D01*
X15270Y9714D01*
X15289Y9689D01*
X15314Y9670D01*
X15319Y9668D01*
Y9331D01*
X14904D01*
X14900Y9337D01*
X14878Y9354D01*
X14852Y9364D01*
X14825Y9368D01*
X14725D01*
X14698Y9364D01*
X14672Y9354D01*
X14650Y9337D01*
X14633Y9315D01*
X14623Y9289D01*
X14619Y9262D01*
X14623Y9235D01*
X14633Y9209D01*
X14650Y9187D01*
X14672Y9170D01*
X14698Y9160D01*
X14725Y9156D01*
X14825D01*
X14852Y9160D01*
X14878Y9170D01*
X14900Y9187D01*
X14917Y9209D01*
X14921Y9219D01*
X15677D01*
X15756Y9140D01*
X15754Y9125D01*
X15757Y9100D01*
X15767Y9077D01*
X15782Y9057D01*
X15802Y9042D01*
X15825Y9032D01*
X15850Y9029D01*
X15858Y9030D01*
X15866Y9020D01*
X15857Y9000D01*
X15854Y8975D01*
X15857Y8950D01*
X15867Y8927D01*
X15882Y8907D01*
X15902Y8892D01*
X15925Y8882D01*
X15950Y8879D01*
X15975Y8882D01*
X15998Y8892D01*
X16018Y8907D01*
X16033Y8927D01*
X16043Y8950D01*
X16046Y8975D01*
X16044Y8990D01*
X16540Y9485D01*
X16540Y9485D01*
X16540Y9485D01*
X16552Y9504D01*
X16556Y9525D01*
Y12575D01*
X16552Y12596D01*
X16540Y12615D01*
X16015Y13140D01*
X15996Y13152D01*
X15975Y13156D01*
D02*
G37*
G36*
X16160Y9560D02*
X16081D01*
X16082Y9550D01*
X16092Y9527D01*
X16107Y9507D01*
X16127Y9492D01*
X16150Y9482D01*
X16160Y9481D01*
Y9560D01*
D02*
G37*
G36*
X10672Y9647D02*
X10594D01*
X10595Y9638D01*
X10605Y9615D01*
X10620Y9595D01*
X10640Y9580D01*
X10663Y9570D01*
X10672Y9569D01*
Y9647D01*
D02*
G37*
G36*
X10781D02*
X10703D01*
Y9569D01*
X10712Y9570D01*
X10735Y9580D01*
X10755Y9595D01*
X10770Y9615D01*
X10780Y9638D01*
X10781Y9647D01*
D02*
G37*
G36*
X11290Y9144D02*
Y9065D01*
X11369D01*
X11368Y9075D01*
X11358Y9098D01*
X11343Y9118D01*
X11323Y9133D01*
X11300Y9143D01*
X11290Y9144D01*
D02*
G37*
G36*
X6831Y9647D02*
X6753D01*
Y9569D01*
X6762Y9570D01*
X6785Y9580D01*
X6805Y9595D01*
X6820Y9615D01*
X6830Y9638D01*
X6831Y9647D01*
D02*
G37*
G36*
X8697D02*
X8619D01*
X8620Y9638D01*
X8630Y9615D01*
X8645Y9595D01*
X8665Y9580D01*
X8688Y9570D01*
X8697Y9569D01*
Y9647D01*
D02*
G37*
G36*
X8806D02*
X8728D01*
Y9569D01*
X8737Y9570D01*
X8760Y9580D01*
X8780Y9595D01*
X8795Y9615D01*
X8805Y9638D01*
X8806Y9647D01*
D02*
G37*
G36*
X14810Y10660D02*
X14731D01*
X14732Y10650D01*
X14742Y10627D01*
X14757Y10607D01*
X14777Y10592D01*
X14800Y10582D01*
X14810Y10581D01*
Y10660D01*
D02*
G37*
G36*
X14919D02*
X14840D01*
Y10581D01*
X14850Y10582D01*
X14873Y10592D01*
X14893Y10607D01*
X14908Y10627D01*
X14918Y10650D01*
X14919Y10660D01*
D02*
G37*
G36*
X15925Y10846D02*
X15894Y10842D01*
X15864Y10830D01*
X15839Y10811D01*
X15820Y10786D01*
X15808Y10756D01*
X15804Y10725D01*
X15808Y10694D01*
X15820Y10664D01*
X15839Y10639D01*
X15864Y10620D01*
X15894Y10608D01*
X15925Y10604D01*
X15956Y10608D01*
X15986Y10620D01*
X16011Y10639D01*
X16030Y10664D01*
X16042Y10694D01*
X16046Y10725D01*
X16042Y10756D01*
X16030Y10786D01*
X16011Y10811D01*
X15986Y10830D01*
X15956Y10842D01*
X15925Y10846D01*
D02*
G37*
G36*
X15360Y10644D02*
X15344Y10642D01*
X15314Y10630D01*
X15289Y10611D01*
X15270Y10586D01*
X15258Y10556D01*
X15256Y10540D01*
X15360D01*
Y10644D01*
D02*
G37*
G36*
X15390D02*
Y10540D01*
X15494D01*
X15492Y10556D01*
X15480Y10586D01*
X15461Y10611D01*
X15436Y10630D01*
X15406Y10642D01*
X15390Y10644D01*
D02*
G37*
G36*
X17275Y10846D02*
X17244Y10842D01*
X17214Y10830D01*
X17189Y10811D01*
X17170Y10786D01*
X17158Y10756D01*
X17154Y10725D01*
X17158Y10694D01*
X17170Y10664D01*
X17189Y10639D01*
X17214Y10620D01*
X17244Y10608D01*
X17275Y10604D01*
X17306Y10608D01*
X17336Y10620D01*
X17347Y10629D01*
X17714D01*
X17720Y10614D01*
X17739Y10589D01*
X17764Y10570D01*
X17794Y10558D01*
X17825Y10554D01*
X17856Y10558D01*
X17886Y10570D01*
X17911Y10589D01*
X17930Y10614D01*
X17942Y10644D01*
X17946Y10675D01*
X17942Y10706D01*
X17930Y10736D01*
X17911Y10761D01*
X17886Y10780D01*
X17856Y10792D01*
X17841Y10794D01*
X17823Y10808D01*
X17800Y10818D01*
X17775Y10821D01*
X17347D01*
X17336Y10830D01*
X17306Y10842D01*
X17275Y10846D01*
D02*
G37*
G36*
X8744Y10885D02*
X8665D01*
Y10806D01*
X8675Y10807D01*
X8698Y10817D01*
X8718Y10832D01*
X8733Y10852D01*
X8743Y10875D01*
X8744Y10885D01*
D02*
G37*
G36*
X10610D02*
X10531D01*
X10532Y10875D01*
X10542Y10852D01*
X10557Y10832D01*
X10577Y10817D01*
X10600Y10807D01*
X10610Y10806D01*
Y10885D01*
D02*
G37*
G36*
X10719D02*
X10640D01*
Y10806D01*
X10650Y10807D01*
X10673Y10817D01*
X10693Y10832D01*
X10708Y10852D01*
X10718Y10875D01*
X10719Y10885D01*
D02*
G37*
G36*
X14810Y10769D02*
X14800Y10768D01*
X14777Y10758D01*
X14757Y10743D01*
X14742Y10723D01*
X14732Y10700D01*
X14731Y10690D01*
X14810D01*
Y10769D01*
D02*
G37*
G36*
X14840D02*
Y10690D01*
X14919D01*
X14918Y10700D01*
X14908Y10723D01*
X14893Y10743D01*
X14873Y10758D01*
X14850Y10768D01*
X14840Y10769D01*
D02*
G37*
G36*
X8635Y10885D02*
X8556D01*
X8557Y10875D01*
X8567Y10852D01*
X8582Y10832D01*
X8602Y10817D01*
X8625Y10807D01*
X8635Y10806D01*
Y10885D01*
D02*
G37*
G36*
X15494Y10510D02*
X15390D01*
Y10406D01*
X15406Y10408D01*
X15436Y10420D01*
X15461Y10439D01*
X15480Y10464D01*
X15492Y10494D01*
X15494Y10510D01*
D02*
G37*
G36*
X13775Y10221D02*
X13744Y10217D01*
X13714Y10205D01*
X13689Y10186D01*
X13670Y10161D01*
X13658Y10131D01*
X13654Y10100D01*
X13658Y10069D01*
X13670Y10039D01*
X13689Y10014D01*
X13714Y9995D01*
X13744Y9983D01*
X13775Y9979D01*
X13806Y9983D01*
X13836Y9995D01*
X13861Y10014D01*
X13880Y10039D01*
X13892Y10069D01*
X13896Y10100D01*
X13892Y10131D01*
X13880Y10161D01*
X13861Y10186D01*
X13836Y10205D01*
X13806Y10217D01*
X13775Y10221D01*
D02*
G37*
G36*
X5428Y11568D02*
X5403Y11565D01*
X5380Y11555D01*
X5360Y11540D01*
X5345Y11520D01*
X5335Y11497D01*
X5332Y11472D01*
X5335Y11448D01*
X5345Y11425D01*
X5360Y11405D01*
X5380Y11390D01*
X5403Y11380D01*
X5428Y11377D01*
X5452Y11380D01*
X5475Y11390D01*
X5478Y11392D01*
X5564D01*
X6288Y10668D01*
D01*
X6288D01*
Y10668D01*
D01*
X6288D01*
Y10668D01*
X6288D01*
X6288Y10668D01*
Y10668D01*
X6288Y10668D01*
Y10668D01*
X6305Y10655D01*
X6324Y10647D01*
X6345Y10644D01*
X6627D01*
X7132Y10139D01*
X7132Y10135D01*
X7142Y10112D01*
X7157Y10092D01*
X7177Y10077D01*
X7200Y10067D01*
X7204Y10067D01*
X7220Y10055D01*
X7239Y10047D01*
X7260Y10044D01*
X9074D01*
X9077Y10042D01*
X9100Y10032D01*
X9125Y10029D01*
X9150Y10032D01*
X9173Y10042D01*
X9193Y10057D01*
X9208Y10077D01*
X9218Y10100D01*
X9221Y10125D01*
X9218Y10150D01*
X9208Y10173D01*
X9193Y10193D01*
X9173Y10208D01*
X9150Y10218D01*
X9125Y10221D01*
X9100Y10218D01*
X9077Y10208D01*
X9074Y10206D01*
X8758D01*
X8756Y10218D01*
X8761Y10220D01*
X8786Y10239D01*
X8805Y10264D01*
X8817Y10294D01*
X8821Y10325D01*
X8817Y10356D01*
X8805Y10386D01*
X8786Y10411D01*
X8761Y10430D01*
X8731Y10442D01*
X8700Y10446D01*
X8669Y10442D01*
X8639Y10430D01*
X8614Y10411D01*
X8595Y10386D01*
X8583Y10356D01*
X8579Y10325D01*
X8583Y10294D01*
X8595Y10264D01*
X8614Y10239D01*
X8639Y10220D01*
X8644Y10218D01*
X8642Y10206D01*
X7309D01*
X7308Y10208D01*
X7293Y10228D01*
X7273Y10243D01*
X7250Y10253D01*
X7246Y10253D01*
X6717Y10782D01*
X6700Y10795D01*
X6700Y10795D01*
Y10808D01*
X6723Y10817D01*
X6743Y10832D01*
X6758Y10852D01*
X6768Y10875D01*
X6769Y10885D01*
X6581D01*
X6582Y10875D01*
X6592Y10852D01*
X6607Y10832D01*
X6626Y10818D01*
X6622Y10806D01*
X6378D01*
X5655Y11530D01*
X5638Y11542D01*
X5618Y11550D01*
X5597Y11553D01*
X5478D01*
X5475Y11555D01*
X5452Y11565D01*
X5428Y11568D01*
D02*
G37*
G36*
X14810Y10119D02*
X14800Y10118D01*
X14777Y10108D01*
X14757Y10093D01*
X14742Y10073D01*
X14732Y10050D01*
X14731Y10040D01*
X14810D01*
Y10119D01*
D02*
G37*
G36*
X17825Y10096D02*
X17794Y10092D01*
X17764Y10080D01*
X17739Y10061D01*
X17720Y10036D01*
X17717Y10027D01*
X17207Y9518D01*
X17192Y9498D01*
X17182Y9475D01*
X17179Y9450D01*
Y9397D01*
X17170Y9386D01*
X17158Y9356D01*
X17154Y9325D01*
X17158Y9294D01*
X17170Y9264D01*
X17189Y9239D01*
X17214Y9220D01*
X17244Y9208D01*
X17275Y9204D01*
X17306Y9208D01*
X17336Y9220D01*
X17361Y9239D01*
X17380Y9264D01*
X17392Y9294D01*
X17396Y9325D01*
X17392Y9356D01*
X17380Y9386D01*
X17371Y9397D01*
Y9410D01*
X17816Y9855D01*
X17825Y9854D01*
X17856Y9858D01*
X17886Y9870D01*
X17911Y9889D01*
X17930Y9914D01*
X17942Y9944D01*
X17946Y9975D01*
X17942Y10006D01*
X17930Y10036D01*
X17911Y10061D01*
X17886Y10080D01*
X17856Y10092D01*
X17825Y10096D01*
D02*
G37*
G36*
X14810Y10010D02*
X14731D01*
X14732Y10000D01*
X14742Y9977D01*
X14757Y9957D01*
X14777Y9942D01*
X14800Y9932D01*
X14810Y9931D01*
Y10010D01*
D02*
G37*
G36*
X14919D02*
X14840D01*
Y9931D01*
X14850Y9932D01*
X14873Y9942D01*
X14893Y9957D01*
X14908Y9977D01*
X14918Y10000D01*
X14919Y10010D01*
D02*
G37*
G36*
X10675Y10446D02*
X10644Y10442D01*
X10614Y10430D01*
X10589Y10411D01*
X10570Y10386D01*
X10558Y10356D01*
X10554Y10325D01*
X10558Y10294D01*
X10570Y10264D01*
X10589Y10239D01*
X10614Y10220D01*
X10619Y10218D01*
X10617Y10206D01*
X9701D01*
X9698Y10208D01*
X9675Y10218D01*
X9650Y10221D01*
X9625Y10218D01*
X9602Y10208D01*
X9582Y10193D01*
X9567Y10173D01*
X9557Y10150D01*
X9554Y10125D01*
X9557Y10100D01*
X9567Y10077D01*
X9582Y10057D01*
X9602Y10042D01*
X9625Y10032D01*
X9650Y10029D01*
X9675Y10032D01*
X9698Y10042D01*
X9701Y10044D01*
X11049D01*
X11052Y10042D01*
X11075Y10032D01*
X11100Y10029D01*
X11125Y10032D01*
X11148Y10042D01*
X11168Y10057D01*
X11183Y10077D01*
X11193Y10100D01*
X11196Y10125D01*
X11193Y10150D01*
X11183Y10173D01*
X11168Y10193D01*
X11148Y10208D01*
X11125Y10218D01*
X11100Y10221D01*
X11075Y10218D01*
X11052Y10208D01*
X11049Y10206D01*
X10733D01*
X10731Y10218D01*
X10736Y10220D01*
X10761Y10239D01*
X10780Y10264D01*
X10792Y10294D01*
X10796Y10325D01*
X10792Y10356D01*
X10780Y10386D01*
X10761Y10411D01*
X10736Y10430D01*
X10706Y10442D01*
X10675Y10446D01*
D02*
G37*
G36*
X12650D02*
X12619Y10442D01*
X12589Y10430D01*
X12564Y10411D01*
X12545Y10386D01*
X12533Y10356D01*
X12529Y10325D01*
X12533Y10294D01*
X12545Y10264D01*
X12564Y10239D01*
X12589Y10220D01*
X12594Y10218D01*
X12592Y10206D01*
X11676D01*
X11673Y10208D01*
X11650Y10218D01*
X11625Y10221D01*
X11600Y10218D01*
X11577Y10208D01*
X11557Y10193D01*
X11542Y10173D01*
X11532Y10150D01*
X11529Y10125D01*
X11532Y10100D01*
X11542Y10077D01*
X11557Y10057D01*
X11577Y10042D01*
X11600Y10032D01*
X11625Y10029D01*
X11650Y10032D01*
X11673Y10042D01*
X11676Y10044D01*
X13024D01*
X13027Y10042D01*
X13050Y10032D01*
X13075Y10029D01*
X13100Y10032D01*
X13123Y10042D01*
X13143Y10057D01*
X13158Y10077D01*
X13168Y10100D01*
X13171Y10125D01*
X13168Y10150D01*
X13158Y10173D01*
X13143Y10193D01*
X13123Y10208D01*
X13100Y10218D01*
X13075Y10221D01*
X13050Y10218D01*
X13027Y10208D01*
X13024Y10206D01*
X12708D01*
X12706Y10218D01*
X12711Y10220D01*
X12736Y10239D01*
X12755Y10264D01*
X12767Y10294D01*
X12771Y10325D01*
X12767Y10356D01*
X12755Y10386D01*
X12736Y10411D01*
X12711Y10430D01*
X12681Y10442D01*
X12650Y10446D01*
D02*
G37*
G36*
X15360Y10510D02*
X15256D01*
X15258Y10494D01*
X15270Y10464D01*
X15289Y10439D01*
X15314Y10420D01*
X15344Y10408D01*
X15360Y10406D01*
Y10510D01*
D02*
G37*
G36*
X14840Y10119D02*
Y10040D01*
X14919D01*
X14918Y10050D01*
X14908Y10073D01*
X14893Y10093D01*
X14873Y10108D01*
X14850Y10118D01*
X14840Y10119D01*
D02*
G37*
G36*
X17825Y10446D02*
X17794Y10442D01*
X17764Y10430D01*
X17739Y10411D01*
X17720Y10386D01*
X17714Y10371D01*
X17300D01*
X17275Y10368D01*
X17252Y10358D01*
X17232Y10343D01*
X17217Y10323D01*
X17207Y10300D01*
X17204Y10275D01*
X17207Y10250D01*
X17217Y10227D01*
X17232Y10207D01*
X17252Y10192D01*
X17275Y10182D01*
X17300Y10179D01*
X17775D01*
X17800Y10182D01*
X17823Y10192D01*
X17827Y10195D01*
X17841Y10206D01*
X17856Y10208D01*
X17886Y10220D01*
X17911Y10239D01*
X17930Y10264D01*
X17942Y10294D01*
X17946Y10325D01*
X17942Y10356D01*
X17930Y10386D01*
X17911Y10411D01*
X17886Y10430D01*
X17856Y10442D01*
X17825Y10446D01*
D02*
G37*
G36*
X6725Y10446D02*
X6694Y10442D01*
X6664Y10430D01*
X6639Y10411D01*
X6620Y10386D01*
X6608Y10356D01*
X6604Y10325D01*
X6608Y10294D01*
X6620Y10264D01*
X6639Y10239D01*
X6664Y10220D01*
X6694Y10208D01*
X6725Y10204D01*
X6756Y10208D01*
X6786Y10220D01*
X6811Y10239D01*
X6830Y10264D01*
X6842Y10294D01*
X6846Y10325D01*
X6842Y10356D01*
X6830Y10386D01*
X6811Y10411D01*
X6786Y10430D01*
X6756Y10442D01*
X6725Y10446D01*
D02*
G37*
G36*
X13715Y8144D02*
Y8065D01*
X13794D01*
X13793Y8075D01*
X13783Y8098D01*
X13768Y8118D01*
X13748Y8133D01*
X13725Y8143D01*
X13715Y8144D01*
D02*
G37*
G36*
X16160Y8160D02*
X16081D01*
X16082Y8150D01*
X16092Y8127D01*
X16107Y8107D01*
X16127Y8092D01*
X16150Y8082D01*
X16160Y8081D01*
Y8160D01*
D02*
G37*
G36*
X16269D02*
X16190D01*
Y8081D01*
X16200Y8082D01*
X16223Y8092D01*
X16243Y8107D01*
X16258Y8127D01*
X16268Y8150D01*
X16269Y8160D01*
D02*
G37*
G36*
X11900Y8721D02*
X11875Y8718D01*
X11852Y8708D01*
X11832Y8693D01*
X11817Y8673D01*
X11807Y8650D01*
X11804Y8625D01*
X11807Y8600D01*
X11817Y8577D01*
X11832Y8557D01*
X11844Y8548D01*
Y8220D01*
X11730D01*
Y7980D01*
X11970D01*
Y8220D01*
X11956D01*
Y8548D01*
X11968Y8557D01*
X11983Y8577D01*
X11993Y8600D01*
X11996Y8625D01*
X11993Y8650D01*
X11983Y8673D01*
X11968Y8693D01*
X11948Y8708D01*
X11925Y8718D01*
X11900Y8721D01*
D02*
G37*
G36*
X12800Y8556D02*
X12756Y8552D01*
X12713Y8542D01*
X12672Y8525D01*
X12635Y8502D01*
X12601Y8474D01*
X12573Y8440D01*
X12550Y8403D01*
X12533Y8362D01*
X12523Y8319D01*
X12519Y8275D01*
X12523Y8231D01*
X12533Y8188D01*
X12550Y8147D01*
X12573Y8110D01*
X12601Y8076D01*
X12635Y8048D01*
X12672Y8025D01*
X12713Y8008D01*
X12756Y7998D01*
X12800Y7994D01*
X12844Y7998D01*
X12887Y8008D01*
X12928Y8025D01*
X12965Y8048D01*
X12999Y8076D01*
X13027Y8110D01*
X13050Y8147D01*
X13067Y8188D01*
X13077Y8231D01*
X13081Y8275D01*
X13077Y8319D01*
X13067Y8362D01*
X13050Y8403D01*
X13027Y8440D01*
X12999Y8474D01*
X12965Y8502D01*
X12928Y8525D01*
X12887Y8542D01*
X12844Y8552D01*
X12800Y8556D01*
D02*
G37*
G36*
X13685Y8144D02*
X13675Y8143D01*
X13652Y8133D01*
X13632Y8118D01*
X13617Y8098D01*
X13607Y8075D01*
X13606Y8065D01*
X13685D01*
Y8144D01*
D02*
G37*
G36*
X15194Y8285D02*
X15115D01*
Y8206D01*
X15125Y8207D01*
X15148Y8217D01*
X15168Y8232D01*
X15183Y8252D01*
X15193Y8275D01*
X15194Y8285D01*
D02*
G37*
G36*
X15085Y8394D02*
X15075Y8393D01*
X15052Y8383D01*
X15032Y8368D01*
X15017Y8348D01*
X15007Y8325D01*
X15006Y8315D01*
X15085D01*
Y8394D01*
D02*
G37*
G36*
X15115D02*
Y8315D01*
X15194D01*
X15193Y8325D01*
X15183Y8348D01*
X15168Y8368D01*
X15148Y8383D01*
X15125Y8393D01*
X15115Y8394D01*
D02*
G37*
G36*
X16160Y8269D02*
X16150Y8268D01*
X16127Y8258D01*
X16107Y8243D01*
X16092Y8223D01*
X16082Y8200D01*
X16081Y8190D01*
X16160D01*
Y8269D01*
D02*
G37*
G36*
X16190D02*
Y8190D01*
X16269D01*
X16268Y8200D01*
X16258Y8223D01*
X16243Y8243D01*
X16223Y8258D01*
X16200Y8268D01*
X16190Y8269D01*
D02*
G37*
G36*
X15085Y8285D02*
X15006D01*
X15007Y8275D01*
X15017Y8252D01*
X15032Y8232D01*
X15052Y8217D01*
X15075Y8207D01*
X15085Y8206D01*
Y8285D01*
D02*
G37*
G36*
X9925Y8721D02*
X9900Y8718D01*
X9877Y8708D01*
X9857Y8693D01*
X9842Y8673D01*
X9832Y8650D01*
X9829Y8625D01*
X9832Y8600D01*
X9842Y8577D01*
X9857Y8557D01*
X9869Y8548D01*
Y8220D01*
X9755D01*
Y7980D01*
X9995D01*
Y8220D01*
X9981D01*
Y8548D01*
X9993Y8557D01*
X10008Y8577D01*
X10018Y8600D01*
X10021Y8625D01*
X10018Y8650D01*
X10008Y8673D01*
X9993Y8693D01*
X9973Y8708D01*
X9950Y8718D01*
X9925Y8721D01*
D02*
G37*
G36*
X14985Y8019D02*
X14975Y8018D01*
X14952Y8008D01*
X14932Y7993D01*
X14917Y7973D01*
X14907Y7950D01*
X14906Y7940D01*
X14985D01*
Y8019D01*
D02*
G37*
G36*
X15015D02*
Y7940D01*
X15094D01*
X15093Y7950D01*
X15083Y7973D01*
X15068Y7993D01*
X15048Y8008D01*
X15025Y8018D01*
X15015Y8019D01*
D02*
G37*
G36*
X6975Y8531D02*
X6931Y8527D01*
X6888Y8517D01*
X6847Y8500D01*
X6810Y8477D01*
X6776Y8449D01*
X6748Y8415D01*
X6725Y8378D01*
X6708Y8337D01*
X6698Y8294D01*
X6694Y8250D01*
X6698Y8206D01*
X6708Y8163D01*
X6725Y8122D01*
X6748Y8085D01*
X6776Y8051D01*
X6810Y8023D01*
X6847Y8000D01*
X6888Y7983D01*
X6931Y7973D01*
X6975Y7969D01*
X7019Y7973D01*
X7062Y7983D01*
X7103Y8000D01*
X7140Y8023D01*
X7174Y8051D01*
X7202Y8085D01*
X7225Y8122D01*
X7242Y8163D01*
X7252Y8206D01*
X7256Y8250D01*
X7252Y8294D01*
X7242Y8337D01*
X7225Y8378D01*
X7202Y8415D01*
X7174Y8449D01*
X7140Y8477D01*
X7103Y8500D01*
X7062Y8517D01*
X7019Y8527D01*
X6975Y8531D01*
D02*
G37*
G36*
X15925Y8046D02*
X15894Y8042D01*
X15864Y8030D01*
X15839Y8011D01*
X15820Y7986D01*
X15808Y7956D01*
X15804Y7925D01*
X15808Y7894D01*
X15820Y7864D01*
X15839Y7839D01*
X15864Y7820D01*
X15894Y7808D01*
X15925Y7804D01*
X15956Y7808D01*
X15986Y7820D01*
X16011Y7839D01*
X16030Y7864D01*
X16042Y7894D01*
X16046Y7925D01*
X16042Y7956D01*
X16030Y7986D01*
X16011Y8011D01*
X15986Y8030D01*
X15956Y8042D01*
X15925Y8046D01*
D02*
G37*
G36*
X14985Y7910D02*
X14906D01*
X14907Y7900D01*
X14917Y7877D01*
X14932Y7857D01*
X14952Y7842D01*
X14975Y7832D01*
X14985Y7831D01*
Y7910D01*
D02*
G37*
G36*
X15094D02*
X15015D01*
Y7831D01*
X15025Y7832D01*
X15048Y7842D01*
X15068Y7857D01*
X15083Y7877D01*
X15093Y7900D01*
X15094Y7910D01*
D02*
G37*
G36*
X12150Y8721D02*
X12125Y8718D01*
X12102Y8708D01*
X12082Y8693D01*
X12067Y8673D01*
X12057Y8650D01*
X12054Y8625D01*
X12057Y8600D01*
X12067Y8577D01*
X12082Y8557D01*
X12094Y8548D01*
Y8157D01*
X12083Y8131D01*
X12079Y8100D01*
X12083Y8069D01*
X12095Y8039D01*
X12114Y8014D01*
X12139Y7995D01*
X12169Y7983D01*
X12200Y7979D01*
X12231Y7983D01*
X12261Y7995D01*
X12286Y8014D01*
X12305Y8039D01*
X12317Y8069D01*
X12321Y8100D01*
X12317Y8131D01*
X12305Y8161D01*
X12286Y8186D01*
X12261Y8205D01*
X12231Y8217D01*
X12206Y8220D01*
Y8548D01*
X12218Y8557D01*
X12233Y8577D01*
X12243Y8600D01*
X12246Y8625D01*
X12243Y8650D01*
X12233Y8673D01*
X12218Y8693D01*
X12198Y8708D01*
X12175Y8718D01*
X12150Y8721D01*
D02*
G37*
G36*
X5975D02*
X5950Y8718D01*
X5927Y8708D01*
X5907Y8693D01*
X5892Y8673D01*
X5882Y8650D01*
X5879Y8625D01*
X5882Y8600D01*
X5892Y8577D01*
X5907Y8557D01*
X5919Y8548D01*
Y8220D01*
X5805D01*
Y7980D01*
X6045D01*
Y8220D01*
X6031D01*
Y8548D01*
X6043Y8557D01*
X6058Y8577D01*
X6068Y8600D01*
X6071Y8625D01*
X6068Y8650D01*
X6058Y8673D01*
X6043Y8693D01*
X6023Y8708D01*
X6000Y8718D01*
X5975Y8721D01*
D02*
G37*
G36*
X7950D02*
X7925Y8718D01*
X7902Y8708D01*
X7882Y8693D01*
X7867Y8673D01*
X7857Y8650D01*
X7854Y8625D01*
X7857Y8600D01*
X7867Y8577D01*
X7882Y8557D01*
X7894Y8548D01*
Y8220D01*
X7780D01*
Y7980D01*
X8020D01*
Y8220D01*
X8006D01*
Y8548D01*
X8018Y8557D01*
X8033Y8577D01*
X8043Y8600D01*
X8046Y8625D01*
X8043Y8650D01*
X8033Y8673D01*
X8018Y8693D01*
X7998Y8708D01*
X7975Y8718D01*
X7950Y8721D01*
D02*
G37*
G36*
X6225D02*
X6200Y8718D01*
X6177Y8708D01*
X6157Y8693D01*
X6142Y8673D01*
X6132Y8650D01*
X6129Y8625D01*
X6132Y8600D01*
X6142Y8577D01*
X6157Y8557D01*
X6169Y8548D01*
Y8157D01*
X6158Y8131D01*
X6154Y8100D01*
X6158Y8069D01*
X6170Y8039D01*
X6189Y8014D01*
X6214Y7995D01*
X6244Y7983D01*
X6275Y7979D01*
X6306Y7983D01*
X6336Y7995D01*
X6361Y8014D01*
X6380Y8039D01*
X6392Y8069D01*
X6396Y8100D01*
X6392Y8131D01*
X6380Y8161D01*
X6361Y8186D01*
X6336Y8205D01*
X6306Y8217D01*
X6281Y8220D01*
Y8548D01*
X6293Y8557D01*
X6308Y8577D01*
X6318Y8600D01*
X6321Y8625D01*
X6318Y8650D01*
X6308Y8673D01*
X6293Y8693D01*
X6273Y8708D01*
X6250Y8718D01*
X6225Y8721D01*
D02*
G37*
G36*
X8200D02*
X8175Y8718D01*
X8152Y8708D01*
X8132Y8693D01*
X8117Y8673D01*
X8107Y8650D01*
X8104Y8625D01*
X8107Y8600D01*
X8117Y8577D01*
X8132Y8557D01*
X8144Y8548D01*
Y8157D01*
X8133Y8131D01*
X8129Y8100D01*
X8133Y8069D01*
X8145Y8039D01*
X8164Y8014D01*
X8189Y7995D01*
X8219Y7983D01*
X8250Y7979D01*
X8281Y7983D01*
X8311Y7995D01*
X8336Y8014D01*
X8355Y8039D01*
X8367Y8069D01*
X8371Y8100D01*
X8367Y8131D01*
X8355Y8161D01*
X8336Y8186D01*
X8311Y8205D01*
X8281Y8217D01*
X8256Y8220D01*
Y8548D01*
X8268Y8557D01*
X8283Y8577D01*
X8293Y8600D01*
X8296Y8625D01*
X8293Y8650D01*
X8283Y8673D01*
X8268Y8693D01*
X8248Y8708D01*
X8225Y8718D01*
X8200Y8721D01*
D02*
G37*
G36*
X10175D02*
X10150Y8718D01*
X10127Y8708D01*
X10107Y8693D01*
X10092Y8673D01*
X10082Y8650D01*
X10079Y8625D01*
X10082Y8600D01*
X10092Y8577D01*
X10107Y8557D01*
X10119Y8548D01*
Y8157D01*
X10108Y8131D01*
X10104Y8100D01*
X10108Y8069D01*
X10120Y8039D01*
X10139Y8014D01*
X10164Y7995D01*
X10194Y7983D01*
X10225Y7979D01*
X10256Y7983D01*
X10286Y7995D01*
X10311Y8014D01*
X10330Y8039D01*
X10342Y8069D01*
X10346Y8100D01*
X10342Y8131D01*
X10330Y8161D01*
X10311Y8186D01*
X10286Y8205D01*
X10256Y8217D01*
X10231Y8220D01*
Y8548D01*
X10243Y8557D01*
X10258Y8577D01*
X10268Y8600D01*
X10271Y8625D01*
X10268Y8650D01*
X10258Y8673D01*
X10243Y8693D01*
X10223Y8708D01*
X10200Y8718D01*
X10175Y8721D01*
D02*
G37*
G36*
X11369Y9035D02*
X11290D01*
Y8956D01*
X11300Y8957D01*
X11323Y8967D01*
X11343Y8982D01*
X11358Y9002D01*
X11368Y9025D01*
X11369Y9035D01*
D02*
G37*
G36*
X17945Y9395D02*
X17705D01*
Y9155D01*
X17729D01*
Y9090D01*
X17207Y8568D01*
X17192Y8548D01*
X17182Y8525D01*
X17179Y8500D01*
Y7997D01*
X17170Y7986D01*
X17158Y7956D01*
X17154Y7925D01*
X17158Y7894D01*
X17170Y7864D01*
X17189Y7839D01*
X17214Y7820D01*
X17244Y7808D01*
X17275Y7804D01*
X17306Y7808D01*
X17336Y7820D01*
X17361Y7839D01*
X17380Y7864D01*
X17392Y7894D01*
X17396Y7925D01*
X17392Y7956D01*
X17380Y7986D01*
X17371Y7997D01*
Y8460D01*
X17893Y8982D01*
X17908Y9002D01*
X17918Y9025D01*
X17918Y9025D01*
X17918Y9025D01*
X17921Y9050D01*
Y9155D01*
X17945D01*
Y9395D01*
D02*
G37*
G36*
X5335Y9144D02*
X5325Y9143D01*
X5302Y9133D01*
X5282Y9118D01*
X5267Y9098D01*
X5257Y9075D01*
X5256Y9065D01*
X5335D01*
Y9144D01*
D02*
G37*
G36*
X9285Y9035D02*
X9206D01*
X9207Y9025D01*
X9217Y9002D01*
X9232Y8982D01*
X9252Y8967D01*
X9275Y8957D01*
X9285Y8956D01*
Y9035D01*
D02*
G37*
G36*
X9394D02*
X9315D01*
Y8956D01*
X9325Y8957D01*
X9348Y8967D01*
X9368Y8982D01*
X9383Y9002D01*
X9393Y9025D01*
X9394Y9035D01*
D02*
G37*
G36*
X11260D02*
X11181D01*
X11182Y9025D01*
X11192Y9002D01*
X11207Y8982D01*
X11227Y8967D01*
X11250Y8957D01*
X11260Y8956D01*
Y9035D01*
D02*
G37*
G36*
X9285Y9144D02*
X9275Y9143D01*
X9252Y9133D01*
X9232Y9118D01*
X9217Y9098D01*
X9207Y9075D01*
X9206Y9065D01*
X9285D01*
Y9144D01*
D02*
G37*
G36*
X9315D02*
Y9065D01*
X9394D01*
X9393Y9075D01*
X9383Y9098D01*
X9368Y9118D01*
X9348Y9133D01*
X9325Y9143D01*
X9315Y9144D01*
D02*
G37*
G36*
X11260D02*
X11250Y9143D01*
X11227Y9133D01*
X11207Y9118D01*
X11192Y9098D01*
X11182Y9075D01*
X11181Y9065D01*
X11260D01*
Y9144D01*
D02*
G37*
G36*
X5365D02*
Y9065D01*
X5444D01*
X5443Y9075D01*
X5433Y9098D01*
X5418Y9118D01*
X5398Y9133D01*
X5375Y9143D01*
X5365Y9144D01*
D02*
G37*
G36*
X7310D02*
X7300Y9143D01*
X7277Y9133D01*
X7257Y9118D01*
X7242Y9098D01*
X7232Y9075D01*
X7231Y9065D01*
X7310D01*
Y9144D01*
D02*
G37*
G36*
X7340D02*
Y9065D01*
X7419D01*
X7418Y9075D01*
X7408Y9098D01*
X7393Y9118D01*
X7373Y9133D01*
X7350Y9143D01*
X7340Y9144D01*
D02*
G37*
G36*
X7419Y9035D02*
X7340D01*
Y8956D01*
X7350Y8957D01*
X7373Y8967D01*
X7393Y8982D01*
X7408Y9002D01*
X7418Y9025D01*
X7419Y9035D01*
D02*
G37*
G36*
X14760Y8605D02*
X14620D01*
Y8515D01*
X14760D01*
Y8605D01*
D02*
G37*
G36*
X14930D02*
X14790D01*
Y8515D01*
X14930D01*
Y8605D01*
D02*
G37*
G36*
X13490Y8860D02*
X13390D01*
X13363Y8856D01*
X13337Y8846D01*
X13315Y8829D01*
X13298Y8807D01*
X13288Y8781D01*
X13284Y8754D01*
X13288Y8727D01*
X13298Y8701D01*
X13315Y8679D01*
X13337Y8662D01*
X13363Y8652D01*
X13390Y8648D01*
X13490D01*
X13517Y8652D01*
X13543Y8662D01*
X13565Y8679D01*
X13582Y8701D01*
X13592Y8727D01*
X13596Y8754D01*
X13592Y8781D01*
X13582Y8807D01*
X13565Y8829D01*
X13543Y8846D01*
X13517Y8856D01*
X13490Y8860D01*
D02*
G37*
G36*
Y8606D02*
X13390D01*
X13363Y8602D01*
X13337Y8592D01*
X13315Y8575D01*
X13298Y8553D01*
X13288Y8527D01*
X13284Y8500D01*
X13288Y8473D01*
X13298Y8447D01*
X13315Y8425D01*
X13337Y8408D01*
X13363Y8398D01*
X13390Y8394D01*
X13490D01*
X13517Y8398D01*
X13543Y8408D01*
X13565Y8425D01*
X13582Y8447D01*
X13592Y8473D01*
X13596Y8500D01*
X13592Y8527D01*
X13582Y8553D01*
X13565Y8575D01*
X13543Y8592D01*
X13517Y8602D01*
X13490Y8606D01*
D02*
G37*
G36*
X14760Y8485D02*
X14620D01*
Y8395D01*
X14760D01*
Y8485D01*
D02*
G37*
G36*
X14930D02*
X14790D01*
Y8395D01*
X14930D01*
Y8485D01*
D02*
G37*
G36*
X5335Y9035D02*
X5256D01*
X5257Y9025D01*
X5267Y9002D01*
X5282Y8982D01*
X5302Y8967D01*
X5325Y8957D01*
X5335Y8956D01*
Y9035D01*
D02*
G37*
G36*
X5444D02*
X5365D01*
Y8956D01*
X5375Y8957D01*
X5398Y8967D01*
X5418Y8982D01*
X5433Y9002D01*
X5443Y9025D01*
X5444Y9035D01*
D02*
G37*
G36*
X7310D02*
X7231D01*
X7232Y9025D01*
X7242Y9002D01*
X7257Y8982D01*
X7277Y8967D01*
X7300Y8957D01*
X7310Y8956D01*
Y9035D01*
D02*
G37*
G36*
X13490Y9114D02*
X13390D01*
X13363Y9110D01*
X13337Y9100D01*
X13315Y9083D01*
X13298Y9061D01*
X13288Y9035D01*
X13284Y9008D01*
X13288Y8981D01*
X13298Y8955D01*
X13315Y8933D01*
X13337Y8916D01*
X13363Y8906D01*
X13390Y8902D01*
X13490D01*
X13517Y8906D01*
X13543Y8916D01*
X13565Y8933D01*
X13582Y8955D01*
X13592Y8981D01*
X13596Y9008D01*
X13592Y9035D01*
X13582Y9061D01*
X13565Y9083D01*
X13543Y9100D01*
X13517Y9110D01*
X13490Y9114D01*
D02*
G37*
G36*
X14825D02*
X14725D01*
X14698Y9110D01*
X14672Y9100D01*
X14650Y9083D01*
X14633Y9061D01*
X14623Y9035D01*
X14619Y9008D01*
X14623Y8981D01*
X14633Y8955D01*
X14650Y8933D01*
X14672Y8916D01*
X14698Y8906D01*
X14725Y8902D01*
X14825D01*
X14852Y8906D01*
X14878Y8916D01*
X14900Y8933D01*
X14917Y8955D01*
X14927Y8981D01*
X14931Y9008D01*
X14927Y9035D01*
X14917Y9061D01*
X14900Y9083D01*
X14878Y9100D01*
X14852Y9110D01*
X14825Y9114D01*
D02*
G37*
G36*
X15375Y9146D02*
X15344Y9142D01*
X15314Y9130D01*
X15289Y9111D01*
X15270Y9086D01*
X15258Y9056D01*
X15254Y9025D01*
X15258Y8994D01*
X15270Y8964D01*
X15289Y8939D01*
X15314Y8920D01*
X15344Y8908D01*
X15375Y8904D01*
X15406Y8908D01*
X15436Y8920D01*
X15461Y8939D01*
X15480Y8964D01*
X15492Y8994D01*
X15496Y9025D01*
X15492Y9056D01*
X15480Y9086D01*
X15461Y9111D01*
X15436Y9130D01*
X15406Y9142D01*
X15375Y9146D01*
D02*
G37*
G36*
X12585Y10885D02*
X12506D01*
X12507Y10875D01*
X12517Y10852D01*
X12532Y10832D01*
X12552Y10817D01*
X12575Y10807D01*
X12585Y10806D01*
Y10885D01*
D02*
G37*
G36*
X15610Y12394D02*
X15600Y12393D01*
X15577Y12383D01*
X15557Y12368D01*
X15542Y12348D01*
X15532Y12325D01*
X15531Y12315D01*
X15610D01*
Y12394D01*
D02*
G37*
G36*
X15640D02*
Y12315D01*
X15719D01*
X15718Y12325D01*
X15708Y12348D01*
X15693Y12368D01*
X15673Y12383D01*
X15650Y12393D01*
X15640Y12394D01*
D02*
G37*
G36*
X7252Y12531D02*
X7148D01*
X7150Y12515D01*
X7162Y12485D01*
X7181Y12460D01*
X7206Y12441D01*
X7236Y12429D01*
X7252Y12427D01*
Y12531D01*
D02*
G37*
G36*
X5950Y12446D02*
X5919Y12442D01*
X5889Y12430D01*
X5864Y12411D01*
X5845Y12386D01*
X5833Y12356D01*
X5829Y12325D01*
X5833Y12294D01*
X5845Y12264D01*
X5864Y12239D01*
X5889Y12220D01*
X5919Y12208D01*
X5950Y12204D01*
X5981Y12208D01*
X6011Y12220D01*
X6036Y12239D01*
X6055Y12264D01*
X6067Y12294D01*
X6071Y12325D01*
X6067Y12356D01*
X6055Y12386D01*
X6036Y12411D01*
X6011Y12430D01*
X5981Y12442D01*
X5950Y12446D01*
D02*
G37*
G36*
X15610Y12285D02*
X15531D01*
X15532Y12275D01*
X15542Y12252D01*
X15557Y12232D01*
X15577Y12217D01*
X15600Y12207D01*
X15610Y12206D01*
Y12285D01*
D02*
G37*
G36*
X15719D02*
X15640D01*
Y12206D01*
X15650Y12207D01*
X15673Y12217D01*
X15693Y12232D01*
X15708Y12252D01*
X15718Y12275D01*
X15719Y12285D01*
D02*
G37*
G36*
X15045Y12920D02*
X14805D01*
Y12680D01*
X15045D01*
Y12744D01*
X15377D01*
X15455Y12665D01*
X15457Y12650D01*
X15467Y12627D01*
X15482Y12607D01*
X15502Y12592D01*
X15525Y12582D01*
X15550Y12579D01*
X15575Y12582D01*
X15598Y12592D01*
X15618Y12607D01*
X15633Y12627D01*
X15643Y12650D01*
X15646Y12675D01*
X15643Y12700D01*
X15633Y12723D01*
X15618Y12743D01*
X15598Y12758D01*
X15575Y12768D01*
X15550Y12771D01*
X15525Y12768D01*
X15516Y12764D01*
X15440Y12840D01*
X15421Y12852D01*
X15400Y12856D01*
X15045D01*
Y12920D01*
D02*
G37*
G36*
X15935Y12685D02*
X15856D01*
X15857Y12675D01*
X15867Y12652D01*
X15882Y12632D01*
X15902Y12617D01*
X15925Y12607D01*
X15935Y12606D01*
Y12685D01*
D02*
G37*
G36*
X16044D02*
X15965D01*
Y12606D01*
X15975Y12607D01*
X15998Y12617D01*
X16018Y12632D01*
X16033Y12652D01*
X16043Y12675D01*
X16044Y12685D01*
D02*
G37*
G36*
X12110Y12760D02*
X11845D01*
X11848Y12731D01*
X11858Y12688D01*
X11875Y12647D01*
X11898Y12610D01*
X11926Y12576D01*
X11960Y12548D01*
X11997Y12525D01*
X12038Y12508D01*
X12081Y12498D01*
X12110Y12495D01*
Y12760D01*
D02*
G37*
G36*
X12405D02*
X12140D01*
Y12495D01*
X12169Y12498D01*
X12212Y12508D01*
X12253Y12525D01*
X12290Y12548D01*
X12324Y12576D01*
X12352Y12610D01*
X12375Y12647D01*
X12392Y12688D01*
X12402Y12731D01*
X12405Y12760D01*
D02*
G37*
G36*
X7252Y12665D02*
X7236Y12663D01*
X7206Y12651D01*
X7181Y12632D01*
X7162Y12607D01*
X7150Y12577D01*
X7148Y12561D01*
X7252D01*
Y12665D01*
D02*
G37*
G36*
X5935Y12119D02*
X5919Y12117D01*
X5889Y12105D01*
X5864Y12086D01*
X5845Y12061D01*
X5833Y12031D01*
X5831Y12015D01*
X5935D01*
Y12119D01*
D02*
G37*
G36*
X5965D02*
Y12015D01*
X6069D01*
X6067Y12031D01*
X6055Y12061D01*
X6036Y12086D01*
X6011Y12105D01*
X5981Y12117D01*
X5965Y12119D01*
D02*
G37*
G36*
X9097Y12106D02*
X9088Y12105D01*
X9065Y12095D01*
X9045Y12080D01*
X9030Y12060D01*
X9020Y12037D01*
X9019Y12028D01*
X9097D01*
Y12106D01*
D02*
G37*
G36*
X10185Y12060D02*
X10106D01*
X10107Y12050D01*
X10117Y12027D01*
X10132Y12007D01*
X10152Y11992D01*
X10175Y11982D01*
X10185Y11981D01*
Y12060D01*
D02*
G37*
G36*
X10294D02*
X10215D01*
Y11981D01*
X10225Y11982D01*
X10248Y11992D01*
X10268Y12007D01*
X10283Y12027D01*
X10293Y12050D01*
X10294Y12060D01*
D02*
G37*
G36*
X15925Y12246D02*
X15894Y12242D01*
X15864Y12230D01*
X15839Y12211D01*
X15820Y12186D01*
X15808Y12156D01*
X15804Y12125D01*
X15808Y12094D01*
X15820Y12064D01*
X15839Y12039D01*
X15864Y12020D01*
X15894Y12008D01*
X15925Y12004D01*
X15956Y12008D01*
X15986Y12020D01*
X16011Y12039D01*
X16030Y12064D01*
X16042Y12094D01*
X16046Y12125D01*
X16042Y12156D01*
X16030Y12186D01*
X16011Y12211D01*
X15986Y12230D01*
X15956Y12242D01*
X15925Y12246D01*
D02*
G37*
G36*
X11165Y12144D02*
Y12065D01*
X11244D01*
X11243Y12075D01*
X11233Y12098D01*
X11218Y12118D01*
X11198Y12133D01*
X11175Y12143D01*
X11165Y12144D01*
D02*
G37*
G36*
X10185Y12169D02*
X10175Y12168D01*
X10152Y12158D01*
X10132Y12143D01*
X10117Y12123D01*
X10107Y12100D01*
X10106Y12090D01*
X10185D01*
Y12169D01*
D02*
G37*
G36*
X10215D02*
Y12090D01*
X10294D01*
X10293Y12100D01*
X10283Y12123D01*
X10268Y12143D01*
X10248Y12158D01*
X10225Y12168D01*
X10215Y12169D01*
D02*
G37*
G36*
X9127Y12106D02*
Y12028D01*
X9206D01*
X9205Y12037D01*
X9195Y12060D01*
X9180Y12080D01*
X9160Y12095D01*
X9137Y12105D01*
X9127Y12106D01*
D02*
G37*
G36*
X8675Y12221D02*
X8650Y12218D01*
X8627Y12208D01*
X8607Y12193D01*
X8592Y12173D01*
X8582Y12150D01*
X8579Y12125D01*
X8582Y12100D01*
X8592Y12077D01*
X8607Y12057D01*
X8627Y12042D01*
X8650Y12032D01*
X8675Y12029D01*
X8700Y12032D01*
X8723Y12042D01*
X8743Y12057D01*
X8758Y12077D01*
X8768Y12100D01*
X8771Y12125D01*
X8768Y12150D01*
X8758Y12173D01*
X8743Y12193D01*
X8723Y12208D01*
X8700Y12218D01*
X8675Y12221D01*
D02*
G37*
G36*
X11135Y12144D02*
X11125Y12143D01*
X11102Y12133D01*
X11082Y12118D01*
X11067Y12098D01*
X11057Y12075D01*
X11056Y12065D01*
X11135D01*
Y12144D01*
D02*
G37*
G36*
X12685Y12735D02*
X12581D01*
X12583Y12719D01*
X12595Y12689D01*
X12614Y12664D01*
X12639Y12645D01*
X12669Y12633D01*
X12685Y12631D01*
Y12735D01*
D02*
G37*
G36*
X12715Y12869D02*
Y12765D01*
X12819D01*
X12817Y12781D01*
X12805Y12811D01*
X12786Y12836D01*
X12761Y12855D01*
X12731Y12867D01*
X12715Y12869D01*
D02*
G37*
G36*
X12110Y13055D02*
X12081Y13052D01*
X12038Y13042D01*
X11997Y13025D01*
X11960Y13002D01*
X11926Y12974D01*
X11898Y12940D01*
X11875Y12903D01*
X11858Y12862D01*
X11848Y12819D01*
X11845Y12790D01*
X12110D01*
Y13055D01*
D02*
G37*
G36*
X12140D02*
Y12790D01*
X12405D01*
X12402Y12819D01*
X12392Y12862D01*
X12375Y12903D01*
X12352Y12940D01*
X12324Y12974D01*
X12290Y13002D01*
X12253Y13025D01*
X12212Y13042D01*
X12169Y13052D01*
X12140Y13055D01*
D02*
G37*
G36*
X9650Y12834D02*
X9640Y12833D01*
X9617Y12823D01*
X9597Y12808D01*
X9582Y12788D01*
X9572Y12765D01*
X9571Y12755D01*
X9650D01*
Y12834D01*
D02*
G37*
G36*
X9680D02*
Y12755D01*
X9759D01*
X9758Y12765D01*
X9748Y12788D01*
X9733Y12808D01*
X9713Y12823D01*
X9690Y12833D01*
X9680Y12834D01*
D02*
G37*
G36*
X12685Y12869D02*
X12669Y12867D01*
X12639Y12855D01*
X12614Y12836D01*
X12595Y12811D01*
X12583Y12781D01*
X12581Y12765D01*
X12685D01*
Y12869D01*
D02*
G37*
G36*
X13924Y12919D02*
Y12815D01*
X14028D01*
X14026Y12831D01*
X14014Y12861D01*
X13995Y12886D01*
X13970Y12905D01*
X13940Y12917D01*
X13924Y12919D01*
D02*
G37*
G36*
X9160Y12919D02*
X9150Y12918D01*
X9127Y12908D01*
X9107Y12893D01*
X9092Y12873D01*
X9082Y12850D01*
X9081Y12840D01*
X9160D01*
Y12919D01*
D02*
G37*
G36*
X9190D02*
Y12840D01*
X9269D01*
X9268Y12850D01*
X9258Y12873D01*
X9243Y12893D01*
X9223Y12908D01*
X9200Y12918D01*
X9190Y12919D01*
D02*
G37*
G36*
X6744Y12919D02*
X6728Y12917D01*
X6698Y12905D01*
X6673Y12886D01*
X6654Y12861D01*
X6642Y12831D01*
X6640Y12815D01*
X6744D01*
Y12919D01*
D02*
G37*
G36*
X6774D02*
Y12815D01*
X6878D01*
X6876Y12831D01*
X6864Y12861D01*
X6845Y12886D01*
X6820Y12905D01*
X6790Y12917D01*
X6774Y12919D01*
D02*
G37*
G36*
X13894D02*
X13878Y12917D01*
X13848Y12905D01*
X13823Y12886D01*
X13804Y12861D01*
X13792Y12831D01*
X13790Y12815D01*
X13894D01*
Y12919D01*
D02*
G37*
G36*
Y12785D02*
X13790D01*
X13792Y12769D01*
X13804Y12739D01*
X13823Y12714D01*
X13848Y12695D01*
X13878Y12683D01*
X13894Y12681D01*
Y12785D01*
D02*
G37*
G36*
X6744D02*
X6640D01*
X6642Y12769D01*
X6654Y12739D01*
X6673Y12714D01*
X6698Y12695D01*
X6728Y12683D01*
X6744Y12681D01*
Y12785D01*
D02*
G37*
G36*
X6878D02*
X6774D01*
Y12681D01*
X6790Y12683D01*
X6820Y12695D01*
X6845Y12714D01*
X6864Y12739D01*
X6876Y12769D01*
X6878Y12785D01*
D02*
G37*
G36*
X12819Y12735D02*
X12715D01*
Y12631D01*
X12731Y12633D01*
X12761Y12645D01*
X12786Y12664D01*
X12805Y12689D01*
X12817Y12719D01*
X12819Y12735D01*
D02*
G37*
G36*
X9650Y12725D02*
X9571D01*
X9572Y12715D01*
X9582Y12692D01*
X9597Y12672D01*
X9617Y12657D01*
X9640Y12647D01*
X9650Y12646D01*
Y12725D01*
D02*
G37*
G36*
X9759D02*
X9680D01*
Y12646D01*
X9690Y12647D01*
X9713Y12657D01*
X9733Y12672D01*
X9748Y12692D01*
X9758Y12715D01*
X9759Y12725D01*
D02*
G37*
G36*
X15965Y12794D02*
Y12715D01*
X16044D01*
X16043Y12725D01*
X16033Y12748D01*
X16018Y12768D01*
X15998Y12783D01*
X15975Y12793D01*
X15965Y12794D01*
D02*
G37*
G36*
X9160Y12810D02*
X9081D01*
X9082Y12800D01*
X9092Y12777D01*
X9107Y12757D01*
X9127Y12742D01*
X9150Y12732D01*
X9160Y12731D01*
Y12810D01*
D02*
G37*
G36*
X9269D02*
X9190D01*
Y12731D01*
X9200Y12732D01*
X9223Y12742D01*
X9243Y12757D01*
X9258Y12777D01*
X9268Y12800D01*
X9269Y12810D01*
D02*
G37*
G36*
X14028Y12785D02*
X13924D01*
Y12681D01*
X13940Y12683D01*
X13970Y12695D01*
X13995Y12714D01*
X14014Y12739D01*
X14026Y12769D01*
X14028Y12785D01*
D02*
G37*
G36*
X7895Y12920D02*
X7655D01*
Y12680D01*
X7895D01*
Y12744D01*
X8448D01*
X8457Y12732D01*
X8477Y12717D01*
X8500Y12707D01*
X8525Y12704D01*
X8550Y12707D01*
X8573Y12717D01*
X8593Y12732D01*
X8608Y12752D01*
X8618Y12775D01*
X8621Y12800D01*
X8618Y12825D01*
X8608Y12848D01*
X8593Y12868D01*
X8573Y12883D01*
X8550Y12893D01*
X8525Y12896D01*
X8500Y12893D01*
X8477Y12883D01*
X8457Y12868D01*
X8448Y12856D01*
X7895D01*
Y12920D01*
D02*
G37*
G36*
X15935Y12794D02*
X15925Y12793D01*
X15902Y12783D01*
X15882Y12768D01*
X15867Y12748D01*
X15857Y12725D01*
X15856Y12715D01*
X15935D01*
Y12794D01*
D02*
G37*
G36*
X11244Y12035D02*
X11165D01*
Y11956D01*
X11175Y11957D01*
X11198Y11967D01*
X11218Y11982D01*
X11233Y12002D01*
X11243Y12025D01*
X11244Y12035D01*
D02*
G37*
G36*
X16160Y11069D02*
X16150Y11068D01*
X16127Y11058D01*
X16107Y11043D01*
X16092Y11023D01*
X16082Y11000D01*
X16081Y10990D01*
X16160D01*
Y11069D01*
D02*
G37*
G36*
X16190D02*
Y10990D01*
X16269D01*
X16268Y11000D01*
X16258Y11023D01*
X16243Y11043D01*
X16223Y11058D01*
X16200Y11068D01*
X16190Y11069D01*
D02*
G37*
G36*
X5412Y11232D02*
X5334D01*
X5335Y11223D01*
X5345Y11200D01*
X5360Y11180D01*
X5380Y11165D01*
X5403Y11155D01*
X5412Y11154D01*
Y11232D01*
D02*
G37*
G36*
X7225Y11646D02*
X7200Y11643D01*
X7177Y11633D01*
X7157Y11618D01*
X7142Y11598D01*
X7132Y11575D01*
X7129Y11550D01*
X7132Y11525D01*
X7142Y11502D01*
X7157Y11482D01*
X7169Y11473D01*
Y11250D01*
X7173Y11229D01*
X7185Y11210D01*
X7185Y11210D01*
X7185D01*
Y11210D01*
X7185Y11210D01*
X7321Y11075D01*
X7319Y11060D01*
X7322Y11035D01*
X7332Y11012D01*
X7347Y10992D01*
X7367Y10977D01*
X7390Y10967D01*
X7415Y10964D01*
X7440Y10967D01*
X7463Y10977D01*
X7483Y10992D01*
X7498Y11012D01*
X7508Y11035D01*
X7511Y11060D01*
X7508Y11085D01*
X7498Y11108D01*
X7483Y11128D01*
X7463Y11143D01*
X7440Y11153D01*
X7415Y11156D01*
X7400Y11154D01*
X7281Y11273D01*
Y11473D01*
X7293Y11482D01*
X7308Y11502D01*
X7318Y11525D01*
X7321Y11550D01*
X7318Y11575D01*
X7308Y11598D01*
X7293Y11618D01*
X7273Y11633D01*
X7250Y11643D01*
X7225Y11646D01*
D02*
G37*
G36*
X9200D02*
X9175Y11643D01*
X9152Y11633D01*
X9132Y11618D01*
X9117Y11598D01*
X9107Y11575D01*
X9104Y11550D01*
X9107Y11525D01*
X9117Y11502D01*
X9132Y11482D01*
X9144Y11473D01*
Y11250D01*
X9148Y11229D01*
X9160Y11210D01*
X9160Y11210D01*
X9160Y11210D01*
X9296Y11075D01*
X9294Y11060D01*
X9297Y11035D01*
X9307Y11012D01*
X9322Y10992D01*
X9342Y10977D01*
X9365Y10967D01*
X9390Y10964D01*
X9415Y10967D01*
X9438Y10977D01*
X9458Y10992D01*
X9473Y11012D01*
X9483Y11035D01*
X9486Y11060D01*
X9483Y11085D01*
X9473Y11108D01*
X9458Y11128D01*
X9438Y11143D01*
X9415Y11153D01*
X9390Y11156D01*
X9375Y11154D01*
X9256Y11273D01*
Y11473D01*
X9268Y11482D01*
X9283Y11502D01*
X9293Y11525D01*
X9296Y11550D01*
X9293Y11575D01*
X9283Y11598D01*
X9268Y11618D01*
X9248Y11633D01*
X9225Y11643D01*
X9200Y11646D01*
D02*
G37*
G36*
X11175D02*
X11150Y11643D01*
X11127Y11633D01*
X11107Y11618D01*
X11092Y11598D01*
X11082Y11575D01*
X11079Y11550D01*
X11082Y11525D01*
X11092Y11502D01*
X11107Y11482D01*
X11119Y11473D01*
Y11250D01*
X11123Y11229D01*
X11135Y11210D01*
X11135Y11210D01*
X11135Y11210D01*
X11271Y11075D01*
X11269Y11060D01*
X11272Y11035D01*
X11282Y11012D01*
X11297Y10992D01*
X11317Y10977D01*
X11340Y10967D01*
X11365Y10964D01*
X11390Y10967D01*
X11413Y10977D01*
X11433Y10992D01*
X11448Y11012D01*
X11458Y11035D01*
X11461Y11060D01*
X11458Y11085D01*
X11448Y11108D01*
X11433Y11128D01*
X11413Y11143D01*
X11390Y11153D01*
X11365Y11156D01*
X11350Y11154D01*
X11231Y11273D01*
Y11473D01*
X11243Y11482D01*
X11258Y11502D01*
X11268Y11525D01*
X11271Y11550D01*
X11268Y11575D01*
X11258Y11598D01*
X11243Y11618D01*
X11223Y11633D01*
X11200Y11643D01*
X11175Y11646D01*
D02*
G37*
G36*
X9385Y11285D02*
X9306D01*
X9307Y11275D01*
X9317Y11252D01*
X9332Y11232D01*
X9352Y11217D01*
X9375Y11207D01*
X9385Y11206D01*
Y11285D01*
D02*
G37*
G36*
X9494D02*
X9415D01*
Y11206D01*
X9425Y11207D01*
X9448Y11217D01*
X9468Y11232D01*
X9483Y11252D01*
X9493Y11275D01*
X9494Y11285D01*
D02*
G37*
G36*
X11360D02*
X11281D01*
X11282Y11275D01*
X11292Y11252D01*
X11307Y11232D01*
X11327Y11217D01*
X11350Y11207D01*
X11360Y11206D01*
Y11285D01*
D02*
G37*
G36*
X5521Y11232D02*
X5442D01*
Y11154D01*
X5452Y11155D01*
X5475Y11165D01*
X5495Y11180D01*
X5510Y11200D01*
X5520Y11223D01*
X5521Y11232D01*
D02*
G37*
G36*
X7410Y11285D02*
X7331D01*
X7332Y11275D01*
X7342Y11252D01*
X7357Y11232D01*
X7377Y11217D01*
X7400Y11207D01*
X7410Y11206D01*
Y11285D01*
D02*
G37*
G36*
X7519D02*
X7440D01*
Y11206D01*
X7450Y11207D01*
X7473Y11217D01*
X7493Y11232D01*
X7508Y11252D01*
X7518Y11275D01*
X7519Y11285D01*
D02*
G37*
G36*
X17300Y11771D02*
X17275Y11768D01*
X17252Y11758D01*
X17232Y11743D01*
X17217Y11723D01*
X17207Y11700D01*
X17204Y11675D01*
Y11575D01*
X17207Y11550D01*
X17217Y11527D01*
X17232Y11507D01*
X17705Y11034D01*
X17704Y11025D01*
X17708Y10994D01*
X17720Y10964D01*
X17739Y10939D01*
X17764Y10920D01*
X17794Y10908D01*
X17825Y10904D01*
X17856Y10908D01*
X17886Y10920D01*
X17911Y10939D01*
X17930Y10964D01*
X17942Y10994D01*
X17946Y11025D01*
X17942Y11056D01*
X17930Y11086D01*
X17911Y11111D01*
X17886Y11130D01*
X17877Y11133D01*
X17396Y11615D01*
Y11675D01*
X17393Y11700D01*
X17383Y11723D01*
X17368Y11743D01*
X17348Y11758D01*
X17325Y11768D01*
X17300Y11771D01*
D02*
G37*
G36*
X6660Y10994D02*
X6650Y10993D01*
X6627Y10983D01*
X6607Y10968D01*
X6592Y10948D01*
X6582Y10925D01*
X6581Y10915D01*
X6660D01*
Y10994D01*
D02*
G37*
G36*
X6690D02*
Y10915D01*
X6769D01*
X6768Y10925D01*
X6758Y10948D01*
X6743Y10968D01*
X6723Y10983D01*
X6700Y10993D01*
X6690Y10994D01*
D02*
G37*
G36*
X12694Y10885D02*
X12615D01*
Y10806D01*
X12625Y10807D01*
X12648Y10817D01*
X12668Y10832D01*
X12683Y10852D01*
X12693Y10875D01*
X12694Y10885D01*
D02*
G37*
G36*
X16160Y10960D02*
X16081D01*
X16082Y10950D01*
X16092Y10927D01*
X16107Y10907D01*
X16127Y10892D01*
X16150Y10882D01*
X16160Y10881D01*
Y10960D01*
D02*
G37*
G36*
X16269D02*
X16190D01*
Y10881D01*
X16200Y10882D01*
X16223Y10892D01*
X16243Y10907D01*
X16258Y10927D01*
X16268Y10950D01*
X16269Y10960D01*
D02*
G37*
G36*
X10640Y10994D02*
Y10915D01*
X10719D01*
X10718Y10925D01*
X10708Y10948D01*
X10693Y10968D01*
X10673Y10983D01*
X10650Y10993D01*
X10640Y10994D01*
D02*
G37*
G36*
X12585D02*
X12575Y10993D01*
X12552Y10983D01*
X12532Y10968D01*
X12517Y10948D01*
X12507Y10925D01*
X12506Y10915D01*
X12585D01*
Y10994D01*
D02*
G37*
G36*
X12615D02*
Y10915D01*
X12694D01*
X12693Y10925D01*
X12683Y10948D01*
X12668Y10968D01*
X12648Y10983D01*
X12625Y10993D01*
X12615Y10994D01*
D02*
G37*
G36*
X8635D02*
X8625Y10993D01*
X8602Y10983D01*
X8582Y10968D01*
X8567Y10948D01*
X8557Y10925D01*
X8556Y10915D01*
X8635D01*
Y10994D01*
D02*
G37*
G36*
X8665D02*
Y10915D01*
X8744D01*
X8743Y10925D01*
X8733Y10948D01*
X8718Y10968D01*
X8698Y10983D01*
X8675Y10993D01*
X8665Y10994D01*
D02*
G37*
G36*
X10610D02*
X10600Y10993D01*
X10577Y10983D01*
X10557Y10968D01*
X10542Y10948D01*
X10532Y10925D01*
X10531Y10915D01*
X10610D01*
Y10994D01*
D02*
G37*
G36*
X11469Y11285D02*
X11390D01*
Y11206D01*
X11400Y11207D01*
X11423Y11217D01*
X11443Y11232D01*
X11458Y11252D01*
X11468Y11275D01*
X11469Y11285D01*
D02*
G37*
G36*
X13894Y11794D02*
X13878Y11792D01*
X13848Y11780D01*
X13823Y11761D01*
X13804Y11736D01*
X13792Y11706D01*
X13790Y11690D01*
X13894D01*
Y11794D01*
D02*
G37*
G36*
X13924D02*
Y11690D01*
X14028D01*
X14026Y11706D01*
X14014Y11736D01*
X13995Y11761D01*
X13970Y11780D01*
X13940Y11792D01*
X13924Y11794D01*
D02*
G37*
G36*
X7025Y12046D02*
X6994Y12042D01*
X6964Y12030D01*
X6939Y12011D01*
X6920Y11986D01*
X6908Y11956D01*
X6904Y11925D01*
X6908Y11894D01*
X6920Y11864D01*
X6939Y11839D01*
X6964Y11820D01*
X6994Y11808D01*
X7025Y11804D01*
X7056Y11808D01*
X7086Y11820D01*
X7111Y11839D01*
X7130Y11864D01*
X7142Y11894D01*
X7146Y11925D01*
X7142Y11956D01*
X7130Y11986D01*
X7111Y12011D01*
X7086Y12030D01*
X7056Y12042D01*
X7025Y12046D01*
D02*
G37*
G36*
X6725Y11746D02*
X6694Y11742D01*
X6664Y11730D01*
X6639Y11711D01*
X6620Y11686D01*
X6608Y11656D01*
X6604Y11625D01*
X6608Y11594D01*
X6620Y11564D01*
X6639Y11539D01*
X6664Y11520D01*
X6694Y11508D01*
X6725Y11504D01*
X6756Y11508D01*
X6786Y11520D01*
X6811Y11539D01*
X6830Y11564D01*
X6842Y11594D01*
X6846Y11625D01*
X6842Y11656D01*
X6830Y11686D01*
X6811Y11711D01*
X6786Y11730D01*
X6756Y11742D01*
X6725Y11746D01*
D02*
G37*
G36*
X15045Y11795D02*
X14805D01*
Y11555D01*
X15045D01*
Y11795D01*
D02*
G37*
G36*
X17300Y13171D02*
X17275Y13168D01*
X17252Y13158D01*
X17232Y13143D01*
X17217Y13123D01*
X17207Y13100D01*
X17204Y13075D01*
Y12900D01*
X17207Y12875D01*
X17207Y12875D01*
X17207Y12875D01*
X17217Y12852D01*
X17232Y12832D01*
X17729Y12335D01*
Y11797D01*
X17720Y11786D01*
X17708Y11756D01*
X17704Y11725D01*
X17708Y11694D01*
X17720Y11664D01*
X17739Y11639D01*
X17764Y11620D01*
X17794Y11608D01*
X17825Y11604D01*
X17856Y11608D01*
X17886Y11620D01*
X17911Y11639D01*
X17930Y11664D01*
X17942Y11694D01*
X17946Y11725D01*
X17942Y11756D01*
X17930Y11786D01*
X17921Y11797D01*
Y12375D01*
X17918Y12400D01*
X17908Y12423D01*
X17893Y12443D01*
X17396Y12940D01*
Y13075D01*
X17393Y13100D01*
X17383Y13123D01*
X17368Y13143D01*
X17348Y13158D01*
X17325Y13168D01*
X17300Y13171D01*
D02*
G37*
G36*
X9097Y11997D02*
X9019D01*
X9020Y11988D01*
X9030Y11965D01*
X9045Y11945D01*
X9065Y11930D01*
X9088Y11920D01*
X9097Y11919D01*
Y11997D01*
D02*
G37*
G36*
X9206D02*
X9127D01*
Y11919D01*
X9137Y11920D01*
X9160Y11930D01*
X9180Y11945D01*
X9195Y11965D01*
X9205Y11988D01*
X9206Y11997D01*
D02*
G37*
G36*
X11135Y12035D02*
X11056D01*
X11057Y12025D01*
X11067Y12002D01*
X11082Y11982D01*
X11102Y11967D01*
X11125Y11957D01*
X11135Y11956D01*
Y12035D01*
D02*
G37*
G36*
X10850Y12096D02*
X10819Y12092D01*
X10789Y12080D01*
X10764Y12061D01*
X10745Y12036D01*
X10733Y12006D01*
X10729Y11975D01*
X10733Y11944D01*
X10745Y11914D01*
X10764Y11889D01*
X10789Y11870D01*
X10819Y11858D01*
X10850Y11854D01*
X10881Y11858D01*
X10911Y11870D01*
X10936Y11889D01*
X10955Y11914D01*
X10967Y11944D01*
X10971Y11975D01*
X10967Y12006D01*
X10955Y12036D01*
X10936Y12061D01*
X10911Y12080D01*
X10881Y12092D01*
X10850Y12096D01*
D02*
G37*
G36*
X5935Y11985D02*
X5831D01*
X5833Y11969D01*
X5845Y11939D01*
X5864Y11914D01*
X5889Y11895D01*
X5919Y11883D01*
X5935Y11881D01*
Y11985D01*
D02*
G37*
G36*
X6069D02*
X5965D01*
Y11881D01*
X5981Y11883D01*
X6011Y11895D01*
X6036Y11914D01*
X6055Y11939D01*
X6067Y11969D01*
X6069Y11985D01*
D02*
G37*
G36*
X13170Y12870D02*
X12930D01*
Y12630D01*
X12982D01*
Y12575D01*
X12982Y12575D01*
X12984Y12557D01*
X12991Y12541D01*
X13002Y12527D01*
X13527Y12002D01*
X13541Y11991D01*
X13546Y11989D01*
X13557Y11984D01*
X13566Y11983D01*
X13575Y11982D01*
X13582Y11927D01*
Y11680D01*
X13582Y11680D01*
X13584Y11662D01*
X13591Y11646D01*
X13602Y11632D01*
X13791Y11443D01*
X13788Y11421D01*
X13791Y11399D01*
X13527Y11135D01*
X13516Y11121D01*
X13514Y11116D01*
X13509Y11105D01*
X13508Y11096D01*
X13507Y11087D01*
X13507Y11087D01*
Y10967D01*
X13492Y10948D01*
X13482Y10925D01*
X13479Y10900D01*
X13482Y10875D01*
X13492Y10852D01*
X13507Y10832D01*
X13527Y10817D01*
X13550Y10807D01*
X13575Y10804D01*
X13600Y10807D01*
X13623Y10817D01*
X13643Y10832D01*
X13658Y10852D01*
X13668Y10875D01*
X13671Y10900D01*
X13668Y10925D01*
X13658Y10948D01*
X13643Y10967D01*
Y11059D01*
X13887Y11303D01*
X13909Y11300D01*
X13940Y11304D01*
X13970Y11316D01*
X13995Y11335D01*
X14014Y11360D01*
X14026Y11390D01*
X14030Y11418D01*
X14042D01*
X14046Y11390D01*
X14058Y11360D01*
X14077Y11335D01*
X14102Y11316D01*
X14132Y11304D01*
X14163Y11300D01*
X14194Y11304D01*
X14224Y11316D01*
X14249Y11335D01*
X14268Y11360D01*
X14280Y11390D01*
X14284Y11418D01*
X14296D01*
X14300Y11390D01*
X14312Y11360D01*
X14331Y11335D01*
X14356Y11316D01*
X14386Y11304D01*
X14417Y11300D01*
X14448Y11304D01*
X14478Y11316D01*
X14503Y11335D01*
X14522Y11360D01*
X14534Y11390D01*
X14538Y11418D01*
X14550D01*
X14554Y11390D01*
X14566Y11360D01*
X14585Y11335D01*
X14610Y11316D01*
X14640Y11304D01*
X14671Y11300D01*
X14702Y11304D01*
X14732Y11316D01*
X14757Y11335D01*
X14776Y11360D01*
X14788Y11390D01*
X14792Y11418D01*
X14804D01*
X14808Y11390D01*
X14820Y11360D01*
X14839Y11335D01*
X14864Y11316D01*
X14894Y11304D01*
X14925Y11300D01*
X14956Y11304D01*
X14986Y11316D01*
X15011Y11335D01*
X15030Y11360D01*
X15042Y11390D01*
X15046Y11421D01*
X15042Y11452D01*
X15030Y11482D01*
X15011Y11507D01*
X14986Y11526D01*
X14956Y11538D01*
X14925Y11542D01*
X14894Y11538D01*
X14864Y11526D01*
X14839Y11507D01*
X14820Y11482D01*
X14808Y11452D01*
X14804Y11424D01*
X14792D01*
X14788Y11452D01*
X14776Y11482D01*
X14757Y11507D01*
X14732Y11526D01*
X14702Y11538D01*
X14674Y11542D01*
Y11554D01*
X14702Y11558D01*
X14732Y11570D01*
X14757Y11589D01*
X14776Y11614D01*
X14788Y11644D01*
X14792Y11675D01*
X14788Y11706D01*
X14776Y11736D01*
X14757Y11761D01*
X14732Y11780D01*
X14702Y11792D01*
X14671Y11796D01*
X14640Y11792D01*
X14610Y11780D01*
X14585Y11761D01*
X14566Y11736D01*
X14554Y11706D01*
X14550Y11678D01*
X14538D01*
X14534Y11706D01*
X14522Y11736D01*
X14503Y11761D01*
X14478Y11780D01*
X14448Y11792D01*
X14417Y11796D01*
X14386Y11792D01*
X14356Y11780D01*
X14331Y11761D01*
X14312Y11736D01*
X14300Y11706D01*
X14296Y11678D01*
X14284D01*
X14280Y11706D01*
X14268Y11736D01*
X14249Y11761D01*
X14224Y11780D01*
X14194Y11792D01*
X14163Y11796D01*
X14132Y11792D01*
X14102Y11780D01*
X14077Y11761D01*
X14058Y11736D01*
X14046Y11706D01*
X14042Y11678D01*
X14042D01*
X14042Y11675D01*
X14042Y11672D01*
X14042D01*
X14046Y11644D01*
X14058Y11614D01*
X14077Y11589D01*
X14102Y11570D01*
X14132Y11558D01*
X14160Y11554D01*
Y11542D01*
X14132Y11538D01*
X14102Y11526D01*
X14077Y11507D01*
X14058Y11482D01*
X14046Y11452D01*
X14042Y11424D01*
X14030D01*
X14026Y11452D01*
X14014Y11482D01*
X13995Y11507D01*
X13970Y11526D01*
X13940Y11538D01*
X13912Y11542D01*
Y11554D01*
X13940Y11558D01*
X13970Y11570D01*
X13995Y11589D01*
X14014Y11614D01*
X14026Y11644D01*
X14028Y11660D01*
X13790D01*
X13791Y11652D01*
X13780Y11647D01*
X13718Y11708D01*
Y12050D01*
X13716Y12068D01*
X13709Y12084D01*
X13698Y12098D01*
X13684Y12109D01*
X13668Y12116D01*
X13650Y12118D01*
X13603D01*
X13118Y12603D01*
Y12630D01*
X13170D01*
Y12870D01*
D02*
G37*
G36*
X7410Y11394D02*
X7400Y11393D01*
X7377Y11383D01*
X7357Y11368D01*
X7342Y11348D01*
X7332Y11325D01*
X7331Y11315D01*
X7410D01*
Y11394D01*
D02*
G37*
G36*
X7440D02*
Y11315D01*
X7519D01*
X7518Y11325D01*
X7508Y11348D01*
X7493Y11368D01*
X7473Y11383D01*
X7450Y11393D01*
X7440Y11394D01*
D02*
G37*
G36*
X17275Y12246D02*
X17244Y12242D01*
X17214Y12230D01*
X17189Y12211D01*
X17170Y12186D01*
X17158Y12156D01*
X17154Y12125D01*
X17158Y12094D01*
X17170Y12064D01*
X17189Y12039D01*
X17214Y12020D01*
X17244Y12008D01*
X17275Y12004D01*
X17306Y12008D01*
X17336Y12020D01*
X17347Y12029D01*
X17410D01*
X17479Y11960D01*
Y11625D01*
X17482Y11600D01*
X17492Y11577D01*
X17507Y11557D01*
X17706Y11358D01*
X17708Y11344D01*
X17720Y11314D01*
X17739Y11289D01*
X17764Y11270D01*
X17794Y11258D01*
X17825Y11254D01*
X17856Y11258D01*
X17886Y11270D01*
X17911Y11289D01*
X17930Y11314D01*
X17942Y11344D01*
X17946Y11375D01*
X17942Y11406D01*
X17930Y11436D01*
X17911Y11461D01*
X17886Y11480D01*
X17856Y11492D01*
X17842Y11494D01*
X17671Y11665D01*
Y12000D01*
X17668Y12025D01*
X17661Y12041D01*
X17658Y12048D01*
X17643Y12068D01*
X17518Y12193D01*
X17498Y12208D01*
X17475Y12218D01*
X17450Y12221D01*
X17347D01*
X17336Y12230D01*
X17306Y12242D01*
X17275Y12246D01*
D02*
G37*
G36*
X5412Y11341D02*
X5403Y11340D01*
X5380Y11330D01*
X5360Y11315D01*
X5345Y11295D01*
X5335Y11272D01*
X5334Y11262D01*
X5412D01*
Y11341D01*
D02*
G37*
G36*
X5442D02*
Y11262D01*
X5521D01*
X5520Y11272D01*
X5510Y11295D01*
X5495Y11315D01*
X5475Y11330D01*
X5452Y11340D01*
X5442Y11341D01*
D02*
G37*
G36*
X11390Y11394D02*
Y11315D01*
X11469D01*
X11468Y11325D01*
X11458Y11348D01*
X11443Y11368D01*
X11423Y11383D01*
X11400Y11393D01*
X11390Y11394D01*
D02*
G37*
G36*
X8575Y11671D02*
X8544Y11667D01*
X8514Y11655D01*
X8489Y11636D01*
X8470Y11611D01*
X8458Y11581D01*
X8454Y11550D01*
X8458Y11519D01*
X8470Y11489D01*
X8489Y11464D01*
X8514Y11445D01*
X8544Y11433D01*
X8575Y11429D01*
X8606Y11433D01*
X8636Y11445D01*
X8661Y11464D01*
X8680Y11489D01*
X8692Y11519D01*
X8696Y11550D01*
X8692Y11581D01*
X8680Y11611D01*
X8661Y11636D01*
X8636Y11655D01*
X8606Y11667D01*
X8575Y11671D01*
D02*
G37*
G36*
X10500D02*
X10469Y11667D01*
X10439Y11655D01*
X10414Y11636D01*
X10395Y11611D01*
X10383Y11581D01*
X10379Y11550D01*
X10383Y11519D01*
X10395Y11489D01*
X10414Y11464D01*
X10439Y11445D01*
X10469Y11433D01*
X10500Y11429D01*
X10531Y11433D01*
X10561Y11445D01*
X10586Y11464D01*
X10605Y11489D01*
X10617Y11519D01*
X10621Y11550D01*
X10617Y11581D01*
X10605Y11611D01*
X10586Y11636D01*
X10561Y11655D01*
X10531Y11667D01*
X10500Y11671D01*
D02*
G37*
G36*
X9385Y11394D02*
X9375Y11393D01*
X9352Y11383D01*
X9332Y11368D01*
X9317Y11348D01*
X9307Y11325D01*
X9306Y11315D01*
X9385D01*
Y11394D01*
D02*
G37*
G36*
X9415D02*
Y11315D01*
X9494D01*
X9493Y11325D01*
X9483Y11348D01*
X9468Y11368D01*
X9448Y11383D01*
X9425Y11393D01*
X9415Y11394D01*
D02*
G37*
G36*
X11360D02*
X11350Y11393D01*
X11327Y11383D01*
X11307Y11368D01*
X11292Y11348D01*
X11282Y11325D01*
X11281Y11315D01*
X11360D01*
Y11394D01*
D02*
G37*
%LPD*%
D29*
X15375Y9775D02*
Y9800D01*
Y9275D02*
Y9775D01*
X11095Y13230D02*
X12375Y11950D01*
Y11750D02*
Y11950D01*
X8300Y11675D02*
Y12025D01*
X7267Y12800D02*
Y12967D01*
X7530Y13230D01*
X11095D01*
X10200Y13125D02*
X10400Y12925D01*
X7675Y13125D02*
X10200D01*
X7521Y12971D02*
X7675Y13125D01*
X7521Y12800D02*
Y12971D01*
X10400Y11775D02*
Y12925D01*
X7775Y12800D02*
X8525D01*
X7789Y12536D02*
X8300Y12025D01*
X7789Y12536D02*
Y12561D01*
X7275Y12300D02*
X7521Y12546D01*
X7075Y12300D02*
X7275D01*
X6475Y11700D02*
X7075Y12300D01*
X7225Y11250D02*
X7415Y11060D01*
X7225Y11250D02*
Y11550D01*
X9200Y11250D02*
X9390Y11060D01*
X9200Y11250D02*
Y11550D01*
X11175Y11250D02*
Y11550D01*
Y11250D02*
X11365Y11060D01*
X5975Y8150D02*
Y8625D01*
X5925Y8100D02*
X5975Y8150D01*
X6225Y8125D02*
Y8625D01*
X9925Y8150D02*
Y8625D01*
X9875Y8100D02*
X9925Y8150D01*
X10175Y8125D02*
Y8625D01*
X11900Y8150D02*
Y8625D01*
X11850Y8100D02*
X11900Y8150D01*
X12150Y8125D02*
Y8625D01*
X7950Y8150D02*
Y8625D01*
X7900Y8100D02*
X7950Y8150D01*
X8200Y8125D02*
Y8625D01*
X15525Y12675D02*
X15550D01*
X15400Y12800D02*
X15525Y12675D01*
X14925Y12800D02*
X15400D01*
X14925Y12546D02*
X14929Y12550D01*
X14417Y12108D02*
X14425Y12100D01*
X14417Y12108D02*
Y12546D01*
X14971Y12500D02*
X15750D01*
X14925Y12546D02*
X14971Y12500D01*
X15625Y12100D02*
X15950Y11775D01*
X15117Y12100D02*
X15625D01*
X14671Y12546D02*
X15117Y12100D01*
X15950Y10375D02*
X16400Y10825D01*
Y12525D01*
X15925Y13000D02*
X16400Y12525D01*
X14750Y13000D02*
X15925D01*
X14671Y12921D02*
X14750Y13000D01*
X14671Y12800D02*
Y12921D01*
X15950Y8975D02*
X16500Y9525D01*
Y12575D01*
X15975Y13100D02*
X16500Y12575D01*
X14625Y13100D02*
X15975D01*
X14417Y12892D02*
X14625Y13100D01*
X14417Y12800D02*
Y12892D01*
X14775Y9237D02*
X14837D01*
X14875Y9275D01*
X15700D02*
X15850Y9125D01*
X14875Y9275D02*
X15375D01*
X15700D01*
D30*
X14325Y8750D02*
X14754D01*
X13925Y9150D02*
Y9550D01*
Y7937D02*
Y9150D01*
X14325Y8750D01*
X13700Y7850D02*
X13837D01*
X13925Y7937D01*
X14754Y8750D02*
X14775Y8729D01*
X13050Y12575D02*
Y12750D01*
Y12575D02*
X13575Y12050D01*
X13650D01*
Y11680D02*
Y12050D01*
X13575Y11087D02*
X13909Y11421D01*
X13575Y10900D02*
Y11087D01*
X7225Y10160D02*
X7235Y10150D01*
X13700Y7825D02*
Y7850D01*
X13650Y11680D02*
X13909Y11421D01*
D31*
X7235Y10150D02*
X7260Y10125D01*
X6660Y10725D02*
X7225Y10160D01*
X5428Y11472D02*
X5597D01*
X6345Y10725D01*
X6660D01*
X7260Y10125D02*
X9125D01*
X9650D02*
X11100D01*
X11625D02*
X13075D01*
D32*
X17825Y11725D02*
Y12375D01*
X17300Y12900D02*
X17825Y12375D01*
X17300Y12900D02*
Y13075D01*
X17275Y12125D02*
X17450D01*
X17575Y12000D01*
Y11625D02*
Y12000D01*
Y11625D02*
X17825Y11375D01*
X17300Y11575D02*
Y11675D01*
Y11575D02*
X17825Y11050D01*
Y11025D02*
Y11050D01*
X17275Y10725D02*
X17775D01*
X17825Y10675D01*
X17300Y10275D02*
X17775D01*
X17825Y10325D01*
X17300Y8875D02*
Y9000D01*
X17550Y9250D01*
Y9425D01*
X17750Y9625D01*
X17825D01*
X17275Y9325D02*
Y9450D01*
X17800Y9975D01*
X17825D01*
X17275Y7925D02*
Y8500D01*
X17825Y9050D01*
Y9275D01*
D34*
Y11375D02*
D03*
Y11025D02*
D03*
Y11725D02*
D03*
Y9625D02*
D03*
Y10675D02*
D03*
Y10325D02*
D03*
Y9975D02*
D03*
X14925Y11421D02*
D03*
X14417Y11675D02*
D03*
X14671D02*
D03*
Y11421D02*
D03*
X14417D02*
D03*
X14163Y11675D02*
D03*
X13909D02*
D03*
Y11421D02*
D03*
X14163D02*
D03*
X14925Y12546D02*
D03*
X14417Y12800D02*
D03*
X14671D02*
D03*
Y12546D02*
D03*
X14417D02*
D03*
X14163Y12800D02*
D03*
X13909D02*
D03*
Y12546D02*
D03*
X14163D02*
D03*
X12700Y12750D02*
D03*
X10850Y11975D02*
D03*
X7025Y11925D02*
D03*
X7775Y12546D02*
D03*
X7267Y12800D02*
D03*
X7521D02*
D03*
Y12546D02*
D03*
X7267D02*
D03*
X7013Y12800D02*
D03*
X6759D02*
D03*
Y12546D02*
D03*
X7013D02*
D03*
X5950Y12000D02*
D03*
Y12325D02*
D03*
X15375Y10525D02*
D03*
X13775Y10100D02*
D03*
X12425Y11550D02*
D03*
X10500D02*
D03*
X8575D02*
D03*
X6725Y11625D02*
D03*
X12650Y10325D02*
D03*
X10675D02*
D03*
X8700D02*
D03*
X6725D02*
D03*
X15375Y9025D02*
D03*
Y9775D02*
D03*
X6275Y8100D02*
D03*
X12200D02*
D03*
X10225D02*
D03*
X8250D02*
D03*
X17275Y7925D02*
D03*
X15925D02*
D03*
X17275Y9325D02*
D03*
X15925D02*
D03*
X17275Y10725D02*
D03*
X15925D02*
D03*
X17275Y12125D02*
D03*
X15925D02*
D03*
D35*
X17825Y9275D02*
D03*
D36*
X14925Y11675D02*
D03*
Y12800D02*
D03*
X13050Y12750D02*
D03*
X7775Y12800D02*
D03*
X5925Y8100D02*
D03*
X11850D02*
D03*
X9875D02*
D03*
X7900D02*
D03*
D37*
X12125Y12775D02*
D03*
X6975Y8250D02*
D03*
X12800Y8275D02*
D03*
X17875Y12975D02*
D03*
Y8025D02*
D03*
X5425Y12975D02*
D03*
D38*
X14775Y8500D02*
D03*
D39*
Y8754D02*
D03*
Y9008D02*
D03*
Y9262D02*
D03*
X13440Y8500D02*
D03*
Y8754D02*
D03*
Y9008D02*
D03*
Y9262D02*
D03*
D40*
X13925Y9550D02*
D03*
X8300Y11675D02*
D03*
X12375Y11750D02*
D03*
X13575Y10900D02*
D03*
X9175Y12825D02*
D03*
X10400Y11775D02*
D03*
X11150Y12050D02*
D03*
X10200Y12075D02*
D03*
X8525Y12800D02*
D03*
X7225Y10160D02*
D03*
X7415Y11060D02*
D03*
X7425Y11300D02*
D03*
X7225Y11550D02*
D03*
X9390Y11060D02*
D03*
X9400Y11300D02*
D03*
X9200Y11550D02*
D03*
X11175D02*
D03*
X11375Y11300D02*
D03*
X11365Y11060D02*
D03*
X9125Y10125D02*
D03*
X11100D02*
D03*
X9650D02*
D03*
X11625D02*
D03*
X13075D02*
D03*
X15950Y12700D02*
D03*
X15100Y8300D02*
D03*
X13700Y7850D02*
D03*
X13700Y8050D02*
D03*
X14825Y10675D02*
D03*
X14825Y10025D02*
D03*
X5975Y8625D02*
D03*
X6225D02*
D03*
X5350Y9050D02*
D03*
X6738Y9662D02*
D03*
X5428Y11472D02*
D03*
X5428Y11247D02*
D03*
X6675Y10900D02*
D03*
X10688Y9662D02*
D03*
X9300Y9050D02*
D03*
X10625Y10900D02*
D03*
X9925Y8625D02*
D03*
X10175D02*
D03*
X12662Y9662D02*
D03*
X11275Y9050D02*
D03*
X12600Y10900D02*
D03*
X11900Y8625D02*
D03*
X12150D02*
D03*
X8712Y9662D02*
D03*
X7325Y9050D02*
D03*
X8650Y10900D02*
D03*
X7950Y8625D02*
D03*
X8200D02*
D03*
X9665Y12740D02*
D03*
X6475Y11700D02*
D03*
X9112Y12012D02*
D03*
X15000Y7925D02*
D03*
X15550Y12675D02*
D03*
X15750Y12500D02*
D03*
X15625Y12300D02*
D03*
X14425Y12100D02*
D03*
X15950Y11775D02*
D03*
X16175Y10975D02*
D03*
Y9575D02*
D03*
Y8175D02*
D03*
X15950Y10375D02*
D03*
Y8975D02*
D03*
X17300Y13075D02*
D03*
Y11675D02*
D03*
Y10275D02*
D03*
Y8875D02*
D03*
X15850Y9125D02*
D03*
X8675Y12125D02*
D03*
M02*
