%FSLAX42Y42*%
%MOMM*%
G71*
G01*
G75*
G04 Layer_Physical_Order=1*
G04 Layer_Color=255*
%ADD10R,1.35X0.85*%
%ADD11O,2.20X0.60*%
%ADD12R,2.15X3.20*%
%ADD13R,2.15X0.70*%
%ADD14R,1.15X1.85*%
%ADD15R,1.20X1.30*%
%ADD16R,1.50X1.30*%
%ADD17R,1.50X1.15*%
%ADD18R,1.15X1.40*%
%ADD19O,0.60X2.20*%
%ADD20R,0.85X1.35*%
%ADD21R,1.35X1.85*%
%ADD22R,1.85X1.35*%
%ADD23R,1.40X1.15*%
%ADD24R,1.40X1.20*%
%ADD25R,1.10X0.60*%
%ADD26R,1.90X1.50*%
G04:AMPARAMS|DCode=27|XSize=1.9mm|YSize=1.5mm|CornerRadius=0.38mm|HoleSize=0mm|Usage=FLASHONLY|Rotation=0.000|XOffset=0mm|YOffset=0mm|HoleType=Round|Shape=RoundedRectangle|*
%AMROUNDEDRECTD27*
21,1,1.90,0.75,0,0,0.0*
21,1,1.15,1.50,0,0,0.0*
1,1,0.75,0.57,-0.38*
1,1,0.75,-0.57,-0.38*
1,1,0.75,-0.57,0.38*
1,1,0.75,0.57,0.38*
%
%ADD27ROUNDEDRECTD27*%
%ADD28R,1.50X1.75*%
%ADD29C,0.50*%
%ADD30C,0.75*%
%ADD31C,1.00*%
%ADD32C,1.30*%
%ADD33C,0.25*%
%ADD34C,1.80*%
%ADD35R,1.80X1.80*%
%ADD36R,1.80X1.80*%
%ADD37C,5.00*%
%ADD38R,2.50X1.50*%
%ADD39O,2.50X1.50*%
%ADD40C,1.30*%
D10*
X15950Y11005D02*
D03*
Y11225D02*
D03*
Y9590D02*
D03*
Y9810D02*
D03*
Y8190D02*
D03*
Y8410D02*
D03*
X5975Y8825D02*
D03*
Y9045D02*
D03*
X6225Y8825D02*
D03*
Y9045D02*
D03*
X5475Y8615D02*
D03*
Y8835D02*
D03*
X5725D02*
D03*
Y8615D02*
D03*
X6475Y8835D02*
D03*
Y8615D02*
D03*
X5675Y9700D02*
D03*
Y9920D02*
D03*
X5650Y10825D02*
D03*
Y11045D02*
D03*
X6525Y11100D02*
D03*
Y11320D02*
D03*
X12400Y8835D02*
D03*
Y8615D02*
D03*
X12150Y8825D02*
D03*
Y9045D02*
D03*
X11600Y9700D02*
D03*
Y9920D02*
D03*
X11900Y8825D02*
D03*
Y9045D02*
D03*
X11650Y8835D02*
D03*
Y8615D02*
D03*
X11400D02*
D03*
Y8835D02*
D03*
X11575Y10840D02*
D03*
Y11060D02*
D03*
X12450Y11100D02*
D03*
Y11320D02*
D03*
X10425Y8835D02*
D03*
Y8615D02*
D03*
X10175Y8825D02*
D03*
Y9045D02*
D03*
X9625Y9700D02*
D03*
Y9920D02*
D03*
X9925Y8825D02*
D03*
Y9045D02*
D03*
X9675Y8835D02*
D03*
Y8615D02*
D03*
X9425D02*
D03*
Y8835D02*
D03*
X9600Y10840D02*
D03*
Y11060D02*
D03*
X10475Y11100D02*
D03*
Y11320D02*
D03*
X8450Y8835D02*
D03*
Y8615D02*
D03*
X8200Y8825D02*
D03*
Y9045D02*
D03*
X7650Y9700D02*
D03*
Y9920D02*
D03*
X7950Y8825D02*
D03*
Y9045D02*
D03*
X7700Y8835D02*
D03*
Y8615D02*
D03*
X7450D02*
D03*
Y8835D02*
D03*
X7625Y10840D02*
D03*
Y11060D02*
D03*
X8500Y11100D02*
D03*
Y11320D02*
D03*
X8900Y12365D02*
D03*
Y12585D02*
D03*
X13250Y8035D02*
D03*
Y7815D02*
D03*
X13500Y8035D02*
D03*
Y7815D02*
D03*
X15100Y9210D02*
D03*
Y8990D02*
D03*
Y9390D02*
D03*
Y9610D02*
D03*
X15950Y8810D02*
D03*
Y8590D02*
D03*
Y10210D02*
D03*
Y9990D02*
D03*
Y11625D02*
D03*
Y11405D02*
D03*
X15700Y12865D02*
D03*
Y13085D02*
D03*
X15950Y12865D02*
D03*
Y13085D02*
D03*
X15100Y10860D02*
D03*
Y10640D02*
D03*
D11*
X14185Y8190D02*
D03*
Y8064D02*
D03*
Y7936D02*
D03*
Y7810D02*
D03*
X14665Y8190D02*
D03*
Y8064D02*
D03*
Y7936D02*
D03*
Y7810D02*
D03*
X9665Y12185D02*
D03*
Y12311D02*
D03*
Y12439D02*
D03*
Y12565D02*
D03*
X9185Y12185D02*
D03*
Y12311D02*
D03*
Y12439D02*
D03*
Y12565D02*
D03*
D12*
X14802Y10350D02*
D03*
D13*
X14198Y10604D02*
D03*
Y10477D02*
D03*
Y10350D02*
D03*
Y10223D02*
D03*
Y10096D02*
D03*
D14*
Y10875D02*
D03*
X14502D02*
D03*
X14198Y9825D02*
D03*
X14502D02*
D03*
D15*
X13970Y10900D02*
D03*
X13780D02*
D03*
D16*
X8725Y12788D02*
D03*
Y12962D02*
D03*
X6525Y9662D02*
D03*
Y9838D02*
D03*
X6950Y9662D02*
D03*
Y9838D02*
D03*
X5650Y11272D02*
D03*
Y11447D02*
D03*
X11575Y11272D02*
D03*
Y11447D02*
D03*
X12450Y9662D02*
D03*
Y9838D02*
D03*
X12875Y9662D02*
D03*
Y9838D02*
D03*
X9600Y11272D02*
D03*
Y11447D02*
D03*
X10475Y9662D02*
D03*
Y9838D02*
D03*
X10900Y9662D02*
D03*
Y9838D02*
D03*
X7625Y11272D02*
D03*
Y11447D02*
D03*
X8500Y9662D02*
D03*
Y9838D02*
D03*
X8925Y9662D02*
D03*
Y9838D02*
D03*
X8900Y11988D02*
D03*
Y12162D02*
D03*
X10197Y12238D02*
D03*
Y12412D02*
D03*
X10447Y12238D02*
D03*
Y12412D02*
D03*
X11150Y12238D02*
D03*
Y12412D02*
D03*
X11400Y12238D02*
D03*
Y12412D02*
D03*
X15100Y8512D02*
D03*
Y8688D02*
D03*
X15350Y8512D02*
D03*
Y8688D02*
D03*
X13900Y8012D02*
D03*
Y7837D02*
D03*
D17*
X8975Y12780D02*
D03*
Y12970D02*
D03*
D18*
X5560Y9050D02*
D03*
X5740D02*
D03*
X6460D02*
D03*
X6640D02*
D03*
X6010Y9285D02*
D03*
X6190D02*
D03*
X12385Y9050D02*
D03*
X12565D02*
D03*
X11935Y9285D02*
D03*
X12115D02*
D03*
X11485Y9050D02*
D03*
X11665D02*
D03*
X10410D02*
D03*
X10590D02*
D03*
X9960Y9285D02*
D03*
X10140D02*
D03*
X9510Y9050D02*
D03*
X9690D02*
D03*
X8435D02*
D03*
X8615D02*
D03*
X7985Y9285D02*
D03*
X8165D02*
D03*
X7535Y9050D02*
D03*
X7715D02*
D03*
D19*
X5910Y9570D02*
D03*
X6037D02*
D03*
X6163D02*
D03*
X6290D02*
D03*
X5910Y10050D02*
D03*
X6037D02*
D03*
X6163D02*
D03*
X6290D02*
D03*
X5910Y10870D02*
D03*
X6037D02*
D03*
X6163D02*
D03*
X6290D02*
D03*
X5910Y11350D02*
D03*
X6037D02*
D03*
X6163D02*
D03*
X6290D02*
D03*
X11835Y10870D02*
D03*
X11961D02*
D03*
X12089D02*
D03*
X12215D02*
D03*
X11835Y11350D02*
D03*
X11961D02*
D03*
X12089D02*
D03*
X12215D02*
D03*
X11835Y9570D02*
D03*
X11961D02*
D03*
X12089D02*
D03*
X12215D02*
D03*
X11835Y10050D02*
D03*
X11961D02*
D03*
X12089D02*
D03*
X12215D02*
D03*
X9860Y10870D02*
D03*
X9986D02*
D03*
X10114D02*
D03*
X10240D02*
D03*
X9860Y11350D02*
D03*
X9986D02*
D03*
X10114D02*
D03*
X10240D02*
D03*
X9860Y9570D02*
D03*
X9986D02*
D03*
X10114D02*
D03*
X10240D02*
D03*
X9860Y10050D02*
D03*
X9986D02*
D03*
X10114D02*
D03*
X10240D02*
D03*
X7885Y10870D02*
D03*
X8011D02*
D03*
X8139D02*
D03*
X8265D02*
D03*
X7885Y11350D02*
D03*
X8011D02*
D03*
X8139D02*
D03*
X8265D02*
D03*
X7885Y9570D02*
D03*
X8011D02*
D03*
X8139D02*
D03*
X8265D02*
D03*
X7885Y10050D02*
D03*
X8011D02*
D03*
X8139D02*
D03*
X8265D02*
D03*
D20*
X6160Y10335D02*
D03*
X5940D02*
D03*
Y10585D02*
D03*
X6160D02*
D03*
X6040Y11700D02*
D03*
X6260D02*
D03*
X12085Y10335D02*
D03*
X11865D02*
D03*
Y10585D02*
D03*
X12085D02*
D03*
X11965Y11700D02*
D03*
X12185D02*
D03*
X10110Y10335D02*
D03*
X9890D02*
D03*
Y10585D02*
D03*
X10110D02*
D03*
X9990Y11700D02*
D03*
X10210D02*
D03*
X8135Y10335D02*
D03*
X7915D02*
D03*
Y10585D02*
D03*
X8135D02*
D03*
X7915Y11700D02*
D03*
X8135D02*
D03*
D21*
X6432Y10600D02*
D03*
X6718D02*
D03*
X5408Y11725D02*
D03*
X5692D02*
D03*
X11332D02*
D03*
X11617D02*
D03*
X12357Y10600D02*
D03*
X12643D02*
D03*
X9357Y11725D02*
D03*
X9643D02*
D03*
X10382Y10600D02*
D03*
X10668D02*
D03*
X7382Y11725D02*
D03*
X7668D02*
D03*
X8407Y10600D02*
D03*
X8693D02*
D03*
D22*
X5650Y10318D02*
D03*
Y10603D02*
D03*
X11575Y10357D02*
D03*
Y10643D02*
D03*
X9600Y10357D02*
D03*
Y10643D02*
D03*
X7625Y10318D02*
D03*
Y10603D02*
D03*
D23*
X6775Y11135D02*
D03*
Y11315D02*
D03*
X12700Y11135D02*
D03*
Y11315D02*
D03*
X10725Y11135D02*
D03*
Y11315D02*
D03*
X8750Y11135D02*
D03*
Y11315D02*
D03*
D24*
X9950Y12630D02*
D03*
Y12820D02*
D03*
X9950Y12230D02*
D03*
Y12420D02*
D03*
D25*
X10920Y12255D02*
D03*
Y12350D02*
D03*
Y12445D02*
D03*
X10680D02*
D03*
Y12350D02*
D03*
Y12255D02*
D03*
D26*
X16250Y8875D02*
D03*
Y10275D02*
D03*
Y11675D02*
D03*
Y13075D02*
D03*
D27*
Y8621D02*
D03*
Y8367D02*
D03*
X17080Y8875D02*
D03*
Y8621D02*
D03*
Y8367D02*
D03*
X16250Y10021D02*
D03*
Y9767D02*
D03*
X17080Y10275D02*
D03*
Y10021D02*
D03*
Y9767D02*
D03*
X16250Y11421D02*
D03*
Y11167D02*
D03*
X17080Y11675D02*
D03*
Y11421D02*
D03*
Y11167D02*
D03*
X16250Y12821D02*
D03*
Y12567D02*
D03*
X17080Y13075D02*
D03*
Y12821D02*
D03*
Y12567D02*
D03*
D28*
X15100Y10438D02*
D03*
Y10062D02*
D03*
D29*
X15265Y9775D02*
X15375D01*
X15100Y9610D02*
X15265Y9775D01*
X7845Y9925D02*
X7885Y9964D01*
X7650Y9925D02*
X7845D01*
X5950Y12325D02*
X7875D01*
X14990Y8190D02*
X15100Y8300D01*
X14665Y8190D02*
X14990D01*
X15025Y7925D02*
X15025Y7925D01*
X15175D01*
X14565Y7936D02*
X14686D01*
X14950Y8075D02*
X15150D01*
X14812Y7936D02*
X14950Y8075D01*
X14665Y7936D02*
X14812D01*
X15230Y7805D02*
X15775Y8350D01*
X14670Y7805D02*
X15230D01*
X14665Y7810D02*
X14670Y7805D01*
X13900Y7809D02*
X14085D01*
X12375Y11750D02*
X12425Y11700D01*
Y11550D02*
Y11700D01*
X10400Y11650D02*
X10500Y11550D01*
X10400Y11650D02*
Y11775D01*
X8135Y11700D02*
X8300D01*
X8450Y11550D01*
X8575D01*
X6650Y11700D02*
X6725Y11625D01*
X6475Y11700D02*
X6650D01*
X10680Y12120D02*
X10800Y12000D01*
X10680Y12120D02*
Y12255D01*
X7775Y12800D02*
X7950Y12625D01*
Y12400D02*
Y12625D01*
X7875Y12325D02*
X7950Y12400D01*
X12325Y11700D02*
X12375Y11750D01*
X12185Y11700D02*
X12325D01*
X15550Y9025D02*
X15575Y9050D01*
X15375Y9025D02*
X15550D01*
X15575Y8850D02*
Y9050D01*
X9185Y12635D02*
X9425Y12875D01*
X9750D01*
X10325Y11700D02*
X10400Y11775D01*
X10210Y11700D02*
X10325D01*
X10197Y12412D02*
X10447D01*
X10538D01*
X10600Y12350D01*
X10680D01*
X8525Y12800D02*
X8538Y12788D01*
X8725D01*
X7625Y11060D02*
X7735D01*
X7775Y11100D01*
X8500D01*
X7415Y11060D02*
X7625D01*
X7225Y11550D02*
Y11675D01*
X7275Y11725D01*
X7382D01*
X9390Y11060D02*
X9600D01*
X9200Y11550D02*
Y11675D01*
X9250Y11725D01*
X9357D01*
X11225D02*
X11332D01*
X11175Y11675D02*
X11225Y11725D01*
X11175Y11550D02*
Y11675D01*
X11175Y11550D02*
X11175Y11550D01*
X11365Y11060D02*
X11575D01*
X6715Y10335D02*
X6725Y10325D01*
X6160Y10335D02*
X6715D01*
X6415Y10585D02*
X6425Y10575D01*
X6160Y10585D02*
X6415D01*
X8690Y10335D02*
X8700Y10325D01*
X8135Y10335D02*
X8690D01*
X8390Y10585D02*
X8400Y10575D01*
X8135Y10585D02*
X8390D01*
X9750Y11100D02*
X10475D01*
X9710Y11060D02*
X9750Y11100D01*
X9600Y11060D02*
X9710D01*
X10665Y10335D02*
X10675Y10325D01*
X10110Y10335D02*
X10665D01*
X9625Y9920D02*
X9820D01*
X9860Y9960D01*
X11835D02*
Y10050D01*
X11795Y9920D02*
X11835Y9960D01*
X11600Y9920D02*
X11795D01*
X12615Y10335D02*
X12650Y10300D01*
X12085Y10335D02*
X12615D01*
X11575Y11060D02*
X11685D01*
X11725Y11100D01*
X12450D01*
X15700Y13085D02*
X15950D01*
X16240D02*
X16250Y13075D01*
X15950Y13085D02*
X16240D01*
X15950Y11225D02*
Y11405D01*
X16240Y10265D02*
X16250Y10275D01*
X16240Y8865D02*
X16250Y8875D01*
X15950Y8410D02*
Y8590D01*
X14076Y8300D02*
X14185Y8190D01*
X13450Y8300D02*
X14076D01*
X13250Y8100D02*
X13450Y8300D01*
X13250Y8035D02*
Y8100D01*
X14086Y8064D02*
X14185D01*
X13950Y8200D02*
X14086Y8064D01*
X13650Y8200D02*
X13950D01*
X13500Y8050D02*
X13650Y8200D01*
X13500Y8035D02*
Y8050D01*
X13900Y7975D02*
X14023D01*
X14061Y7936D01*
X14185D01*
X14000Y9825D02*
X14025D01*
X14198Y10350D02*
X14802D01*
X7693Y11700D02*
X7915D01*
Y11585D02*
Y11700D01*
Y11585D02*
X8011Y11489D01*
Y11350D02*
Y11489D01*
X8900Y12585D02*
Y12625D01*
X8975Y12700D01*
Y12780D01*
X8900Y12365D02*
X9010D01*
X9064Y12311D01*
X9185D01*
X8725Y12788D02*
X8968D01*
X6010Y9060D02*
Y9285D01*
X6190Y9080D02*
Y9285D01*
X6037Y9311D02*
Y9570D01*
X6010Y9285D02*
X6037Y9311D01*
X6163Y9311D02*
Y9570D01*
Y9311D02*
X6190Y9285D01*
X5745Y9045D02*
X5975D01*
X5740Y9050D02*
X5745Y9045D01*
X6225D02*
X6455D01*
X6460Y9050D01*
X5675Y9625D02*
Y9700D01*
Y9625D02*
X5700Y9600D01*
X5900D01*
X5675Y9920D02*
Y10000D01*
X5700Y10025D01*
X5900D01*
X6037Y9864D02*
Y10050D01*
Y9864D02*
X6075Y9825D01*
X6500D01*
X5975Y8625D02*
Y8825D01*
X6225Y8625D02*
Y8825D01*
X5750D02*
X5975D01*
X5475Y8835D02*
X5725D01*
X6225Y8825D02*
X6450D01*
X6160Y10054D02*
X6163Y10050D01*
X5667Y10335D02*
X5940D01*
X5650Y10318D02*
X5667Y10335D01*
X5940D02*
Y10585D01*
X6163Y10589D02*
Y10870D01*
X6160Y10585D02*
X6163Y10589D01*
Y10050D02*
Y10332D01*
X6160Y10335D02*
X6163Y10332D01*
X5910Y10870D02*
X6037D01*
X5650Y10825D02*
X5775D01*
X5820Y10870D01*
X5910D01*
X5650Y10603D02*
Y10825D01*
X5355Y11045D02*
X5650D01*
X5250Y11150D02*
X5355Y11045D01*
X5250Y11150D02*
Y11525D01*
X5435Y11710D01*
X5650Y11045D02*
X5720D01*
X5775Y11100D01*
X6525D01*
X6290Y11350D02*
X6400D01*
X6430Y11320D01*
X6525D01*
X6037Y11350D02*
X6163D01*
X6525Y11320D02*
X6770D01*
X6775Y11315D01*
X9986Y9864D02*
X10025Y9825D01*
X10450D01*
X9986Y9864D02*
Y10050D01*
X10175Y9045D02*
X10405D01*
X10410Y9050D01*
X9960Y9060D02*
Y9285D01*
X9986Y9311D01*
Y9570D01*
X10114Y9311D02*
X10140Y9285D01*
X10114Y9311D02*
Y9570D01*
X10140Y9080D02*
Y9285D01*
X9690Y9050D02*
X9695Y9045D01*
X9925D01*
X9600Y10318D02*
X9617Y10335D01*
X9890D01*
X9600Y10603D02*
Y10825D01*
X10365Y10585D02*
X10375Y10575D01*
X10110Y10585D02*
X10365D01*
X10475Y11320D02*
X10720D01*
X10725Y11315D01*
X9925Y8625D02*
Y8825D01*
X10175Y8625D02*
Y8825D01*
X10400D01*
X9625Y9625D02*
X9650Y9600D01*
X9625Y9625D02*
Y9700D01*
X9650Y9600D02*
X9850D01*
X9700Y8825D02*
X9925D01*
X9425Y8835D02*
X9675D01*
X10110Y10335D02*
X10114Y10332D01*
Y10050D02*
Y10332D01*
X9890Y10335D02*
Y10585D01*
X10110D02*
X10114Y10589D01*
Y10870D01*
X9600Y10825D02*
X9725D01*
X9770Y10870D01*
X9860D01*
X10350Y11350D02*
X10380Y11320D01*
X10240Y11350D02*
X10350D01*
X10380Y11320D02*
X10475D01*
X9860Y10870D02*
X9986D01*
Y11350D02*
X10114D01*
X10110Y10054D02*
X10114Y10050D01*
X12000Y9825D02*
X12425D01*
X11961Y9864D02*
Y10050D01*
Y9864D02*
X12000Y9825D01*
X12150Y9045D02*
X12380D01*
X12385Y9050D01*
X11935Y9060D02*
Y9285D01*
X11961Y9311D01*
Y9570D01*
X12089Y9311D02*
X12115Y9285D01*
X12089Y9311D02*
Y9570D01*
X12115Y9080D02*
Y9285D01*
X11665Y9050D02*
X11670Y9045D01*
X11900D01*
X11575Y10318D02*
X11592Y10335D01*
X11865D01*
X11575Y10603D02*
Y10825D01*
X12085Y10585D02*
X12340D01*
X12350Y10575D01*
X12450Y11320D02*
X12695D01*
X12700Y11315D01*
X11900Y8625D02*
Y8825D01*
X12150Y8625D02*
Y8825D01*
X12375D01*
X11600Y9625D02*
X11625Y9600D01*
X11600Y9625D02*
Y9700D01*
X11625Y9600D02*
X11825D01*
X11675Y8825D02*
X11900D01*
X11400Y8835D02*
X11650D01*
X12085Y10335D02*
X12089Y10332D01*
Y10050D02*
Y10332D01*
X11865Y10335D02*
Y10585D01*
X12089Y10589D02*
Y10870D01*
X12085Y10585D02*
X12089Y10589D01*
X11575Y10825D02*
X11700D01*
X11745Y10870D01*
X11835D01*
X12325Y11350D02*
X12355Y11320D01*
X12215Y11350D02*
X12325D01*
X12355Y11320D02*
X12450D01*
X11835Y10870D02*
X11961D01*
X12085Y10054D02*
X12089Y10050D01*
X8011Y9864D02*
X8050Y9825D01*
X8011Y9864D02*
Y10050D01*
X8050Y9825D02*
X8475D01*
X8200Y9045D02*
X8430D01*
X8435Y9050D01*
X7985Y9060D02*
Y9285D01*
X8011Y9311D01*
Y9570D01*
X8139Y9311D02*
X8165Y9285D01*
X8139Y9311D02*
Y9570D01*
X8165Y9080D02*
Y9285D01*
X7715Y9050D02*
X7720Y9045D01*
X7950D01*
X7625Y10318D02*
X7643Y10335D01*
X7915D01*
X7625Y10603D02*
Y10825D01*
X8500Y11320D02*
X8745D01*
X8750Y11315D01*
X7950Y8625D02*
Y8825D01*
X8200Y8625D02*
Y8825D01*
X8425D01*
X7650Y9625D02*
X7675Y9600D01*
X7650Y9625D02*
Y9700D01*
X7675Y9600D02*
X7875D01*
X7725Y8825D02*
X7950D01*
X7450Y8835D02*
X7700D01*
X8135Y10335D02*
X8139Y10332D01*
Y10050D02*
Y10332D01*
X7915Y10335D02*
Y10585D01*
X8139Y10589D02*
Y10870D01*
X8135Y10585D02*
X8139Y10589D01*
X7625Y10825D02*
X7750D01*
X7795Y10870D01*
X7885D01*
X8375Y11350D02*
X8405Y11320D01*
X8265Y11350D02*
X8375D01*
X8405Y11320D02*
X8500D01*
X7885Y10870D02*
X8011D01*
X8135Y10054D02*
X8139Y10050D01*
X10920Y12445D02*
X11005D01*
X11037Y12412D01*
X11150D01*
X11037Y12238D02*
X11150D01*
X11025Y12250D02*
X11037Y12238D01*
X10925Y12250D02*
X11025D01*
X10920Y12255D02*
X10925Y12250D01*
X10920Y12255D02*
Y12350D01*
X10680Y12445D02*
X10920D01*
X10680Y12255D02*
Y12350D01*
X9665Y12439D02*
X9931D01*
X9950Y12420D01*
Y12630D01*
X9950Y12630D01*
X9805Y12820D02*
X9950D01*
X9750Y12875D02*
X9805Y12820D01*
X9185Y12565D02*
Y12635D01*
X10200Y12362D02*
Y12700D01*
X10080Y12820D02*
X10200Y12700D01*
X9950Y12820D02*
X10080D01*
X8903Y12185D02*
X9185D01*
X8900Y12188D02*
X8903Y12185D01*
X9185Y12311D02*
Y12439D01*
X9665Y12185D02*
Y12311D01*
X6260Y11700D02*
X6475D01*
X6037Y11350D02*
Y11696D01*
X6040Y11700D01*
X5717D02*
X6040D01*
X5692Y11725D02*
X5717Y11700D01*
X8011Y11350D02*
X8139D01*
X7668Y11725D02*
X7693Y11700D01*
X9986Y11350D02*
Y11696D01*
X9990Y11700D01*
X9668D02*
X9990D01*
X9643Y11725D02*
X9668Y11700D01*
X11961Y11350D02*
Y11696D01*
X11965Y11700D01*
X11961Y11350D02*
X12089D01*
X11643Y11700D02*
X11965D01*
X11617Y11725D02*
X11643Y11700D01*
X14000Y9825D02*
X14000Y9825D01*
X15150Y8075D02*
X15575Y8500D01*
X14775Y8983D02*
X14842D01*
X14975Y8850D01*
X15550Y12425D02*
Y12675D01*
X15175Y7925D02*
X15675Y8425D01*
X15340Y12865D02*
X15700D01*
X15150Y12675D02*
X15340Y12865D01*
X15150Y12275D02*
Y12675D01*
X14975Y12100D02*
X15150Y12275D01*
X14425Y12100D02*
X14975D01*
X15750Y12500D02*
X15775Y12475D01*
X15950Y11405D02*
Y11445D01*
X16188Y11675D02*
X16250D01*
X15950Y11775D02*
Y11800D01*
Y11445D02*
X16012Y11507D01*
X16082D01*
X16250Y11675D01*
X15950Y11625D02*
Y11775D01*
Y9810D02*
Y9990D01*
X16082Y10107D02*
X16250Y10275D01*
X16012Y10107D02*
X16082D01*
X15950Y10045D02*
X16012Y10107D01*
X15950Y10005D02*
Y10045D01*
X16082Y8707D02*
X16250Y8875D01*
X16012Y8707D02*
X16082D01*
X15950Y8645D02*
X16012Y8707D01*
X15950Y8605D02*
Y8645D01*
Y10210D02*
Y10375D01*
Y8810D02*
Y8975D01*
X14975Y8850D02*
X15125D01*
Y8990D01*
X15675Y8425D02*
Y12250D01*
X15625Y12300D02*
X15675Y12250D01*
X15475Y12250D02*
X15575Y12150D01*
X15475Y12250D02*
Y12350D01*
X15550Y12425D01*
X15125Y8850D02*
X15575D01*
Y8500D02*
Y8850D01*
X15775Y8350D02*
Y12475D01*
X15575Y9050D02*
Y12150D01*
X14665Y8064D02*
Y8190D01*
D30*
X13925Y9800D02*
X14175Y9550D01*
X13900Y9825D02*
X13925Y9800D01*
Y9550D02*
Y9800D01*
X14775Y8754D02*
X14841Y8688D01*
X15100D01*
X14775Y8500D02*
X14788Y8512D01*
X15100D01*
X13075Y9200D02*
Y9850D01*
X12490Y8615D02*
X13075Y9200D01*
X12400Y8615D02*
X12490D01*
X6675Y10900D02*
X6718Y10857D01*
Y10600D02*
Y10857D01*
X8650Y10900D02*
X8693Y10857D01*
Y10600D02*
Y10857D01*
X10625Y10900D02*
X10668Y10857D01*
Y10600D02*
Y10857D01*
X12600Y10900D02*
X12643Y10857D01*
Y10600D02*
Y10857D01*
X10925Y11775D02*
X11100D01*
X10700D02*
X10925D01*
X10925Y11775D02*
X10925Y11775D01*
X10925Y10200D02*
Y11775D01*
X10550Y11925D02*
X10700Y11775D01*
X11100D02*
X11250Y11925D01*
X9675D02*
X10550D01*
X7000D02*
X7275D01*
X8950Y11800D02*
X9150D01*
X8950Y10200D02*
Y11800D01*
X8475D02*
X8950D01*
X8350Y11925D02*
X8475Y11800D01*
X12900Y10200D02*
Y11575D01*
X12550Y11925D02*
X12900Y11575D01*
X13775Y9950D02*
X13900Y9825D01*
X13775Y9950D02*
Y10100D01*
X15100Y10438D02*
Y10640D01*
X14725Y9550D02*
X14850D01*
X14725D02*
X15100Y9925D01*
Y10062D01*
X13575Y10900D02*
X13575Y10900D01*
X13780D01*
X9055Y12970D02*
X9175Y12850D01*
Y12825D02*
Y12850D01*
X10197Y12078D02*
X10200Y12075D01*
X10197Y12078D02*
Y12238D01*
X9950Y12230D02*
X9957Y12238D01*
X10197D01*
X11150Y12050D02*
Y12238D01*
X11100Y10125D02*
X11100Y10125D01*
X11100Y9775D02*
Y10125D01*
X9125D02*
X9125Y10125D01*
X9125Y9775D02*
Y10125D01*
X7150Y10085D02*
X7225Y10160D01*
X7150Y9775D02*
Y10085D01*
X8975Y12970D02*
X9055D01*
X13075Y9850D02*
Y10125D01*
X13062Y9838D02*
X13075Y9850D01*
X12875Y9838D02*
X13062D01*
X7347Y11447D02*
X7625D01*
X7225Y11325D02*
X7347Y11447D01*
X7225Y10160D02*
Y11325D01*
X7478Y11272D02*
X7625D01*
X7450Y11300D02*
X7478Y11272D01*
X9322Y11447D02*
X9600D01*
X9200Y11325D02*
X9322Y11447D01*
X9200Y10200D02*
Y11325D01*
X9125Y10125D02*
X9200Y10200D01*
X9453Y11272D02*
X9600D01*
X9425Y11300D02*
X9453Y11272D01*
X11375Y11300D02*
X11400D01*
X11428Y11272D01*
X11575D01*
X11100Y10125D02*
X11175Y10200D01*
Y11325D01*
X11297Y11447D01*
X11575D01*
X5428Y11472D02*
X5650D01*
X15950Y12700D02*
Y12865D01*
X16104Y12821D02*
X16250D01*
X16060Y12865D02*
X16104Y12821D01*
X15950Y12865D02*
X16060D01*
X16196Y11421D02*
X16250D01*
X16196Y10021D02*
X16250D01*
X16196Y8621D02*
X16250D01*
X15100Y8300D02*
Y8512D01*
X13250Y7815D02*
X13500D01*
X13665D02*
X13700Y7850D01*
X13500Y7815D02*
X13665D01*
X13700Y8050D02*
X13750D01*
X13787Y8012D01*
X13900D01*
X13700Y7850D02*
X13712Y7837D01*
X13900D01*
X11250Y11925D02*
X12550D01*
X14802Y10350D02*
X14825Y10372D01*
Y10675D01*
Y10750D01*
X14700Y10875D02*
X14825Y10750D01*
X14502Y10875D02*
X14700D01*
X14825Y10025D02*
Y10050D01*
Y9950D02*
Y10025D01*
X14825D01*
X14800D02*
X14825D01*
X14802Y10350D02*
X14825Y10328D01*
Y10025D02*
Y10328D01*
X14700Y9825D02*
X14825Y9950D01*
X14502Y9825D02*
X14700D01*
X14198D02*
Y10096D01*
X14173Y10900D02*
X14198Y10875D01*
Y10604D02*
Y10875D01*
Y10096D02*
Y10200D01*
Y10500D02*
Y10604D01*
X7275Y11925D02*
X8350D01*
X8968Y12962D02*
X8975Y12970D01*
X8725Y12962D02*
X8968D01*
X5375Y9050D02*
X5560D01*
X5335Y8615D02*
X5475D01*
X5300Y8650D02*
X5335Y8615D01*
X5300Y8650D02*
Y8975D01*
X5350Y9025D01*
Y9050D01*
X5725Y8500D02*
Y8615D01*
Y8500D02*
X5775Y8450D01*
X6425D01*
X6475Y8500D01*
Y8615D01*
X6525Y9662D02*
X6738D01*
X6525Y9838D02*
X6875D01*
X5650Y11447D02*
X5678Y11450D01*
X5428Y11247D02*
X5650D01*
Y11447D02*
X5812D01*
X5900Y11360D01*
X6775Y11000D02*
Y11135D01*
X6305Y10870D02*
X6645D01*
X6675Y10900D02*
X6775Y11000D01*
X6320Y9570D02*
X6412Y9662D01*
X6525D01*
X6640Y9050D02*
Y9340D01*
X6738Y9438D01*
Y9662D01*
X9762Y11447D02*
X9850Y11360D01*
X9600Y11447D02*
X9762D01*
X10270Y9570D02*
X10362Y9662D01*
X10590Y9050D02*
Y9340D01*
X10688Y9438D01*
Y9662D01*
X10362D02*
X10475D01*
X10688D01*
X10475Y9838D02*
X10825D01*
X9250Y8650D02*
X9285Y8615D01*
X9425D01*
X9250Y8650D02*
Y8975D01*
X9300Y9025D01*
Y9050D01*
X9325D02*
X9510D01*
X10255Y10870D02*
X10595D01*
X10625Y10900D02*
X10725Y11000D01*
Y11135D01*
X9675Y8500D02*
X9725Y8450D01*
X9675Y8500D02*
Y8615D01*
X10375Y8450D02*
X10425Y8500D01*
X9725Y8450D02*
X10375D01*
X10425Y8500D02*
Y8615D01*
X9575Y11247D02*
X9600Y11272D01*
X11550Y11247D02*
X11575Y11272D01*
X11575Y11447D02*
X11737D01*
X11825Y11360D01*
X12245Y9570D02*
X12338Y9662D01*
X12565Y9050D02*
Y9340D01*
X12662Y9438D01*
Y9662D01*
X12338D02*
X12450D01*
X12662D01*
X12450Y9838D02*
X12800D01*
X11225Y8650D02*
X11260Y8615D01*
X11225Y8650D02*
Y8975D01*
X11275Y9025D01*
X11260Y8615D02*
X11400D01*
X11275Y9025D02*
Y9050D01*
X11300D02*
X11485D01*
X12230Y10870D02*
X12570D01*
X12600Y10900D02*
X12700Y11000D01*
Y11135D01*
X11650Y8500D02*
Y8615D01*
X11700Y8450D02*
X12350D01*
X11650Y8500D02*
X11700Y8450D01*
X12400Y8500D02*
Y8615D01*
X12350Y8450D02*
X12400Y8500D01*
X7600Y11247D02*
X7625Y11272D01*
X7625Y11447D02*
X7787D01*
X7875Y11360D01*
X8388Y9662D02*
X8500D01*
X8615Y9050D02*
Y9340D01*
X8712Y9438D01*
X8295Y9570D02*
X8388Y9662D01*
X8500D02*
X8712D01*
Y9438D02*
Y9662D01*
X8500Y9838D02*
X8850D01*
X7275Y8650D02*
Y8975D01*
X7310Y8615D02*
X7450D01*
X7275Y8650D02*
X7310Y8615D01*
X7275Y8975D02*
X7325Y9025D01*
Y9050D01*
X7350D02*
X7535D01*
X8280Y10870D02*
X8620D01*
X8650Y10900D02*
X8750Y11000D01*
Y11135D01*
X7700Y8500D02*
X7750Y8450D01*
X8400D01*
X7700Y8500D02*
Y8615D01*
X8450Y8500D02*
Y8615D01*
X8400Y8450D02*
X8450Y8500D01*
X11150Y12412D02*
X11400D01*
X11150Y12238D02*
X11400D01*
X10197Y12238D02*
X10447D01*
X9665Y12575D02*
Y12740D01*
X6950Y9838D02*
X7087D01*
X7150Y9775D01*
Y9125D02*
Y9775D01*
X6640Y8615D02*
X7150Y9125D01*
X6475Y8615D02*
X6640D01*
X6738Y9662D02*
X6950D01*
Y9838D02*
Y9925D01*
X6315Y10025D02*
X6800D01*
X6975Y10200D01*
X8925Y9838D02*
Y9925D01*
X10900Y9838D02*
Y9925D01*
X8775Y10025D02*
X8950Y10200D01*
X8290Y10025D02*
X8775D01*
X10265D02*
X10750D01*
X12725D02*
X12900Y10200D01*
X12240Y10025D02*
X12725D01*
X6975Y10200D02*
Y11625D01*
X7275Y11925D01*
X9150Y11800D02*
X9275Y11925D01*
X10750Y10025D02*
X10925Y10200D01*
X12900D02*
Y11450D01*
X8900Y12012D02*
X9112D01*
X9665Y11935D02*
Y12185D01*
Y11935D02*
X9675Y11925D01*
X9275D02*
X9675D01*
X13970Y10900D02*
X14173D01*
X15100Y8688D02*
X15350D01*
X15100Y8512D02*
X15350D01*
X16250Y11421D02*
X16354D01*
X16450Y11325D01*
Y11075D02*
Y11325D01*
X16350Y10975D02*
X16450Y11075D01*
X16175Y10975D02*
X16350D01*
X15950Y11005D02*
X16145D01*
X16175Y10975D01*
Y9575D02*
X16350D01*
X16450Y9675D01*
Y9925D01*
X16354Y10021D02*
X16450Y9925D01*
X16250Y10021D02*
X16354D01*
X15950Y9590D02*
X16160D01*
X16175Y9575D01*
Y8175D02*
X16350D01*
X16450Y8275D01*
Y8525D01*
X16354Y8621D02*
X16450Y8525D01*
X16250Y8621D02*
X16354D01*
X15950Y8190D02*
X16160D01*
X16175Y8175D01*
X14175Y9550D02*
X14725D01*
X15010Y10860D02*
X15100D01*
X14825Y10675D02*
X15010Y10860D01*
X8712Y9662D02*
X8925D01*
X10688D02*
X10900D01*
X12662D02*
X12875D01*
X14850Y9550D02*
X15010Y9390D01*
X15100Y9235D02*
X15125Y9210D01*
X15100Y9235D02*
Y9390D01*
X15010D02*
X15100D01*
X8812Y12162D02*
X8900D01*
X8775Y12125D02*
X8812Y12162D01*
X8675Y12125D02*
X8775D01*
X8450Y8615D02*
X8615D01*
X9125Y9125D01*
Y9775D01*
X9062Y9838D02*
X9125Y9775D01*
X8925Y9838D02*
X9062D01*
X10425Y8615D02*
X10590D01*
X11100Y9125D01*
Y9775D01*
X11037Y9838D02*
X11100Y9775D01*
X10900Y9838D02*
X11037D01*
D31*
X13073Y10127D02*
Y11653D01*
X12325Y12400D02*
X13073Y11653D01*
X11700Y12400D02*
X12325D01*
X13900Y9825D02*
X14000D01*
X13375D02*
X13900D01*
X13075Y10125D02*
X13375Y9825D01*
X8550Y12125D02*
X8675D01*
X8325Y12350D02*
X8550Y12125D01*
X8325Y12350D02*
Y12900D01*
X8575Y13150D01*
X9150D01*
X9300Y13000D01*
X11412Y12400D02*
X11700D01*
X11500Y12600D02*
X11700Y12400D01*
X10500Y12600D02*
X11500D01*
X10100Y13000D02*
X10500Y12600D01*
X9300Y13000D02*
X10100D01*
X13073Y10127D02*
X13075Y10125D01*
X11100Y10125D02*
X11625D01*
X9125D02*
X9650D01*
X14025Y9825D02*
X14198D01*
X14000Y9825D02*
X14025D01*
X11400Y12412D02*
X11412Y12400D01*
D32*
X15925Y7925D02*
X16700D01*
X16825Y8050D01*
Y8825D01*
X16875Y8875D01*
X17080D01*
X17125Y7925D02*
X17275D01*
X17080Y7970D02*
X17125Y7925D01*
X17080Y7970D02*
Y8367D01*
Y9370D02*
Y9767D01*
Y9370D02*
X17125Y9325D01*
X17275D01*
X16875Y10275D02*
X17080D01*
X16825Y10225D02*
X16875Y10275D01*
X16825Y9450D02*
Y10225D01*
X16700Y9325D02*
X16825Y9450D01*
X15925Y9325D02*
X16700D01*
X17080Y10770D02*
Y11167D01*
Y10770D02*
X17125Y10725D01*
X17275D01*
X16875Y11675D02*
X17080D01*
X16825Y11625D02*
X16875Y11675D01*
X16825Y10850D02*
Y11625D01*
X16700Y10725D02*
X16825Y10850D01*
X15925Y10725D02*
X16700D01*
X17080Y12170D02*
Y12567D01*
Y12170D02*
X17125Y12125D01*
X17275D01*
X16875Y13075D02*
X17080D01*
X16825Y13025D02*
X16875Y13075D01*
X16825Y12250D02*
Y13025D01*
X16700Y12125D02*
X16825Y12250D01*
X15925Y12125D02*
X16700D01*
X17080Y13075D02*
X17300D01*
X17080Y11675D02*
X17300D01*
X17080Y10275D02*
X17300D01*
X17080Y8875D02*
X17300D01*
D33*
X14450Y7750D02*
Y7775D01*
X14475D01*
Y7750D01*
X14450D01*
X17300Y12877D02*
Y12776D01*
X17351Y12725D01*
X17402Y12776D01*
Y12877D01*
X17554Y12852D02*
X17529Y12877D01*
X17478D01*
X17452Y12852D01*
Y12750D01*
X17478Y12725D01*
X17529D01*
X17554Y12750D01*
X17250Y8625D02*
X17301D01*
X17327Y8650D01*
Y8701D01*
X17301Y8727D01*
X17250D01*
X17225Y8701D01*
Y8650D01*
X17250Y8625D01*
X17377Y8727D02*
Y8650D01*
X17403Y8625D01*
X17479D01*
Y8727D01*
X17555Y8752D02*
Y8727D01*
X17530D01*
X17580D01*
X17555D01*
Y8650D01*
X17580Y8625D01*
X17657Y8574D02*
Y8727D01*
X17733D01*
X17758Y8701D01*
Y8650D01*
X17733Y8625D01*
X17657D01*
X17809Y8727D02*
Y8650D01*
X17834Y8625D01*
X17911D01*
Y8727D01*
X17987Y8752D02*
Y8727D01*
X17961D01*
X18012D01*
X17987D01*
Y8650D01*
X18012Y8625D01*
X18088D02*
X18164D01*
X18190Y8650D01*
X18164Y8676D01*
X18114D01*
X18088Y8701D01*
X18114Y8727D01*
X18190D01*
X17500Y8952D02*
Y8800D01*
X17602D01*
X17678D02*
X17729D01*
X17754Y8825D01*
Y8876D01*
X17729Y8902D01*
X17678D01*
X17652Y8876D01*
Y8825D01*
X17678Y8800D01*
X17855Y8749D02*
X17881D01*
X17906Y8775D01*
Y8902D01*
X17830D01*
X17805Y8876D01*
Y8825D01*
X17830Y8800D01*
X17906D01*
X17957D02*
X18008D01*
X17982D01*
Y8902D01*
X17957D01*
X18186D02*
X18109D01*
X18084Y8876D01*
Y8825D01*
X18109Y8800D01*
X18186D01*
X17375Y11526D02*
X17223D01*
X17299Y11450D01*
Y11552D01*
X17248Y10875D02*
X17223Y10900D01*
Y10951D01*
X17248Y10977D01*
X17273D01*
X17299Y10951D01*
Y10926D01*
Y10951D01*
X17324Y10977D01*
X17350D01*
X17375Y10951D01*
Y10900D01*
X17350Y10875D01*
X17375Y10152D02*
Y10050D01*
X17273Y10152D01*
X17248D01*
X17223Y10126D01*
Y10075D01*
X17248Y10050D01*
X17375Y9475D02*
Y9526D01*
Y9500D01*
X17223D01*
X17248Y9475D01*
X5200Y10925D02*
X5352D01*
Y10849D01*
X5327Y10823D01*
X5276D01*
X5251Y10849D01*
Y10925D01*
Y10874D02*
X5200Y10823D01*
Y10696D02*
Y10747D01*
X5225Y10773D01*
X5276D01*
X5302Y10747D01*
Y10696D01*
X5276Y10671D01*
X5251D01*
Y10773D01*
X5302Y10620D02*
X5200Y10570D01*
X5302Y10519D01*
X5200Y10468D02*
X5225D01*
Y10443D01*
X5200D01*
Y10468D01*
Y10189D02*
Y10138D01*
Y10163D01*
X5352D01*
X5327Y10189D01*
X5175Y10036D02*
X5200Y10011D01*
X5225D01*
Y10036D01*
X5200D01*
Y10011D01*
X5175Y10036D01*
X5149Y10062D01*
X5200Y9655D02*
Y9757D01*
X5302Y9655D01*
X5327D01*
X5352Y9681D01*
Y9732D01*
X5327Y9757D01*
Y9605D02*
X5352Y9579D01*
Y9528D01*
X5327Y9503D01*
X5225D01*
X5200Y9528D01*
Y9579D01*
X5225Y9605D01*
X5327D01*
X5200Y9452D02*
Y9401D01*
Y9427D01*
X5352D01*
X5327Y9452D01*
X5200Y9249D02*
X5352D01*
X5276Y9325D01*
Y9224D01*
X17300Y12477D02*
Y12325D01*
X17376D01*
X17402Y12350D01*
Y12376D01*
Y12401D01*
X17376Y12427D01*
X17300D01*
X17478Y12325D02*
X17529D01*
X17554Y12350D01*
Y12401D01*
X17529Y12427D01*
X17478D01*
X17452Y12401D01*
Y12350D01*
X17478Y12325D01*
X17630Y12427D02*
X17681D01*
X17706Y12401D01*
Y12325D01*
X17630D01*
X17605Y12350D01*
X17630Y12376D01*
X17706D01*
X17757Y12427D02*
Y12325D01*
Y12376D01*
X17782Y12401D01*
X17808Y12427D01*
X17833D01*
X18011Y12477D02*
Y12325D01*
X17935D01*
X17909Y12350D01*
Y12401D01*
X17935Y12427D01*
X18011D01*
X17300Y12550D02*
X17376D01*
X17402Y12575D01*
X17376Y12601D01*
X17325D01*
X17300Y12626D01*
X17325Y12652D01*
X17402D01*
X17529Y12550D02*
X17478D01*
X17452Y12575D01*
Y12626D01*
X17478Y12652D01*
X17529D01*
X17554Y12626D01*
Y12601D01*
X17452D01*
X17605Y12550D02*
Y12652D01*
X17681D01*
X17706Y12626D01*
Y12550D01*
X17757D02*
X17833D01*
X17859Y12575D01*
X17833Y12601D01*
X17782D01*
X17757Y12626D01*
X17782Y12652D01*
X17859D01*
X17935Y12550D02*
X17986D01*
X18011Y12575D01*
Y12626D01*
X17986Y12652D01*
X17935D01*
X17909Y12626D01*
Y12575D01*
X17935Y12550D01*
X18062Y12652D02*
Y12550D01*
Y12601D01*
X18087Y12626D01*
X18113Y12652D01*
X18138D01*
X6002Y13102D02*
X5951D01*
X5976D01*
Y12975D01*
X5951Y12950D01*
X5925D01*
X5900Y12975D01*
X6154Y12950D02*
X6052D01*
X6154Y13052D01*
Y13077D01*
X6129Y13102D01*
X6078D01*
X6052Y13077D01*
X10650Y12725D02*
Y12877D01*
X10726D01*
X10752Y12852D01*
Y12801D01*
X10726Y12776D01*
X10650D01*
X10701D02*
X10752Y12725D01*
X10904Y12877D02*
X10802D01*
Y12725D01*
X10904D01*
X10802Y12801D02*
X10853D01*
X11056Y12877D02*
X10955D01*
Y12801D01*
X11005D01*
X10955D01*
Y12725D01*
X6150Y11950D02*
Y12102D01*
X6226D01*
X6252Y12077D01*
Y12026D01*
X6226Y12001D01*
X6150D01*
X6201D02*
X6252Y11950D01*
X6302Y11925D02*
X6404D01*
X6455Y12102D02*
X6505D01*
X6480D01*
Y11950D01*
X6455D01*
X6505D01*
X6582D02*
Y12102D01*
X6683Y11950D01*
Y12102D01*
X6734Y11950D02*
Y12052D01*
X6785Y12102D01*
X6836Y12052D01*
Y11950D01*
Y12026D01*
X6734D01*
X12650Y13201D02*
X12752D01*
X13000D02*
X13102D01*
X13051Y13252D02*
Y13150D01*
X11827Y13252D02*
X11725D01*
Y13176D01*
X11776Y13202D01*
X11801D01*
X11827Y13176D01*
Y13125D01*
X11801Y13100D01*
X11750D01*
X11725Y13125D01*
X11877Y13252D02*
Y13151D01*
X11928Y13100D01*
X11979Y13151D01*
Y13252D01*
X12182D02*
Y13100D01*
X12258D01*
X12284Y13125D01*
Y13227D01*
X12258Y13252D01*
X12182D01*
X12436Y13227D02*
X12411Y13252D01*
X12360D01*
X12334Y13227D01*
Y13125D01*
X12360Y13100D01*
X12411D01*
X12436Y13125D01*
X13227Y12302D02*
X13176D01*
X13201D01*
Y12175D01*
X13176Y12150D01*
X13150D01*
X13125Y12175D01*
X13277Y12150D02*
X13328D01*
X13303D01*
Y12302D01*
X13277Y12277D01*
X13177Y11977D02*
X13126D01*
X13151D01*
Y11850D01*
X13126Y11825D01*
X13100D01*
X13075Y11850D01*
X13227Y11952D02*
X13253Y11977D01*
X13304D01*
X13329Y11952D01*
Y11927D01*
X13304Y11901D01*
X13278D01*
X13304D01*
X13329Y11876D01*
Y11850D01*
X13304Y11825D01*
X13253D01*
X13227Y11850D01*
X5452Y12077D02*
X5426Y12102D01*
X5375D01*
X5350Y12077D01*
Y11975D01*
X5375Y11950D01*
X5426D01*
X5452Y11975D01*
Y12026D01*
X5401D01*
X5502Y11950D02*
Y12102D01*
X5604Y11950D01*
Y12102D01*
X5655D02*
Y11950D01*
X5731D01*
X5756Y11975D01*
Y12077D01*
X5731Y12102D01*
X5655D01*
X13450Y10402D02*
X13475Y10427D01*
X13526D01*
X13552Y10402D01*
Y10377D01*
X13526Y10351D01*
X13501D01*
X13526D01*
X13552Y10326D01*
Y10300D01*
X13526Y10275D01*
X13475D01*
X13450Y10300D01*
X13602Y10275D02*
Y10300D01*
X13628D01*
Y10275D01*
X13602D01*
X13729Y10402D02*
X13755Y10427D01*
X13805D01*
X13831Y10402D01*
Y10377D01*
X13805Y10351D01*
X13780D01*
X13805D01*
X13831Y10326D01*
Y10300D01*
X13805Y10275D01*
X13755D01*
X13729Y10300D01*
X13882Y10427D02*
Y10326D01*
X13932Y10275D01*
X13983Y10326D01*
Y10427D01*
X15323Y10777D02*
X15298Y10751D01*
Y10700D01*
X15323Y10675D01*
X15425D01*
X15450Y10700D01*
Y10751D01*
X15425Y10777D01*
X15374D01*
Y10726D01*
X15450Y10827D02*
X15298D01*
X15450Y10929D01*
X15298D01*
Y10980D02*
X15450D01*
Y11056D01*
X15425Y11081D01*
X15323D01*
X15298Y11056D01*
Y10980D01*
X15348Y10052D02*
X15323Y10026D01*
Y9975D01*
X15348Y9950D01*
X15373D01*
X15399Y9975D01*
Y10026D01*
X15424Y10052D01*
X15450D01*
X15475Y10026D01*
Y9975D01*
X15450Y9950D01*
X15348Y10204D02*
X15323Y10179D01*
Y10128D01*
X15348Y10102D01*
X15450D01*
X15475Y10128D01*
Y10179D01*
X15450Y10204D01*
X15323Y10255D02*
X15475D01*
Y10356D01*
X15348Y9302D02*
X15323Y9276D01*
Y9225D01*
X15348Y9200D01*
X15373D01*
X15399Y9225D01*
Y9276D01*
X15424Y9302D01*
X15450D01*
X15475Y9276D01*
Y9225D01*
X15450Y9200D01*
X15323Y9352D02*
X15475D01*
Y9429D01*
X15450Y9454D01*
X15348D01*
X15323Y9429D01*
Y9352D01*
X15475Y9505D02*
X15373D01*
X15323Y9555D01*
X15373Y9606D01*
X15475D01*
X15399D01*
Y9505D01*
X14025Y10700D02*
Y10725D01*
X14050D01*
Y10700D01*
X14025D01*
X10975Y12125D02*
Y12150D01*
X11000D01*
Y12125D01*
X10975D01*
X9825Y12050D02*
Y12075D01*
X9850D01*
Y12050D01*
X9825D01*
X12477Y10226D02*
X12503Y10201D01*
X12503Y10150D01*
X12478Y10124D01*
X12452Y10124D01*
X12427Y10149D01*
X12402Y10124D01*
X12376Y10124D01*
X12351Y10149D01*
X12350Y10200D01*
X12375Y10225D01*
X12401Y10225D01*
X12426Y10200D01*
X12452Y10226D01*
X12477Y10226D01*
X12426Y10200D02*
X12427Y10149D01*
X10527Y10226D02*
X10528Y10125D01*
X10503Y10124D01*
X10400Y10225D01*
X10375Y10225D01*
X8553Y10125D02*
X8527Y10175D01*
X8476Y10226D01*
X8425Y10225D01*
X8400Y10200D01*
X8401Y10149D01*
X8426Y10124D01*
X8452Y10124D01*
X8477Y10149D01*
X8476Y10226D01*
X5350Y12525D02*
Y12677D01*
X5426D01*
X5452Y12652D01*
Y12601D01*
X5426Y12576D01*
X5350D01*
X5401D02*
X5452Y12525D01*
X5502Y12500D02*
X5604D01*
X5655Y12525D02*
Y12627D01*
X5705Y12677D01*
X5756Y12627D01*
Y12525D01*
Y12601D01*
X5655D01*
X5807Y12677D02*
Y12525D01*
X5883D01*
X5909Y12550D01*
Y12652D01*
X5883Y12677D01*
X5807D01*
X6061Y12652D02*
X6036Y12677D01*
X5985D01*
X5959Y12652D01*
Y12550D01*
X5985Y12525D01*
X6036D01*
X6061Y12550D01*
X12676Y11450D02*
Y11602D01*
X12600Y11526D01*
X12702D01*
X10700Y11602D02*
X10725Y11627D01*
X10776D01*
X10802Y11602D01*
Y11577D01*
X10776Y11551D01*
X10751D01*
X10776D01*
X10802Y11526D01*
Y11500D01*
X10776Y11475D01*
X10725D01*
X10700Y11500D01*
X8852Y11475D02*
X8750D01*
X8852Y11577D01*
Y11602D01*
X8826Y11627D01*
X8775D01*
X8750Y11602D01*
X6500Y11425D02*
X6551D01*
X6525D01*
Y11577D01*
X6500Y11552D01*
X5800Y9400D02*
Y9425D01*
X5825D01*
Y9400D01*
X5800D01*
X6750Y7902D02*
X6852D01*
X6801D01*
Y7750D01*
X7004Y7877D02*
X6979Y7902D01*
X6928D01*
X6902Y7877D01*
Y7775D01*
X6928Y7750D01*
X6979D01*
X7004Y7775D01*
X7055Y7750D02*
X7105D01*
X7080D01*
Y7902D01*
X7055Y7877D01*
X6575Y7826D02*
X6677D01*
X6626Y7877D02*
Y7775D01*
X5525Y7826D02*
X5627D01*
X9475D02*
X9577D01*
X10525D02*
X10627D01*
X10576Y7877D02*
Y7775D01*
X10525Y8102D02*
X10627D01*
X10576D01*
Y7950D01*
X10779Y8077D02*
X10754Y8102D01*
X10703D01*
X10677Y8077D01*
Y7975D01*
X10703Y7950D01*
X10754D01*
X10779Y7975D01*
X10830Y8077D02*
X10855Y8102D01*
X10906D01*
X10931Y8077D01*
Y8052D01*
X10906Y8026D01*
X10880D01*
X10906D01*
X10931Y8001D01*
Y7975D01*
X10906Y7950D01*
X10855D01*
X10830Y7975D01*
X12650Y7902D02*
X12752D01*
X12701D01*
Y7750D01*
X12904Y7877D02*
X12879Y7902D01*
X12828D01*
X12802Y7877D01*
Y7775D01*
X12828Y7750D01*
X12879D01*
X12904Y7775D01*
X13031Y7750D02*
Y7902D01*
X12955Y7826D01*
X13056D01*
X12500D02*
X12602D01*
X12551Y7877D02*
Y7775D01*
X11450Y7826D02*
X11552D01*
X9750Y9400D02*
Y9425D01*
X9775D01*
Y9400D01*
X9750D01*
Y10700D02*
Y10725D01*
X9775D01*
Y10700D01*
X9750D01*
X5800D02*
Y10725D01*
X5825D01*
Y10700D01*
X5800D01*
X11725D02*
Y10725D01*
X11750D01*
Y10700D01*
X11725D01*
Y9400D02*
Y9425D01*
X11750D01*
Y9400D01*
X11725D01*
X7500Y7826D02*
X7602D01*
X8550D02*
X8652D01*
X8601Y7877D02*
Y7775D01*
X8550Y8102D02*
X8652D01*
X8601D01*
Y7950D01*
X8804Y8077D02*
X8779Y8102D01*
X8728D01*
X8702Y8077D01*
Y7975D01*
X8728Y7950D01*
X8779D01*
X8804Y7975D01*
X8956Y7950D02*
X8855D01*
X8956Y8052D01*
Y8077D01*
X8931Y8102D01*
X8880D01*
X8855Y8077D01*
X6578Y10125D02*
X6577Y10226D01*
X6501Y10226D01*
X6527Y10175D01*
X6527Y10150D01*
X6502Y10124D01*
X6451Y10124D01*
X6426Y10149D01*
X6425Y10200D01*
X6450Y10225D01*
X7775Y9400D02*
Y9425D01*
X7800D01*
Y9400D01*
X7775D01*
Y10700D02*
Y10725D01*
X7800D01*
Y10700D01*
X7775D01*
D34*
X17825Y11375D02*
D03*
Y11025D02*
D03*
Y11725D02*
D03*
Y9625D02*
D03*
Y10675D02*
D03*
Y10325D02*
D03*
Y9975D02*
D03*
X14925Y11421D02*
D03*
X14417Y11675D02*
D03*
X14671D02*
D03*
Y11421D02*
D03*
X14417D02*
D03*
X14163Y11675D02*
D03*
X13909D02*
D03*
Y11421D02*
D03*
X14163D02*
D03*
X14925Y12546D02*
D03*
X14417Y12800D02*
D03*
X14671D02*
D03*
Y12546D02*
D03*
X14417D02*
D03*
X14163Y12800D02*
D03*
X13909D02*
D03*
Y12546D02*
D03*
X14163D02*
D03*
X12700Y12750D02*
D03*
X10850Y11975D02*
D03*
X7025Y11925D02*
D03*
X7775Y12546D02*
D03*
X7267Y12800D02*
D03*
X7521D02*
D03*
Y12546D02*
D03*
X7267D02*
D03*
X7013Y12800D02*
D03*
X6759D02*
D03*
Y12546D02*
D03*
X7013D02*
D03*
X5950Y12000D02*
D03*
Y12325D02*
D03*
X15375Y10525D02*
D03*
X13775Y10100D02*
D03*
X12425Y11550D02*
D03*
X10500D02*
D03*
X8575D02*
D03*
X6725Y11625D02*
D03*
X12650Y10325D02*
D03*
X10675D02*
D03*
X8700D02*
D03*
X6725D02*
D03*
X15375Y9025D02*
D03*
Y9775D02*
D03*
X6275Y8100D02*
D03*
X12200D02*
D03*
X10225D02*
D03*
X8250D02*
D03*
X17275Y7925D02*
D03*
X15925D02*
D03*
X17275Y9325D02*
D03*
X15925D02*
D03*
X17275Y10725D02*
D03*
X15925D02*
D03*
X17275Y12125D02*
D03*
X15925D02*
D03*
D35*
X17825Y9275D02*
D03*
D36*
X14925Y11675D02*
D03*
Y12800D02*
D03*
X13050Y12750D02*
D03*
X7775Y12800D02*
D03*
X5925Y8100D02*
D03*
X11850D02*
D03*
X9875D02*
D03*
X7900D02*
D03*
D37*
X12125Y12775D02*
D03*
X6975Y8250D02*
D03*
X12800Y8275D02*
D03*
X17875Y12975D02*
D03*
Y8025D02*
D03*
X5425Y12975D02*
D03*
D38*
X14775Y8500D02*
D03*
D39*
Y8754D02*
D03*
Y9008D02*
D03*
Y9262D02*
D03*
X13440Y8500D02*
D03*
Y8754D02*
D03*
Y9008D02*
D03*
Y9262D02*
D03*
D40*
X13925Y9550D02*
D03*
X8300Y11675D02*
D03*
X12375Y11750D02*
D03*
X13575Y10900D02*
D03*
X9175Y12825D02*
D03*
X10400Y11775D02*
D03*
X11150Y12050D02*
D03*
X10200Y12075D02*
D03*
X8525Y12800D02*
D03*
X7225Y10160D02*
D03*
X7415Y11060D02*
D03*
X7425Y11300D02*
D03*
X7225Y11550D02*
D03*
X9390Y11060D02*
D03*
X9400Y11300D02*
D03*
X9200Y11550D02*
D03*
X11175D02*
D03*
X11375Y11300D02*
D03*
X11365Y11060D02*
D03*
X9125Y10125D02*
D03*
X11100D02*
D03*
X9650D02*
D03*
X11625D02*
D03*
X13075D02*
D03*
X15950Y12700D02*
D03*
X15100Y8300D02*
D03*
X13700Y7850D02*
D03*
X13700Y8050D02*
D03*
X14825Y10675D02*
D03*
X14825Y10025D02*
D03*
X5975Y8625D02*
D03*
X6225D02*
D03*
X5350Y9050D02*
D03*
X6738Y9662D02*
D03*
X5428Y11472D02*
D03*
X5428Y11247D02*
D03*
X6675Y10900D02*
D03*
X10688Y9662D02*
D03*
X9300Y9050D02*
D03*
X10625Y10900D02*
D03*
X9925Y8625D02*
D03*
X10175D02*
D03*
X12662Y9662D02*
D03*
X11275Y9050D02*
D03*
X12600Y10900D02*
D03*
X11900Y8625D02*
D03*
X12150D02*
D03*
X8712Y9662D02*
D03*
X7325Y9050D02*
D03*
X8650Y10900D02*
D03*
X7950Y8625D02*
D03*
X8200D02*
D03*
X9665Y12740D02*
D03*
X6475Y11700D02*
D03*
X9112Y12012D02*
D03*
X15000Y7925D02*
D03*
X15550Y12675D02*
D03*
X15750Y12500D02*
D03*
X15625Y12300D02*
D03*
X14425Y12100D02*
D03*
X15950Y11775D02*
D03*
X16175Y10975D02*
D03*
Y9575D02*
D03*
Y8175D02*
D03*
X15950Y10375D02*
D03*
Y8975D02*
D03*
X17300Y13075D02*
D03*
Y11675D02*
D03*
Y10275D02*
D03*
Y8875D02*
D03*
X15850Y9125D02*
D03*
X8675Y12125D02*
D03*
M02*
